M48
;DRILL file {KiCad 4.0.2+e4-6225~38~ubuntu14.04.1-stable} date Sun 31 Jul 2016 09:36:05 AM CEST
;FORMAT={-:-/ absolute / metric / decimal}
FMAT,2
METRIC,TZ
T1C0.400
T2C1.000
T3C1.016
T4C1.200
T5C1.300
T6C1.501
T7C3.200
%
G90
G05
M71
T1
X114.173Y-79.121
X115.443Y-81.026
X117.348Y-70.866
X119.507Y-83.312
X119.761Y-79.248
X119.888Y-73.406
X119.888Y-74.676
X120.269Y-90.17
X120.396Y-84.709
X120.777Y-81.534
X121.412Y-86.233
X123.317Y-86.233
X123.317Y-90.17
X125.349Y-86.233
X125.349Y-90.17
X126.365Y-77.216
X127.254Y-86.233
X127.254Y-90.17
X128.778Y-114.3
X128.778Y-115.316
X131.064Y-84.963
X131.318Y-114.3
X131.318Y-115.316
X131.953Y-75.057
X133.858Y-119.888
X133.858Y-120.904
X135.255Y-85.471
T2
X137.668Y-65.786
X137.668Y-72.771
X137.668Y-79.756
X137.668Y-86.741
X141.448Y-65.786
X141.448Y-72.771
X141.448Y-79.756
X141.448Y-86.741
T3
X112.141Y-100.33
X112.141Y-102.87
X112.141Y-105.41
X112.141Y-107.95
X112.141Y-110.49
X112.268Y-72.771
X112.268Y-75.311
X112.268Y-77.851
X112.268Y-80.391
X112.268Y-82.931
X112.268Y-85.471
X114.681Y-100.33
X114.681Y-102.87
X114.681Y-105.41
X114.681Y-107.95
X114.681Y-110.49
T4
X122.663Y-102.661
X122.663Y-113.411
X161.163Y-102.661
X161.163Y-113.411
X173.23Y-67.296
X173.23Y-72.296
X173.23Y-77.296
X173.23Y-82.296
X173.23Y-88.886
X173.23Y-93.886
X173.23Y-98.886
X173.23Y-103.886
X173.23Y-110.476
X173.23Y-115.476
X173.23Y-120.476
X173.23Y-125.476
T5
X152.788Y-65.786
X152.788Y-72.771
X152.788Y-79.756
X152.788Y-86.741
X157.828Y-65.786
X157.828Y-72.771
X157.828Y-79.756
X157.828Y-86.741
X162.868Y-65.786
X162.868Y-72.771
X162.868Y-79.756
X162.868Y-86.741
T6
X141.78Y-122.809
X163.782Y-122.809
T7
X112.5Y-62.928
X112.5Y-129.928
X168.Y-62.928
X168.Y-129.928
T0
M30
