G04 #@! TF.FileFunction,Legend,Bot*
%FSLAX46Y46*%
G04 Gerber Fmt 4.6, Leading zero omitted, Abs format (unit mm)*
G04 Created by KiCad (PCBNEW 4.0.2+e4-6225~38~ubuntu14.04.1-stable) date Sun 31 Jul 2016 09:36:03 AM CEST*
%MOMM*%
G01*
G04 APERTURE LIST*
%ADD10C,0.100000*%
%ADD11C,0.150000*%
%ADD12C,0.010000*%
%ADD13C,0.300000*%
G04 APERTURE END LIST*
D10*
D11*
X125595000Y-83781000D02*
X124595000Y-83781000D01*
X124595000Y-82081000D02*
X125595000Y-82081000D01*
X122928000Y-71716000D02*
X121928000Y-71716000D01*
X121928000Y-70016000D02*
X122928000Y-70016000D01*
X120918000Y-92491000D02*
X120918000Y-93691000D01*
X122668000Y-93691000D02*
X122668000Y-92491000D01*
X117743000Y-92491000D02*
X117743000Y-93691000D01*
X119493000Y-93691000D02*
X119493000Y-92491000D01*
X124093000Y-92491000D02*
X124093000Y-93691000D01*
X125843000Y-93691000D02*
X125843000Y-92491000D01*
X127268000Y-92491000D02*
X127268000Y-93691000D01*
X129018000Y-93691000D02*
X129018000Y-92491000D01*
X114568000Y-92491000D02*
X114568000Y-93691000D01*
X116318000Y-93691000D02*
X116318000Y-92491000D01*
X111393000Y-92491000D02*
X111393000Y-93691000D01*
X113143000Y-93691000D02*
X113143000Y-92491000D01*
X134380000Y-92364000D02*
X134380000Y-93564000D01*
X136130000Y-93564000D02*
X136130000Y-92364000D01*
X126318000Y-108371000D02*
X127568000Y-108371000D01*
X126318000Y-108371000D02*
X126318000Y-106871000D01*
X136318000Y-108371000D02*
X136318000Y-106871000D01*
X136318000Y-108371000D02*
X135068000Y-108371000D01*
X132080000Y-82169000D02*
X132080000Y-81407000D01*
X132080000Y-81407000D02*
X130556000Y-81407000D01*
X130556000Y-81407000D02*
X130556000Y-82169000D01*
X133604000Y-70993000D02*
X129032000Y-70993000D01*
X129032000Y-70993000D02*
X129032000Y-82169000D01*
X129032000Y-82169000D02*
X133604000Y-82169000D01*
X133604000Y-82169000D02*
X133604000Y-70993000D01*
X140628000Y-93464000D02*
X140628000Y-92464000D01*
X142328000Y-92464000D02*
X142328000Y-93464000D01*
X116981000Y-108620000D02*
X116981000Y-109820000D01*
X118731000Y-109820000D02*
X118731000Y-108620000D01*
X119800000Y-109720000D02*
X119800000Y-108720000D01*
X121500000Y-108720000D02*
X121500000Y-109720000D01*
X137834000Y-109720000D02*
X137834000Y-108720000D01*
X139534000Y-108720000D02*
X139534000Y-109720000D01*
D12*
G36*
X153988723Y-95152485D02*
X154044323Y-95292066D01*
X154156790Y-95429623D01*
X154328233Y-95568688D01*
X154549133Y-95706252D01*
X154634956Y-95754702D01*
X154769824Y-95830800D01*
X154947329Y-95930932D01*
X155161062Y-96051483D01*
X155404615Y-96188838D01*
X155671578Y-96339384D01*
X155955544Y-96499506D01*
X156250104Y-96665590D01*
X156379334Y-96738451D01*
X156671971Y-96903470D01*
X157010847Y-97094615D01*
X157386775Y-97306702D01*
X157790567Y-97534545D01*
X158213037Y-97772960D01*
X158644997Y-98016763D01*
X159077260Y-98260767D01*
X159500638Y-98499789D01*
X159905944Y-98728643D01*
X160084127Y-98829266D01*
X160432961Y-99025707D01*
X160767279Y-99212888D01*
X161082645Y-99388387D01*
X161374622Y-99549785D01*
X161638771Y-99694661D01*
X161870655Y-99820595D01*
X162065838Y-99925167D01*
X162219882Y-100005957D01*
X162328348Y-100060545D01*
X162386801Y-100086509D01*
X162391974Y-100088026D01*
X162574980Y-100099116D01*
X162743033Y-100051492D01*
X162887002Y-99949831D01*
X162997760Y-99798811D01*
X163011763Y-99770437D01*
X163018960Y-99750832D01*
X163025476Y-99722436D01*
X163031348Y-99682143D01*
X163036615Y-99626848D01*
X163041314Y-99553447D01*
X163045483Y-99458834D01*
X163049160Y-99339904D01*
X163052381Y-99193554D01*
X163055185Y-99016678D01*
X163057609Y-98806170D01*
X163059692Y-98558928D01*
X163061470Y-98271844D01*
X163062981Y-97941816D01*
X163064264Y-97565737D01*
X163065355Y-97140503D01*
X163066293Y-96663009D01*
X163067115Y-96130151D01*
X163067858Y-95538823D01*
X163068333Y-95107404D01*
X163068706Y-94571830D01*
X163068697Y-94052272D01*
X163068324Y-93552438D01*
X163067604Y-93076037D01*
X163066555Y-92626777D01*
X163065195Y-92208366D01*
X163063542Y-91824513D01*
X163061614Y-91478926D01*
X163059428Y-91175313D01*
X163057003Y-90917383D01*
X163054356Y-90708843D01*
X163051506Y-90553403D01*
X163048469Y-90454770D01*
X163045763Y-90418406D01*
X162981691Y-90229831D01*
X162874382Y-90086195D01*
X162749914Y-90001016D01*
X162606470Y-89947534D01*
X162519126Y-89942632D01*
X162519126Y-90478845D01*
X162540975Y-90479751D01*
X162541953Y-90480931D01*
X162545039Y-90517021D01*
X162547964Y-90612375D01*
X162550725Y-90762598D01*
X162553317Y-90963295D01*
X162555736Y-91210071D01*
X162557977Y-91498531D01*
X162560037Y-91824281D01*
X162561911Y-92182925D01*
X162563594Y-92570068D01*
X162565083Y-92981316D01*
X162566372Y-93412273D01*
X162567458Y-93858545D01*
X162568337Y-94315736D01*
X162569003Y-94779451D01*
X162569453Y-95245297D01*
X162569682Y-95708877D01*
X162569686Y-96165796D01*
X162569461Y-96611661D01*
X162569002Y-97042075D01*
X162568305Y-97452644D01*
X162567366Y-97838974D01*
X162566180Y-98196668D01*
X162564743Y-98521332D01*
X162563051Y-98808571D01*
X162561099Y-99053990D01*
X162558883Y-99253195D01*
X162556399Y-99401790D01*
X162553642Y-99495379D01*
X162550866Y-99529112D01*
X162513807Y-99572964D01*
X162491895Y-99579459D01*
X162484907Y-99579054D01*
X162475253Y-99576787D01*
X162460105Y-99571078D01*
X162436635Y-99560351D01*
X162402014Y-99543025D01*
X162353414Y-99517524D01*
X162288006Y-99482268D01*
X162202963Y-99435678D01*
X162095455Y-99376178D01*
X161962655Y-99302187D01*
X161801735Y-99212129D01*
X161609866Y-99104423D01*
X161384219Y-98977492D01*
X161121966Y-98829758D01*
X160820280Y-98659642D01*
X160476331Y-98465565D01*
X160087292Y-98245949D01*
X159650334Y-97999216D01*
X159162629Y-97723787D01*
X158814296Y-97527057D01*
X158423223Y-97306229D01*
X158029300Y-97083873D01*
X157638661Y-96863446D01*
X157257438Y-96648405D01*
X156891764Y-96442208D01*
X156547774Y-96248312D01*
X156231600Y-96070174D01*
X155949375Y-95911253D01*
X155707232Y-95775005D01*
X155511306Y-95664888D01*
X155432453Y-95620633D01*
X155180879Y-95478141D01*
X154964038Y-95352493D01*
X154786038Y-95246202D01*
X154650985Y-95161782D01*
X154562985Y-95101748D01*
X154526144Y-95068615D01*
X154525310Y-95065197D01*
X154554588Y-95033754D01*
X154628502Y-94979227D01*
X154735928Y-94909248D01*
X154865745Y-94831448D01*
X154867429Y-94830477D01*
X155039907Y-94731178D01*
X155260493Y-94604264D01*
X155522090Y-94453814D01*
X155817598Y-94283908D01*
X156139918Y-94098626D01*
X156481952Y-93902047D01*
X156836601Y-93698251D01*
X157196765Y-93491319D01*
X157555346Y-93285328D01*
X157905245Y-93084360D01*
X158239363Y-92892494D01*
X158511915Y-92736017D01*
X158786980Y-92578112D01*
X159104822Y-92395645D01*
X159453014Y-92195750D01*
X159819126Y-91985563D01*
X160190732Y-91772218D01*
X160555401Y-91562852D01*
X160900707Y-91364598D01*
X161086238Y-91258075D01*
X161420326Y-91066771D01*
X161703136Y-90906032D01*
X161938167Y-90773990D01*
X162128919Y-90668777D01*
X162278892Y-90588524D01*
X162391584Y-90531363D01*
X162470496Y-90495426D01*
X162519126Y-90478845D01*
X162519126Y-89942632D01*
X162476362Y-89940231D01*
X162344171Y-89972575D01*
X162297322Y-89994933D01*
X162198469Y-90047602D01*
X162047361Y-90130724D01*
X161843747Y-90244443D01*
X161587379Y-90388899D01*
X161278006Y-90564235D01*
X160915379Y-90770594D01*
X160499246Y-91008118D01*
X160029359Y-91276949D01*
X159505466Y-91577230D01*
X158927319Y-91909102D01*
X158294667Y-92272708D01*
X157607260Y-92668191D01*
X157572943Y-92687943D01*
X157412191Y-92780399D01*
X157205473Y-92899174D01*
X156962062Y-93038947D01*
X156691232Y-93194395D01*
X156402256Y-93360197D01*
X156104406Y-93531031D01*
X155806956Y-93701575D01*
X155631339Y-93802234D01*
X155362727Y-93956522D01*
X155108259Y-94103353D01*
X154873846Y-94239267D01*
X154665399Y-94360807D01*
X154488829Y-94464517D01*
X154350047Y-94546937D01*
X154254964Y-94604611D01*
X154210224Y-94633530D01*
X154134877Y-94708640D01*
X154062697Y-94810645D01*
X154039688Y-94853124D01*
X153987881Y-95007348D01*
X153988723Y-95152485D01*
X153988723Y-95152485D01*
G37*
X153988723Y-95152485D02*
X154044323Y-95292066D01*
X154156790Y-95429623D01*
X154328233Y-95568688D01*
X154549133Y-95706252D01*
X154634956Y-95754702D01*
X154769824Y-95830800D01*
X154947329Y-95930932D01*
X155161062Y-96051483D01*
X155404615Y-96188838D01*
X155671578Y-96339384D01*
X155955544Y-96499506D01*
X156250104Y-96665590D01*
X156379334Y-96738451D01*
X156671971Y-96903470D01*
X157010847Y-97094615D01*
X157386775Y-97306702D01*
X157790567Y-97534545D01*
X158213037Y-97772960D01*
X158644997Y-98016763D01*
X159077260Y-98260767D01*
X159500638Y-98499789D01*
X159905944Y-98728643D01*
X160084127Y-98829266D01*
X160432961Y-99025707D01*
X160767279Y-99212888D01*
X161082645Y-99388387D01*
X161374622Y-99549785D01*
X161638771Y-99694661D01*
X161870655Y-99820595D01*
X162065838Y-99925167D01*
X162219882Y-100005957D01*
X162328348Y-100060545D01*
X162386801Y-100086509D01*
X162391974Y-100088026D01*
X162574980Y-100099116D01*
X162743033Y-100051492D01*
X162887002Y-99949831D01*
X162997760Y-99798811D01*
X163011763Y-99770437D01*
X163018960Y-99750832D01*
X163025476Y-99722436D01*
X163031348Y-99682143D01*
X163036615Y-99626848D01*
X163041314Y-99553447D01*
X163045483Y-99458834D01*
X163049160Y-99339904D01*
X163052381Y-99193554D01*
X163055185Y-99016678D01*
X163057609Y-98806170D01*
X163059692Y-98558928D01*
X163061470Y-98271844D01*
X163062981Y-97941816D01*
X163064264Y-97565737D01*
X163065355Y-97140503D01*
X163066293Y-96663009D01*
X163067115Y-96130151D01*
X163067858Y-95538823D01*
X163068333Y-95107404D01*
X163068706Y-94571830D01*
X163068697Y-94052272D01*
X163068324Y-93552438D01*
X163067604Y-93076037D01*
X163066555Y-92626777D01*
X163065195Y-92208366D01*
X163063542Y-91824513D01*
X163061614Y-91478926D01*
X163059428Y-91175313D01*
X163057003Y-90917383D01*
X163054356Y-90708843D01*
X163051506Y-90553403D01*
X163048469Y-90454770D01*
X163045763Y-90418406D01*
X162981691Y-90229831D01*
X162874382Y-90086195D01*
X162749914Y-90001016D01*
X162606470Y-89947534D01*
X162519126Y-89942632D01*
X162519126Y-90478845D01*
X162540975Y-90479751D01*
X162541953Y-90480931D01*
X162545039Y-90517021D01*
X162547964Y-90612375D01*
X162550725Y-90762598D01*
X162553317Y-90963295D01*
X162555736Y-91210071D01*
X162557977Y-91498531D01*
X162560037Y-91824281D01*
X162561911Y-92182925D01*
X162563594Y-92570068D01*
X162565083Y-92981316D01*
X162566372Y-93412273D01*
X162567458Y-93858545D01*
X162568337Y-94315736D01*
X162569003Y-94779451D01*
X162569453Y-95245297D01*
X162569682Y-95708877D01*
X162569686Y-96165796D01*
X162569461Y-96611661D01*
X162569002Y-97042075D01*
X162568305Y-97452644D01*
X162567366Y-97838974D01*
X162566180Y-98196668D01*
X162564743Y-98521332D01*
X162563051Y-98808571D01*
X162561099Y-99053990D01*
X162558883Y-99253195D01*
X162556399Y-99401790D01*
X162553642Y-99495379D01*
X162550866Y-99529112D01*
X162513807Y-99572964D01*
X162491895Y-99579459D01*
X162484907Y-99579054D01*
X162475253Y-99576787D01*
X162460105Y-99571078D01*
X162436635Y-99560351D01*
X162402014Y-99543025D01*
X162353414Y-99517524D01*
X162288006Y-99482268D01*
X162202963Y-99435678D01*
X162095455Y-99376178D01*
X161962655Y-99302187D01*
X161801735Y-99212129D01*
X161609866Y-99104423D01*
X161384219Y-98977492D01*
X161121966Y-98829758D01*
X160820280Y-98659642D01*
X160476331Y-98465565D01*
X160087292Y-98245949D01*
X159650334Y-97999216D01*
X159162629Y-97723787D01*
X158814296Y-97527057D01*
X158423223Y-97306229D01*
X158029300Y-97083873D01*
X157638661Y-96863446D01*
X157257438Y-96648405D01*
X156891764Y-96442208D01*
X156547774Y-96248312D01*
X156231600Y-96070174D01*
X155949375Y-95911253D01*
X155707232Y-95775005D01*
X155511306Y-95664888D01*
X155432453Y-95620633D01*
X155180879Y-95478141D01*
X154964038Y-95352493D01*
X154786038Y-95246202D01*
X154650985Y-95161782D01*
X154562985Y-95101748D01*
X154526144Y-95068615D01*
X154525310Y-95065197D01*
X154554588Y-95033754D01*
X154628502Y-94979227D01*
X154735928Y-94909248D01*
X154865745Y-94831448D01*
X154867429Y-94830477D01*
X155039907Y-94731178D01*
X155260493Y-94604264D01*
X155522090Y-94453814D01*
X155817598Y-94283908D01*
X156139918Y-94098626D01*
X156481952Y-93902047D01*
X156836601Y-93698251D01*
X157196765Y-93491319D01*
X157555346Y-93285328D01*
X157905245Y-93084360D01*
X158239363Y-92892494D01*
X158511915Y-92736017D01*
X158786980Y-92578112D01*
X159104822Y-92395645D01*
X159453014Y-92195750D01*
X159819126Y-91985563D01*
X160190732Y-91772218D01*
X160555401Y-91562852D01*
X160900707Y-91364598D01*
X161086238Y-91258075D01*
X161420326Y-91066771D01*
X161703136Y-90906032D01*
X161938167Y-90773990D01*
X162128919Y-90668777D01*
X162278892Y-90588524D01*
X162391584Y-90531363D01*
X162470496Y-90495426D01*
X162519126Y-90478845D01*
X162519126Y-89942632D01*
X162476362Y-89940231D01*
X162344171Y-89972575D01*
X162297322Y-89994933D01*
X162198469Y-90047602D01*
X162047361Y-90130724D01*
X161843747Y-90244443D01*
X161587379Y-90388899D01*
X161278006Y-90564235D01*
X160915379Y-90770594D01*
X160499246Y-91008118D01*
X160029359Y-91276949D01*
X159505466Y-91577230D01*
X158927319Y-91909102D01*
X158294667Y-92272708D01*
X157607260Y-92668191D01*
X157572943Y-92687943D01*
X157412191Y-92780399D01*
X157205473Y-92899174D01*
X156962062Y-93038947D01*
X156691232Y-93194395D01*
X156402256Y-93360197D01*
X156104406Y-93531031D01*
X155806956Y-93701575D01*
X155631339Y-93802234D01*
X155362727Y-93956522D01*
X155108259Y-94103353D01*
X154873846Y-94239267D01*
X154665399Y-94360807D01*
X154488829Y-94464517D01*
X154350047Y-94546937D01*
X154254964Y-94604611D01*
X154210224Y-94633530D01*
X154134877Y-94708640D01*
X154062697Y-94810645D01*
X154039688Y-94853124D01*
X153987881Y-95007348D01*
X153988723Y-95152485D01*
G36*
X156174319Y-95113171D02*
X156179481Y-95250580D01*
X156187227Y-95351413D01*
X156196852Y-95404455D01*
X156201225Y-95409785D01*
X156236670Y-95398753D01*
X156324554Y-95367388D01*
X156457929Y-95318283D01*
X156629848Y-95254033D01*
X156833362Y-95177234D01*
X157061524Y-95090479D01*
X157275473Y-95008614D01*
X157607747Y-94881276D01*
X157885061Y-94775398D01*
X158111788Y-94689373D01*
X158292300Y-94621593D01*
X158430970Y-94570449D01*
X158532170Y-94534334D01*
X158600273Y-94511638D01*
X158639651Y-94500753D01*
X158654677Y-94500071D01*
X158655148Y-94501136D01*
X158644698Y-94532750D01*
X158615248Y-94616215D01*
X158569652Y-94743595D01*
X158510762Y-94906950D01*
X158441430Y-95098342D01*
X158367858Y-95300645D01*
X158291428Y-95512183D01*
X158223311Y-95704104D01*
X158166284Y-95868307D01*
X158123122Y-95996694D01*
X158096601Y-96081163D01*
X158089349Y-96113357D01*
X158120104Y-96111351D01*
X158196712Y-96087343D01*
X158307015Y-96045549D01*
X158416427Y-95999949D01*
X158519855Y-95955232D01*
X158672711Y-95889135D01*
X158865998Y-95805551D01*
X159090714Y-95708370D01*
X159337861Y-95601485D01*
X159598440Y-95488788D01*
X159846656Y-95381434D01*
X160096243Y-95273771D01*
X160327628Y-95174508D01*
X160534283Y-95086407D01*
X160709675Y-95012225D01*
X160847275Y-94954724D01*
X160940551Y-94916664D01*
X160982974Y-94900805D01*
X160984563Y-94900512D01*
X160996978Y-94929740D01*
X161006162Y-95007055D01*
X161010423Y-95116903D01*
X161010537Y-95139234D01*
X161012183Y-95253351D01*
X161016536Y-95337764D01*
X161022721Y-95376916D01*
X161023976Y-95377955D01*
X161053034Y-95358924D01*
X161122739Y-95306425D01*
X161224511Y-95227351D01*
X161349766Y-95128594D01*
X161489922Y-95017046D01*
X161636399Y-94899601D01*
X161780614Y-94783150D01*
X161913984Y-94674586D01*
X162027929Y-94580802D01*
X162113866Y-94508689D01*
X162163213Y-94465141D01*
X162171352Y-94456458D01*
X162173245Y-94425882D01*
X162163616Y-94423068D01*
X162125700Y-94416906D01*
X162034374Y-94399598D01*
X161898563Y-94372911D01*
X161727192Y-94338611D01*
X161529186Y-94298465D01*
X161382878Y-94268522D01*
X161172222Y-94226464D01*
X160986907Y-94191816D01*
X160834794Y-94165861D01*
X160723746Y-94149883D01*
X160661624Y-94145164D01*
X160651407Y-94149161D01*
X160680362Y-94191574D01*
X160735339Y-94267586D01*
X160798136Y-94352295D01*
X160859519Y-94439836D01*
X160898499Y-94506560D01*
X160906665Y-94537549D01*
X160872393Y-94553880D01*
X160787448Y-94588496D01*
X160660182Y-94638294D01*
X160498944Y-94700172D01*
X160312085Y-94771026D01*
X160107955Y-94847754D01*
X159894905Y-94927251D01*
X159681284Y-95006416D01*
X159475443Y-95082145D01*
X159285733Y-95151334D01*
X159120504Y-95210882D01*
X158988105Y-95257684D01*
X158896888Y-95288637D01*
X158855202Y-95300639D01*
X158853563Y-95300513D01*
X158860125Y-95268269D01*
X158885378Y-95184757D01*
X158926475Y-95058614D01*
X158980571Y-94898480D01*
X159044820Y-94712991D01*
X159081006Y-94610204D01*
X159149513Y-94415230D01*
X159209622Y-94241417D01*
X159258444Y-94097346D01*
X159293092Y-93991602D01*
X159310674Y-93932767D01*
X159312120Y-93923566D01*
X159279835Y-93926844D01*
X159192563Y-93940313D01*
X159057930Y-93962671D01*
X158883565Y-93992619D01*
X158677093Y-94028856D01*
X158446142Y-94070082D01*
X158334684Y-94090200D01*
X158060764Y-94139727D01*
X157777122Y-94190861D01*
X157498094Y-94241027D01*
X157238013Y-94287653D01*
X157011215Y-94328165D01*
X156832034Y-94359989D01*
X156824948Y-94361241D01*
X156643557Y-94393696D01*
X156481365Y-94423478D01*
X156349913Y-94448408D01*
X156260744Y-94466307D01*
X156228143Y-94473931D01*
X156206183Y-94486655D01*
X156190829Y-94515655D01*
X156180930Y-94570778D01*
X156175336Y-94661867D01*
X156172896Y-94798768D01*
X156172442Y-94950401D01*
X156174319Y-95113171D01*
X156174319Y-95113171D01*
G37*
X156174319Y-95113171D02*
X156179481Y-95250580D01*
X156187227Y-95351413D01*
X156196852Y-95404455D01*
X156201225Y-95409785D01*
X156236670Y-95398753D01*
X156324554Y-95367388D01*
X156457929Y-95318283D01*
X156629848Y-95254033D01*
X156833362Y-95177234D01*
X157061524Y-95090479D01*
X157275473Y-95008614D01*
X157607747Y-94881276D01*
X157885061Y-94775398D01*
X158111788Y-94689373D01*
X158292300Y-94621593D01*
X158430970Y-94570449D01*
X158532170Y-94534334D01*
X158600273Y-94511638D01*
X158639651Y-94500753D01*
X158654677Y-94500071D01*
X158655148Y-94501136D01*
X158644698Y-94532750D01*
X158615248Y-94616215D01*
X158569652Y-94743595D01*
X158510762Y-94906950D01*
X158441430Y-95098342D01*
X158367858Y-95300645D01*
X158291428Y-95512183D01*
X158223311Y-95704104D01*
X158166284Y-95868307D01*
X158123122Y-95996694D01*
X158096601Y-96081163D01*
X158089349Y-96113357D01*
X158120104Y-96111351D01*
X158196712Y-96087343D01*
X158307015Y-96045549D01*
X158416427Y-95999949D01*
X158519855Y-95955232D01*
X158672711Y-95889135D01*
X158865998Y-95805551D01*
X159090714Y-95708370D01*
X159337861Y-95601485D01*
X159598440Y-95488788D01*
X159846656Y-95381434D01*
X160096243Y-95273771D01*
X160327628Y-95174508D01*
X160534283Y-95086407D01*
X160709675Y-95012225D01*
X160847275Y-94954724D01*
X160940551Y-94916664D01*
X160982974Y-94900805D01*
X160984563Y-94900512D01*
X160996978Y-94929740D01*
X161006162Y-95007055D01*
X161010423Y-95116903D01*
X161010537Y-95139234D01*
X161012183Y-95253351D01*
X161016536Y-95337764D01*
X161022721Y-95376916D01*
X161023976Y-95377955D01*
X161053034Y-95358924D01*
X161122739Y-95306425D01*
X161224511Y-95227351D01*
X161349766Y-95128594D01*
X161489922Y-95017046D01*
X161636399Y-94899601D01*
X161780614Y-94783150D01*
X161913984Y-94674586D01*
X162027929Y-94580802D01*
X162113866Y-94508689D01*
X162163213Y-94465141D01*
X162171352Y-94456458D01*
X162173245Y-94425882D01*
X162163616Y-94423068D01*
X162125700Y-94416906D01*
X162034374Y-94399598D01*
X161898563Y-94372911D01*
X161727192Y-94338611D01*
X161529186Y-94298465D01*
X161382878Y-94268522D01*
X161172222Y-94226464D01*
X160986907Y-94191816D01*
X160834794Y-94165861D01*
X160723746Y-94149883D01*
X160661624Y-94145164D01*
X160651407Y-94149161D01*
X160680362Y-94191574D01*
X160735339Y-94267586D01*
X160798136Y-94352295D01*
X160859519Y-94439836D01*
X160898499Y-94506560D01*
X160906665Y-94537549D01*
X160872393Y-94553880D01*
X160787448Y-94588496D01*
X160660182Y-94638294D01*
X160498944Y-94700172D01*
X160312085Y-94771026D01*
X160107955Y-94847754D01*
X159894905Y-94927251D01*
X159681284Y-95006416D01*
X159475443Y-95082145D01*
X159285733Y-95151334D01*
X159120504Y-95210882D01*
X158988105Y-95257684D01*
X158896888Y-95288637D01*
X158855202Y-95300639D01*
X158853563Y-95300513D01*
X158860125Y-95268269D01*
X158885378Y-95184757D01*
X158926475Y-95058614D01*
X158980571Y-94898480D01*
X159044820Y-94712991D01*
X159081006Y-94610204D01*
X159149513Y-94415230D01*
X159209622Y-94241417D01*
X159258444Y-94097346D01*
X159293092Y-93991602D01*
X159310674Y-93932767D01*
X159312120Y-93923566D01*
X159279835Y-93926844D01*
X159192563Y-93940313D01*
X159057930Y-93962671D01*
X158883565Y-93992619D01*
X158677093Y-94028856D01*
X158446142Y-94070082D01*
X158334684Y-94090200D01*
X158060764Y-94139727D01*
X157777122Y-94190861D01*
X157498094Y-94241027D01*
X157238013Y-94287653D01*
X157011215Y-94328165D01*
X156832034Y-94359989D01*
X156824948Y-94361241D01*
X156643557Y-94393696D01*
X156481365Y-94423478D01*
X156349913Y-94448408D01*
X156260744Y-94466307D01*
X156228143Y-94473931D01*
X156206183Y-94486655D01*
X156190829Y-94515655D01*
X156180930Y-94570778D01*
X156175336Y-94661867D01*
X156172896Y-94798768D01*
X156172442Y-94950401D01*
X156174319Y-95113171D01*
D11*
X125452143Y-80605334D02*
X125499762Y-80557715D01*
X125547381Y-80414858D01*
X125547381Y-80319620D01*
X125499762Y-80176762D01*
X125404524Y-80081524D01*
X125309286Y-80033905D01*
X125118810Y-79986286D01*
X124975952Y-79986286D01*
X124785476Y-80033905D01*
X124690238Y-80081524D01*
X124595000Y-80176762D01*
X124547381Y-80319620D01*
X124547381Y-80414858D01*
X124595000Y-80557715D01*
X124642619Y-80605334D01*
X124642619Y-80986286D02*
X124595000Y-81033905D01*
X124547381Y-81129143D01*
X124547381Y-81367239D01*
X124595000Y-81462477D01*
X124642619Y-81510096D01*
X124737857Y-81557715D01*
X124833095Y-81557715D01*
X124975952Y-81510096D01*
X125547381Y-80938667D01*
X125547381Y-81557715D01*
X122912143Y-68667334D02*
X122959762Y-68619715D01*
X123007381Y-68476858D01*
X123007381Y-68381620D01*
X122959762Y-68238762D01*
X122864524Y-68143524D01*
X122769286Y-68095905D01*
X122578810Y-68048286D01*
X122435952Y-68048286D01*
X122245476Y-68095905D01*
X122150238Y-68143524D01*
X122055000Y-68238762D01*
X122007381Y-68381620D01*
X122007381Y-68476858D01*
X122055000Y-68619715D01*
X122102619Y-68667334D01*
X122007381Y-69000667D02*
X122007381Y-69619715D01*
X122388333Y-69286381D01*
X122388333Y-69429239D01*
X122435952Y-69524477D01*
X122483571Y-69572096D01*
X122578810Y-69619715D01*
X122816905Y-69619715D01*
X122912143Y-69572096D01*
X122959762Y-69524477D01*
X123007381Y-69429239D01*
X123007381Y-69143524D01*
X122959762Y-69048286D01*
X122912143Y-69000667D01*
X122245381Y-89749334D02*
X121769190Y-89416000D01*
X122245381Y-89177905D02*
X121245381Y-89177905D01*
X121245381Y-89558858D01*
X121293000Y-89654096D01*
X121340619Y-89701715D01*
X121435857Y-89749334D01*
X121578714Y-89749334D01*
X121673952Y-89701715D01*
X121721571Y-89654096D01*
X121769190Y-89558858D01*
X121769190Y-89177905D01*
X122245381Y-90701715D02*
X122245381Y-90130286D01*
X122245381Y-90416000D02*
X121245381Y-90416000D01*
X121388238Y-90320762D01*
X121483476Y-90225524D01*
X121531095Y-90130286D01*
X119197381Y-89495334D02*
X118721190Y-89162000D01*
X119197381Y-88923905D02*
X118197381Y-88923905D01*
X118197381Y-89304858D01*
X118245000Y-89400096D01*
X118292619Y-89447715D01*
X118387857Y-89495334D01*
X118530714Y-89495334D01*
X118625952Y-89447715D01*
X118673571Y-89400096D01*
X118721190Y-89304858D01*
X118721190Y-88923905D01*
X118292619Y-89876286D02*
X118245000Y-89923905D01*
X118197381Y-90019143D01*
X118197381Y-90257239D01*
X118245000Y-90352477D01*
X118292619Y-90400096D01*
X118387857Y-90447715D01*
X118483095Y-90447715D01*
X118625952Y-90400096D01*
X119197381Y-89828667D01*
X119197381Y-90447715D01*
X125293381Y-89495334D02*
X124817190Y-89162000D01*
X125293381Y-88923905D02*
X124293381Y-88923905D01*
X124293381Y-89304858D01*
X124341000Y-89400096D01*
X124388619Y-89447715D01*
X124483857Y-89495334D01*
X124626714Y-89495334D01*
X124721952Y-89447715D01*
X124769571Y-89400096D01*
X124817190Y-89304858D01*
X124817190Y-88923905D01*
X124293381Y-89828667D02*
X124293381Y-90447715D01*
X124674333Y-90114381D01*
X124674333Y-90257239D01*
X124721952Y-90352477D01*
X124769571Y-90400096D01*
X124864810Y-90447715D01*
X125102905Y-90447715D01*
X125198143Y-90400096D01*
X125245762Y-90352477D01*
X125293381Y-90257239D01*
X125293381Y-89971524D01*
X125245762Y-89876286D01*
X125198143Y-89828667D01*
X128595381Y-89495334D02*
X128119190Y-89162000D01*
X128595381Y-88923905D02*
X127595381Y-88923905D01*
X127595381Y-89304858D01*
X127643000Y-89400096D01*
X127690619Y-89447715D01*
X127785857Y-89495334D01*
X127928714Y-89495334D01*
X128023952Y-89447715D01*
X128071571Y-89400096D01*
X128119190Y-89304858D01*
X128119190Y-88923905D01*
X127928714Y-90352477D02*
X128595381Y-90352477D01*
X127547762Y-90114381D02*
X128262048Y-89876286D01*
X128262048Y-90495334D01*
X115895381Y-89495334D02*
X115419190Y-89162000D01*
X115895381Y-88923905D02*
X114895381Y-88923905D01*
X114895381Y-89304858D01*
X114943000Y-89400096D01*
X114990619Y-89447715D01*
X115085857Y-89495334D01*
X115228714Y-89495334D01*
X115323952Y-89447715D01*
X115371571Y-89400096D01*
X115419190Y-89304858D01*
X115419190Y-88923905D01*
X114895381Y-90400096D02*
X114895381Y-89923905D01*
X115371571Y-89876286D01*
X115323952Y-89923905D01*
X115276333Y-90019143D01*
X115276333Y-90257239D01*
X115323952Y-90352477D01*
X115371571Y-90400096D01*
X115466810Y-90447715D01*
X115704905Y-90447715D01*
X115800143Y-90400096D01*
X115847762Y-90352477D01*
X115895381Y-90257239D01*
X115895381Y-90019143D01*
X115847762Y-89923905D01*
X115800143Y-89876286D01*
X112847381Y-89495334D02*
X112371190Y-89162000D01*
X112847381Y-88923905D02*
X111847381Y-88923905D01*
X111847381Y-89304858D01*
X111895000Y-89400096D01*
X111942619Y-89447715D01*
X112037857Y-89495334D01*
X112180714Y-89495334D01*
X112275952Y-89447715D01*
X112323571Y-89400096D01*
X112371190Y-89304858D01*
X112371190Y-88923905D01*
X111847381Y-90352477D02*
X111847381Y-90162000D01*
X111895000Y-90066762D01*
X111942619Y-90019143D01*
X112085476Y-89923905D01*
X112275952Y-89876286D01*
X112656905Y-89876286D01*
X112752143Y-89923905D01*
X112799762Y-89971524D01*
X112847381Y-90066762D01*
X112847381Y-90257239D01*
X112799762Y-90352477D01*
X112752143Y-90400096D01*
X112656905Y-90447715D01*
X112418810Y-90447715D01*
X112323571Y-90400096D01*
X112275952Y-90352477D01*
X112228333Y-90257239D01*
X112228333Y-90066762D01*
X112275952Y-89971524D01*
X112323571Y-89923905D01*
X112418810Y-89876286D01*
X135707381Y-89241334D02*
X135231190Y-88908000D01*
X135707381Y-88669905D02*
X134707381Y-88669905D01*
X134707381Y-89050858D01*
X134755000Y-89146096D01*
X134802619Y-89193715D01*
X134897857Y-89241334D01*
X135040714Y-89241334D01*
X135135952Y-89193715D01*
X135183571Y-89146096D01*
X135231190Y-89050858D01*
X135231190Y-88669905D01*
X134707381Y-89574667D02*
X134707381Y-90241334D01*
X135707381Y-89812762D01*
X124547381Y-97282095D02*
X125356905Y-97282095D01*
X125452143Y-97329714D01*
X125499762Y-97377333D01*
X125547381Y-97472571D01*
X125547381Y-97663048D01*
X125499762Y-97758286D01*
X125452143Y-97805905D01*
X125356905Y-97853524D01*
X124547381Y-97853524D01*
X124642619Y-98282095D02*
X124595000Y-98329714D01*
X124547381Y-98424952D01*
X124547381Y-98663048D01*
X124595000Y-98758286D01*
X124642619Y-98805905D01*
X124737857Y-98853524D01*
X124833095Y-98853524D01*
X124975952Y-98805905D01*
X125547381Y-98234476D01*
X125547381Y-98853524D01*
X127595381Y-69342095D02*
X128404905Y-69342095D01*
X128500143Y-69389714D01*
X128547762Y-69437333D01*
X128595381Y-69532571D01*
X128595381Y-69723048D01*
X128547762Y-69818286D01*
X128500143Y-69865905D01*
X128404905Y-69913524D01*
X127595381Y-69913524D01*
X127928714Y-70818286D02*
X128595381Y-70818286D01*
X127547762Y-70580190D02*
X128262048Y-70342095D01*
X128262048Y-70961143D01*
X141962143Y-89241334D02*
X142009762Y-89193715D01*
X142057381Y-89050858D01*
X142057381Y-88955620D01*
X142009762Y-88812762D01*
X141914524Y-88717524D01*
X141819286Y-88669905D01*
X141628810Y-88622286D01*
X141485952Y-88622286D01*
X141295476Y-88669905D01*
X141200238Y-88717524D01*
X141105000Y-88812762D01*
X141057381Y-88955620D01*
X141057381Y-89050858D01*
X141105000Y-89193715D01*
X141152619Y-89241334D01*
X141057381Y-90146096D02*
X141057381Y-89669905D01*
X141533571Y-89622286D01*
X141485952Y-89669905D01*
X141438333Y-89765143D01*
X141438333Y-90003239D01*
X141485952Y-90098477D01*
X141533571Y-90146096D01*
X141628810Y-90193715D01*
X141866905Y-90193715D01*
X141962143Y-90146096D01*
X142009762Y-90098477D01*
X142057381Y-90003239D01*
X142057381Y-89765143D01*
X142009762Y-89669905D01*
X141962143Y-89622286D01*
X118308381Y-105751334D02*
X117832190Y-105418000D01*
X118308381Y-105179905D02*
X117308381Y-105179905D01*
X117308381Y-105560858D01*
X117356000Y-105656096D01*
X117403619Y-105703715D01*
X117498857Y-105751334D01*
X117641714Y-105751334D01*
X117736952Y-105703715D01*
X117784571Y-105656096D01*
X117832190Y-105560858D01*
X117832190Y-105179905D01*
X117736952Y-106322762D02*
X117689333Y-106227524D01*
X117641714Y-106179905D01*
X117546476Y-106132286D01*
X117498857Y-106132286D01*
X117403619Y-106179905D01*
X117356000Y-106227524D01*
X117308381Y-106322762D01*
X117308381Y-106513239D01*
X117356000Y-106608477D01*
X117403619Y-106656096D01*
X117498857Y-106703715D01*
X117546476Y-106703715D01*
X117641714Y-106656096D01*
X117689333Y-106608477D01*
X117736952Y-106513239D01*
X117736952Y-106322762D01*
X117784571Y-106227524D01*
X117832190Y-106179905D01*
X117927429Y-106132286D01*
X118117905Y-106132286D01*
X118213143Y-106179905D01*
X118260762Y-106227524D01*
X118308381Y-106322762D01*
X118308381Y-106513239D01*
X118260762Y-106608477D01*
X118213143Y-106656096D01*
X118117905Y-106703715D01*
X117927429Y-106703715D01*
X117832190Y-106656096D01*
X117784571Y-106608477D01*
X117736952Y-106513239D01*
X121007143Y-105751334D02*
X121054762Y-105703715D01*
X121102381Y-105560858D01*
X121102381Y-105465620D01*
X121054762Y-105322762D01*
X120959524Y-105227524D01*
X120864286Y-105179905D01*
X120673810Y-105132286D01*
X120530952Y-105132286D01*
X120340476Y-105179905D01*
X120245238Y-105227524D01*
X120150000Y-105322762D01*
X120102381Y-105465620D01*
X120102381Y-105560858D01*
X120150000Y-105703715D01*
X120197619Y-105751334D01*
X120102381Y-106608477D02*
X120102381Y-106418000D01*
X120150000Y-106322762D01*
X120197619Y-106275143D01*
X120340476Y-106179905D01*
X120530952Y-106132286D01*
X120911905Y-106132286D01*
X121007143Y-106179905D01*
X121054762Y-106227524D01*
X121102381Y-106322762D01*
X121102381Y-106513239D01*
X121054762Y-106608477D01*
X121007143Y-106656096D01*
X120911905Y-106703715D01*
X120673810Y-106703715D01*
X120578571Y-106656096D01*
X120530952Y-106608477D01*
X120483333Y-106513239D01*
X120483333Y-106322762D01*
X120530952Y-106227524D01*
X120578571Y-106179905D01*
X120673810Y-106132286D01*
X139041143Y-105751334D02*
X139088762Y-105703715D01*
X139136381Y-105560858D01*
X139136381Y-105465620D01*
X139088762Y-105322762D01*
X138993524Y-105227524D01*
X138898286Y-105179905D01*
X138707810Y-105132286D01*
X138564952Y-105132286D01*
X138374476Y-105179905D01*
X138279238Y-105227524D01*
X138184000Y-105322762D01*
X138136381Y-105465620D01*
X138136381Y-105560858D01*
X138184000Y-105703715D01*
X138231619Y-105751334D01*
X138136381Y-106084667D02*
X138136381Y-106751334D01*
X139136381Y-106322762D01*
D13*
M02*
