G04 #@! TF.FileFunction,Legend,Top*
%FSLAX46Y46*%
G04 Gerber Fmt 4.6, Leading zero omitted, Abs format (unit mm)*
G04 Created by KiCad (PCBNEW 4.0.2+e4-6225~38~ubuntu14.04.1-stable) date Sun 31 Jul 2016 09:36:03 AM CEST*
%MOMM*%
G01*
G04 APERTURE LIST*
%ADD10C,0.100000*%
%ADD11C,0.200000*%
%ADD12C,0.150000*%
%ADD13C,0.010000*%
%ADD14C,0.300000*%
G04 APERTURE END LIST*
D10*
D11*
X149697715Y-131742571D02*
X149697715Y-130742571D01*
X149697715Y-131028286D02*
X149769143Y-130885429D01*
X149840572Y-130814000D01*
X149983429Y-130742571D01*
X150126286Y-130742571D01*
X151197714Y-131671143D02*
X151054857Y-131742571D01*
X150769143Y-131742571D01*
X150626286Y-131671143D01*
X150554857Y-131528286D01*
X150554857Y-130956857D01*
X150626286Y-130814000D01*
X150769143Y-130742571D01*
X151054857Y-130742571D01*
X151197714Y-130814000D01*
X151269143Y-130956857D01*
X151269143Y-131099714D01*
X150554857Y-131242571D01*
X151769143Y-130742571D02*
X152126286Y-131742571D01*
X152483428Y-130742571D01*
X153054857Y-131599714D02*
X153126285Y-131671143D01*
X153054857Y-131742571D01*
X152983428Y-131671143D01*
X153054857Y-131599714D01*
X153054857Y-131742571D01*
X154554857Y-131742571D02*
X153697714Y-131742571D01*
X154126286Y-131742571D02*
X154126286Y-130242571D01*
X153983429Y-130456857D01*
X153840571Y-130599714D01*
X153697714Y-130671143D01*
X155197714Y-131599714D02*
X155269142Y-131671143D01*
X155197714Y-131742571D01*
X155126285Y-131671143D01*
X155197714Y-131599714D01*
X155197714Y-131742571D01*
X156197714Y-130242571D02*
X156340571Y-130242571D01*
X156483428Y-130314000D01*
X156554857Y-130385429D01*
X156626286Y-130528286D01*
X156697714Y-130814000D01*
X156697714Y-131171143D01*
X156626286Y-131456857D01*
X156554857Y-131599714D01*
X156483428Y-131671143D01*
X156340571Y-131742571D01*
X156197714Y-131742571D01*
X156054857Y-131671143D01*
X155983428Y-131599714D01*
X155912000Y-131456857D01*
X155840571Y-131171143D01*
X155840571Y-130814000D01*
X155912000Y-130528286D01*
X155983428Y-130385429D01*
X156054857Y-130314000D01*
X156197714Y-130242571D01*
X170688000Y-85598000D02*
X165608000Y-85598000D01*
X170688000Y-107188000D02*
X165608000Y-107188000D01*
D12*
X170378381Y-68024286D02*
X169378381Y-68024286D01*
X169378381Y-67643333D01*
X169426000Y-67548095D01*
X169473619Y-67500476D01*
X169568857Y-67452857D01*
X169711714Y-67452857D01*
X169806952Y-67500476D01*
X169854571Y-67548095D01*
X169902190Y-67643333D01*
X169902190Y-68024286D01*
X169854571Y-67024286D02*
X169854571Y-66690952D01*
X170378381Y-66548095D02*
X170378381Y-67024286D01*
X169378381Y-67024286D01*
X169378381Y-66548095D01*
X170378381Y-72675714D02*
X169378381Y-72675714D01*
X170378381Y-72104285D01*
X169378381Y-72104285D01*
X170378381Y-77636666D02*
X170378381Y-78112857D01*
X169378381Y-78112857D01*
X169473619Y-77350952D02*
X169426000Y-77303333D01*
X169378381Y-77208095D01*
X169378381Y-76969999D01*
X169426000Y-76874761D01*
X169473619Y-76827142D01*
X169568857Y-76779523D01*
X169664095Y-76779523D01*
X169806952Y-76827142D01*
X170378381Y-77398571D01*
X170378381Y-76779523D01*
X170378381Y-82462666D02*
X170378381Y-82938857D01*
X169378381Y-82938857D01*
X170378381Y-81605523D02*
X170378381Y-82176952D01*
X170378381Y-81891238D02*
X169378381Y-81891238D01*
X169521238Y-81986476D01*
X169616476Y-82081714D01*
X169664095Y-82176952D01*
X170378381Y-89614286D02*
X169378381Y-89614286D01*
X169378381Y-89233333D01*
X169426000Y-89138095D01*
X169473619Y-89090476D01*
X169568857Y-89042857D01*
X169711714Y-89042857D01*
X169806952Y-89090476D01*
X169854571Y-89138095D01*
X169902190Y-89233333D01*
X169902190Y-89614286D01*
X169854571Y-88614286D02*
X169854571Y-88280952D01*
X170378381Y-88138095D02*
X170378381Y-88614286D01*
X169378381Y-88614286D01*
X169378381Y-88138095D01*
X170378381Y-94265714D02*
X169378381Y-94265714D01*
X170378381Y-93694285D01*
X169378381Y-93694285D01*
X170378381Y-98972666D02*
X170378381Y-99448857D01*
X169378381Y-99448857D01*
X169473619Y-98686952D02*
X169426000Y-98639333D01*
X169378381Y-98544095D01*
X169378381Y-98305999D01*
X169426000Y-98210761D01*
X169473619Y-98163142D01*
X169568857Y-98115523D01*
X169664095Y-98115523D01*
X169806952Y-98163142D01*
X170378381Y-98734571D01*
X170378381Y-98115523D01*
X170378381Y-104052666D02*
X170378381Y-104528857D01*
X169378381Y-104528857D01*
X170378381Y-103195523D02*
X170378381Y-103766952D01*
X170378381Y-103481238D02*
X169378381Y-103481238D01*
X169521238Y-103576476D01*
X169616476Y-103671714D01*
X169664095Y-103766952D01*
X170378381Y-111204286D02*
X169378381Y-111204286D01*
X169378381Y-110823333D01*
X169426000Y-110728095D01*
X169473619Y-110680476D01*
X169568857Y-110632857D01*
X169711714Y-110632857D01*
X169806952Y-110680476D01*
X169854571Y-110728095D01*
X169902190Y-110823333D01*
X169902190Y-111204286D01*
X169854571Y-110204286D02*
X169854571Y-109870952D01*
X170378381Y-109728095D02*
X170378381Y-110204286D01*
X169378381Y-110204286D01*
X169378381Y-109728095D01*
X170378381Y-115855714D02*
X169378381Y-115855714D01*
X170378381Y-115284285D01*
X169378381Y-115284285D01*
X170378381Y-120086476D02*
X170378381Y-120562667D01*
X169378381Y-120562667D01*
X170378381Y-125166476D02*
X170378381Y-125642667D01*
X169378381Y-125642667D01*
D11*
X167420857Y-119748000D02*
X166220857Y-119748000D01*
X167078000Y-119348000D01*
X166220857Y-118948000D01*
X167420857Y-118948000D01*
X167078000Y-118433714D02*
X167078000Y-117862285D01*
X167420857Y-118547999D02*
X166220857Y-118147999D01*
X167420857Y-117747999D01*
X167420857Y-117348000D02*
X166220857Y-117348000D01*
X167420857Y-116776571D02*
X166220857Y-116776571D01*
X167420857Y-116090856D01*
X166220857Y-116090856D01*
X167363714Y-115576571D02*
X167420857Y-115405142D01*
X167420857Y-115119428D01*
X167363714Y-115005142D01*
X167306571Y-114947999D01*
X167192286Y-114890856D01*
X167078000Y-114890856D01*
X166963714Y-114947999D01*
X166906571Y-115005142D01*
X166849429Y-115119428D01*
X166792286Y-115347999D01*
X166735143Y-115462285D01*
X166678000Y-115519428D01*
X166563714Y-115576571D01*
X166449429Y-115576571D01*
X166335143Y-115519428D01*
X166278000Y-115462285D01*
X166220857Y-115347999D01*
X166220857Y-115062285D01*
X166278000Y-114890856D01*
X167363714Y-79653714D02*
X167420857Y-79482285D01*
X167420857Y-79196571D01*
X167363714Y-79082285D01*
X167306571Y-79025142D01*
X167192286Y-78967999D01*
X167078000Y-78967999D01*
X166963714Y-79025142D01*
X166906571Y-79082285D01*
X166849429Y-79196571D01*
X166792286Y-79425142D01*
X166735143Y-79539428D01*
X166678000Y-79596571D01*
X166563714Y-79653714D01*
X166449429Y-79653714D01*
X166335143Y-79596571D01*
X166278000Y-79539428D01*
X166220857Y-79425142D01*
X166220857Y-79139428D01*
X166278000Y-78967999D01*
X166220857Y-78453714D02*
X167192286Y-78453714D01*
X167306571Y-78396571D01*
X167363714Y-78339428D01*
X167420857Y-78225142D01*
X167420857Y-77996571D01*
X167363714Y-77882285D01*
X167306571Y-77825142D01*
X167192286Y-77767999D01*
X166220857Y-77767999D01*
X167420857Y-77196571D02*
X166220857Y-77196571D01*
X167420857Y-76510856D01*
X166220857Y-76510856D01*
X167363714Y-75996571D02*
X167420857Y-75825142D01*
X167420857Y-75539428D01*
X167363714Y-75425142D01*
X167306571Y-75367999D01*
X167192286Y-75310856D01*
X167078000Y-75310856D01*
X166963714Y-75367999D01*
X166906571Y-75425142D01*
X166849429Y-75539428D01*
X166792286Y-75767999D01*
X166735143Y-75882285D01*
X166678000Y-75939428D01*
X166563714Y-75996571D01*
X166449429Y-75996571D01*
X166335143Y-75939428D01*
X166278000Y-75882285D01*
X166220857Y-75767999D01*
X166220857Y-75482285D01*
X166278000Y-75310856D01*
X167420857Y-74796571D02*
X166220857Y-74796571D01*
X166792286Y-74796571D02*
X166792286Y-74110856D01*
X167420857Y-74110856D02*
X166220857Y-74110856D01*
X167078000Y-73596571D02*
X167078000Y-73025142D01*
X167420857Y-73710856D02*
X166220857Y-73310856D01*
X167420857Y-72910856D01*
X167420857Y-72510857D02*
X166220857Y-72510857D01*
X166220857Y-72225142D01*
X166278000Y-72053714D01*
X166392286Y-71939428D01*
X166506571Y-71882285D01*
X166735143Y-71825142D01*
X166906571Y-71825142D01*
X167135143Y-71882285D01*
X167249429Y-71939428D01*
X167363714Y-72053714D01*
X167420857Y-72225142D01*
X167420857Y-72510857D01*
X166792286Y-71310857D02*
X166792286Y-70910857D01*
X167420857Y-70739428D02*
X167420857Y-71310857D01*
X166220857Y-71310857D01*
X166220857Y-70739428D01*
X167535143Y-70510857D02*
X167535143Y-69596571D01*
X166335143Y-69368000D02*
X166278000Y-69310857D01*
X166220857Y-69196571D01*
X166220857Y-68910857D01*
X166278000Y-68796571D01*
X166335143Y-68739428D01*
X166449429Y-68682285D01*
X166563714Y-68682285D01*
X166735143Y-68739428D01*
X167420857Y-69425142D01*
X167420857Y-68682285D01*
X167363714Y-100989714D02*
X167420857Y-100818285D01*
X167420857Y-100532571D01*
X167363714Y-100418285D01*
X167306571Y-100361142D01*
X167192286Y-100303999D01*
X167078000Y-100303999D01*
X166963714Y-100361142D01*
X166906571Y-100418285D01*
X166849429Y-100532571D01*
X166792286Y-100761142D01*
X166735143Y-100875428D01*
X166678000Y-100932571D01*
X166563714Y-100989714D01*
X166449429Y-100989714D01*
X166335143Y-100932571D01*
X166278000Y-100875428D01*
X166220857Y-100761142D01*
X166220857Y-100475428D01*
X166278000Y-100303999D01*
X166220857Y-99789714D02*
X167192286Y-99789714D01*
X167306571Y-99732571D01*
X167363714Y-99675428D01*
X167420857Y-99561142D01*
X167420857Y-99332571D01*
X167363714Y-99218285D01*
X167306571Y-99161142D01*
X167192286Y-99103999D01*
X166220857Y-99103999D01*
X167420857Y-98532571D02*
X166220857Y-98532571D01*
X167420857Y-97846856D01*
X166220857Y-97846856D01*
X167363714Y-97332571D02*
X167420857Y-97161142D01*
X167420857Y-96875428D01*
X167363714Y-96761142D01*
X167306571Y-96703999D01*
X167192286Y-96646856D01*
X167078000Y-96646856D01*
X166963714Y-96703999D01*
X166906571Y-96761142D01*
X166849429Y-96875428D01*
X166792286Y-97103999D01*
X166735143Y-97218285D01*
X166678000Y-97275428D01*
X166563714Y-97332571D01*
X166449429Y-97332571D01*
X166335143Y-97275428D01*
X166278000Y-97218285D01*
X166220857Y-97103999D01*
X166220857Y-96818285D01*
X166278000Y-96646856D01*
X167420857Y-96132571D02*
X166220857Y-96132571D01*
X166792286Y-96132571D02*
X166792286Y-95446856D01*
X167420857Y-95446856D02*
X166220857Y-95446856D01*
X167078000Y-94932571D02*
X167078000Y-94361142D01*
X167420857Y-95046856D02*
X166220857Y-94646856D01*
X167420857Y-94246856D01*
X167420857Y-93846857D02*
X166220857Y-93846857D01*
X166220857Y-93561142D01*
X166278000Y-93389714D01*
X166392286Y-93275428D01*
X166506571Y-93218285D01*
X166735143Y-93161142D01*
X166906571Y-93161142D01*
X167135143Y-93218285D01*
X167249429Y-93275428D01*
X167363714Y-93389714D01*
X167420857Y-93561142D01*
X167420857Y-93846857D01*
X166792286Y-92646857D02*
X166792286Y-92246857D01*
X167420857Y-92075428D02*
X167420857Y-92646857D01*
X166220857Y-92646857D01*
X166220857Y-92075428D01*
X167535143Y-91846857D02*
X167535143Y-90932571D01*
X167420857Y-90018285D02*
X167420857Y-90704000D01*
X167420857Y-90361142D02*
X166220857Y-90361142D01*
X166392286Y-90475428D01*
X166506571Y-90589714D01*
X166563714Y-90704000D01*
D13*
G36*
X122258667Y-130259667D02*
X121158000Y-130259667D01*
X121158000Y-131487333D01*
X122258667Y-131487333D01*
X122258667Y-131741333D01*
X120904000Y-131741333D01*
X120904000Y-130005667D01*
X122258667Y-130005667D01*
X122258667Y-130259667D01*
X122258667Y-130259667D01*
G37*
X122258667Y-130259667D02*
X121158000Y-130259667D01*
X121158000Y-131487333D01*
X122258667Y-131487333D01*
X122258667Y-131741333D01*
X120904000Y-131741333D01*
X120904000Y-130005667D01*
X122258667Y-130005667D01*
X122258667Y-130259667D01*
G36*
X122851334Y-131487333D02*
X123952000Y-131487333D01*
X123952000Y-131741333D01*
X122597334Y-131741333D01*
X122597334Y-130005667D01*
X122851334Y-130005667D01*
X122851334Y-131487333D01*
X122851334Y-131487333D01*
G37*
X122851334Y-131487333D02*
X123952000Y-131487333D01*
X123952000Y-131741333D01*
X122597334Y-131741333D01*
X122597334Y-130005667D01*
X122851334Y-130005667D01*
X122851334Y-131487333D01*
G36*
X125645334Y-130259667D02*
X124544667Y-130259667D01*
X124544667Y-131487333D01*
X125645334Y-131487333D01*
X125645334Y-131741333D01*
X124290667Y-131741333D01*
X124290667Y-130005667D01*
X125645334Y-130005667D01*
X125645334Y-130259667D01*
X125645334Y-130259667D01*
G37*
X125645334Y-130259667D02*
X124544667Y-130259667D01*
X124544667Y-131487333D01*
X125645334Y-131487333D01*
X125645334Y-131741333D01*
X124290667Y-131741333D01*
X124290667Y-130005667D01*
X125645334Y-130005667D01*
X125645334Y-130259667D01*
G36*
X126898459Y-130013598D02*
X127154061Y-130060730D01*
X127365434Y-130172249D01*
X127549306Y-130357455D01*
X127572834Y-130388474D01*
X127676733Y-130529301D01*
X127563018Y-130603897D01*
X127484158Y-130650015D01*
X127436642Y-130643410D01*
X127386427Y-130575018D01*
X127373206Y-130553359D01*
X127232337Y-130395942D01*
X127049045Y-130297186D01*
X126844911Y-130262540D01*
X126641519Y-130297455D01*
X126544530Y-130344104D01*
X126377254Y-130489720D01*
X126276315Y-130670535D01*
X126241713Y-130869138D01*
X126273446Y-131068118D01*
X126371517Y-131250063D01*
X126535923Y-131397561D01*
X126544530Y-131402895D01*
X126734883Y-131472625D01*
X126941274Y-131472063D01*
X127140463Y-131405919D01*
X127309207Y-131278905D01*
X127341447Y-131241351D01*
X127426590Y-131133108D01*
X127610174Y-131316692D01*
X127523999Y-131432115D01*
X127362412Y-131582575D01*
X127150742Y-131685340D01*
X126912290Y-131734951D01*
X126670352Y-131725946D01*
X126492302Y-131673897D01*
X126271645Y-131537654D01*
X126111192Y-131355797D01*
X126011224Y-131142525D01*
X125972023Y-130912037D01*
X125993869Y-130678532D01*
X126077043Y-130456210D01*
X126221827Y-130259269D01*
X126428500Y-130101908D01*
X126460856Y-130084625D01*
X126592633Y-130031280D01*
X126733169Y-130010207D01*
X126898459Y-130013598D01*
X126898459Y-130013598D01*
G37*
X126898459Y-130013598D02*
X127154061Y-130060730D01*
X127365434Y-130172249D01*
X127549306Y-130357455D01*
X127572834Y-130388474D01*
X127676733Y-130529301D01*
X127563018Y-130603897D01*
X127484158Y-130650015D01*
X127436642Y-130643410D01*
X127386427Y-130575018D01*
X127373206Y-130553359D01*
X127232337Y-130395942D01*
X127049045Y-130297186D01*
X126844911Y-130262540D01*
X126641519Y-130297455D01*
X126544530Y-130344104D01*
X126377254Y-130489720D01*
X126276315Y-130670535D01*
X126241713Y-130869138D01*
X126273446Y-131068118D01*
X126371517Y-131250063D01*
X126535923Y-131397561D01*
X126544530Y-131402895D01*
X126734883Y-131472625D01*
X126941274Y-131472063D01*
X127140463Y-131405919D01*
X127309207Y-131278905D01*
X127341447Y-131241351D01*
X127426590Y-131133108D01*
X127610174Y-131316692D01*
X127523999Y-131432115D01*
X127362412Y-131582575D01*
X127150742Y-131685340D01*
X126912290Y-131734951D01*
X126670352Y-131725946D01*
X126492302Y-131673897D01*
X126271645Y-131537654D01*
X126111192Y-131355797D01*
X126011224Y-131142525D01*
X125972023Y-130912037D01*
X125993869Y-130678532D01*
X126077043Y-130456210D01*
X126221827Y-130259269D01*
X126428500Y-130101908D01*
X126460856Y-130084625D01*
X126592633Y-130031280D01*
X126733169Y-130010207D01*
X126898459Y-130013598D01*
G36*
X129370667Y-130259667D02*
X128778000Y-130259667D01*
X128778000Y-131741333D01*
X128524000Y-131741333D01*
X128524000Y-130259667D01*
X127889000Y-130259667D01*
X127889000Y-130005667D01*
X129370667Y-130005667D01*
X129370667Y-130259667D01*
X129370667Y-130259667D01*
G37*
X129370667Y-130259667D02*
X128778000Y-130259667D01*
X128778000Y-131741333D01*
X128524000Y-131741333D01*
X128524000Y-130259667D01*
X127889000Y-130259667D01*
X127889000Y-130005667D01*
X129370667Y-130005667D01*
X129370667Y-130259667D01*
G36*
X130559656Y-130006274D02*
X130730444Y-130009634D01*
X130848001Y-130018054D01*
X130928044Y-130033840D01*
X130986288Y-130059300D01*
X131038453Y-130096740D01*
X131059514Y-130114221D01*
X131182157Y-130268066D01*
X131247965Y-130459622D01*
X131246859Y-130647122D01*
X131198713Y-130762978D01*
X131111714Y-130886708D01*
X131011193Y-130986689D01*
X130942621Y-131026918D01*
X130923846Y-131056553D01*
X130939357Y-131129448D01*
X130992545Y-131256246D01*
X131059511Y-131393737D01*
X131234278Y-131741333D01*
X131085993Y-131741333D01*
X131022818Y-131738745D01*
X130973039Y-131722656D01*
X130926417Y-131680583D01*
X130872717Y-131600040D01*
X130801702Y-131468544D01*
X130704167Y-131275667D01*
X130470626Y-130810000D01*
X130640313Y-130810000D01*
X130808225Y-130778577D01*
X130924385Y-130690850D01*
X130977312Y-130556632D01*
X130979334Y-130520228D01*
X130964924Y-130412293D01*
X130913882Y-130337681D01*
X130814489Y-130290982D01*
X130655026Y-130266783D01*
X130423774Y-130259672D01*
X130415083Y-130259667D01*
X130005667Y-130259667D01*
X130005667Y-131741333D01*
X129709334Y-131741333D01*
X129709334Y-130005667D01*
X130319919Y-130005667D01*
X130559656Y-130006274D01*
X130559656Y-130006274D01*
G37*
X130559656Y-130006274D02*
X130730444Y-130009634D01*
X130848001Y-130018054D01*
X130928044Y-130033840D01*
X130986288Y-130059300D01*
X131038453Y-130096740D01*
X131059514Y-130114221D01*
X131182157Y-130268066D01*
X131247965Y-130459622D01*
X131246859Y-130647122D01*
X131198713Y-130762978D01*
X131111714Y-130886708D01*
X131011193Y-130986689D01*
X130942621Y-131026918D01*
X130923846Y-131056553D01*
X130939357Y-131129448D01*
X130992545Y-131256246D01*
X131059511Y-131393737D01*
X131234278Y-131741333D01*
X131085993Y-131741333D01*
X131022818Y-131738745D01*
X130973039Y-131722656D01*
X130926417Y-131680583D01*
X130872717Y-131600040D01*
X130801702Y-131468544D01*
X130704167Y-131275667D01*
X130470626Y-130810000D01*
X130640313Y-130810000D01*
X130808225Y-130778577D01*
X130924385Y-130690850D01*
X130977312Y-130556632D01*
X130979334Y-130520228D01*
X130964924Y-130412293D01*
X130913882Y-130337681D01*
X130814489Y-130290982D01*
X130655026Y-130266783D01*
X130423774Y-130259672D01*
X130415083Y-130259667D01*
X130005667Y-130259667D01*
X130005667Y-131741333D01*
X129709334Y-131741333D01*
X129709334Y-130005667D01*
X130319919Y-130005667D01*
X130559656Y-130006274D01*
G36*
X135297334Y-131741333D02*
X134931142Y-131741333D01*
X133963834Y-130373723D01*
X133940570Y-131741333D01*
X133646334Y-131741333D01*
X133646334Y-130005667D01*
X133847417Y-130007118D01*
X134048500Y-130008570D01*
X134514167Y-130686307D01*
X134979834Y-131364045D01*
X134991465Y-130684856D01*
X135003097Y-130005667D01*
X135297334Y-130005667D01*
X135297334Y-131741333D01*
X135297334Y-131741333D01*
G37*
X135297334Y-131741333D02*
X134931142Y-131741333D01*
X133963834Y-130373723D01*
X133940570Y-131741333D01*
X133646334Y-131741333D01*
X133646334Y-130005667D01*
X133847417Y-130007118D01*
X134048500Y-130008570D01*
X134514167Y-130686307D01*
X134979834Y-131364045D01*
X134991465Y-130684856D01*
X135003097Y-130005667D01*
X135297334Y-130005667D01*
X135297334Y-131741333D01*
G36*
X135932334Y-131741333D02*
X135636000Y-131741333D01*
X135636000Y-130005667D01*
X135932334Y-130005667D01*
X135932334Y-131741333D01*
X135932334Y-131741333D01*
G37*
X135932334Y-131741333D02*
X135636000Y-131741333D01*
X135636000Y-130005667D01*
X135932334Y-130005667D01*
X135932334Y-131741333D01*
G36*
X137185459Y-130013598D02*
X137441061Y-130060730D01*
X137652434Y-130172249D01*
X137836306Y-130357455D01*
X137859834Y-130388474D01*
X137963733Y-130529301D01*
X137850018Y-130603897D01*
X137771158Y-130650015D01*
X137723642Y-130643410D01*
X137673427Y-130575018D01*
X137660206Y-130553359D01*
X137519337Y-130395942D01*
X137336045Y-130297186D01*
X137131911Y-130262540D01*
X136928519Y-130297455D01*
X136831530Y-130344104D01*
X136664254Y-130489720D01*
X136563315Y-130670535D01*
X136528713Y-130869138D01*
X136560446Y-131068118D01*
X136658517Y-131250063D01*
X136822923Y-131397561D01*
X136831530Y-131402895D01*
X137021883Y-131472625D01*
X137228274Y-131472063D01*
X137427463Y-131405919D01*
X137596207Y-131278905D01*
X137628447Y-131241351D01*
X137713590Y-131133108D01*
X137897174Y-131316692D01*
X137810999Y-131432115D01*
X137649412Y-131582575D01*
X137437742Y-131685340D01*
X137199290Y-131734951D01*
X136957352Y-131725946D01*
X136779302Y-131673897D01*
X136558645Y-131537654D01*
X136398192Y-131355797D01*
X136298224Y-131142525D01*
X136259023Y-130912037D01*
X136280869Y-130678532D01*
X136364043Y-130456210D01*
X136508827Y-130259269D01*
X136715500Y-130101908D01*
X136747856Y-130084625D01*
X136879633Y-130031280D01*
X137020169Y-130010207D01*
X137185459Y-130013598D01*
X137185459Y-130013598D01*
G37*
X137185459Y-130013598D02*
X137441061Y-130060730D01*
X137652434Y-130172249D01*
X137836306Y-130357455D01*
X137859834Y-130388474D01*
X137963733Y-130529301D01*
X137850018Y-130603897D01*
X137771158Y-130650015D01*
X137723642Y-130643410D01*
X137673427Y-130575018D01*
X137660206Y-130553359D01*
X137519337Y-130395942D01*
X137336045Y-130297186D01*
X137131911Y-130262540D01*
X136928519Y-130297455D01*
X136831530Y-130344104D01*
X136664254Y-130489720D01*
X136563315Y-130670535D01*
X136528713Y-130869138D01*
X136560446Y-131068118D01*
X136658517Y-131250063D01*
X136822923Y-131397561D01*
X136831530Y-131402895D01*
X137021883Y-131472625D01*
X137228274Y-131472063D01*
X137427463Y-131405919D01*
X137596207Y-131278905D01*
X137628447Y-131241351D01*
X137713590Y-131133108D01*
X137897174Y-131316692D01*
X137810999Y-131432115D01*
X137649412Y-131582575D01*
X137437742Y-131685340D01*
X137199290Y-131734951D01*
X136957352Y-131725946D01*
X136779302Y-131673897D01*
X136558645Y-131537654D01*
X136398192Y-131355797D01*
X136298224Y-131142525D01*
X136259023Y-130912037D01*
X136280869Y-130678532D01*
X136364043Y-130456210D01*
X136508827Y-130259269D01*
X136715500Y-130101908D01*
X136747856Y-130084625D01*
X136879633Y-130031280D01*
X137020169Y-130010207D01*
X137185459Y-130013598D01*
G36*
X139516293Y-130808146D02*
X139625249Y-130891194D01*
X139705651Y-130971877D01*
X139746977Y-131050009D01*
X139761919Y-131158945D01*
X139763500Y-131254500D01*
X139758401Y-131398503D01*
X139734642Y-131491406D01*
X139679529Y-131566564D01*
X139625249Y-131617806D01*
X139486998Y-131741333D01*
X138260667Y-131741333D01*
X138260667Y-131487333D01*
X138831191Y-131487333D01*
X139061073Y-131486722D01*
X139221211Y-131483306D01*
X139326527Y-131474710D01*
X139391942Y-131458560D01*
X139432377Y-131432482D01*
X139462754Y-131394101D01*
X139468123Y-131385982D01*
X139510296Y-131267353D01*
X139498545Y-131149145D01*
X139438979Y-131062011D01*
X139399458Y-131041497D01*
X139334251Y-130982917D01*
X139319000Y-130891814D01*
X139343013Y-130795668D01*
X139410869Y-130767774D01*
X139516293Y-130808146D01*
X139516293Y-130808146D01*
G37*
X139516293Y-130808146D02*
X139625249Y-130891194D01*
X139705651Y-130971877D01*
X139746977Y-131050009D01*
X139761919Y-131158945D01*
X139763500Y-131254500D01*
X139758401Y-131398503D01*
X139734642Y-131491406D01*
X139679529Y-131566564D01*
X139625249Y-131617806D01*
X139486998Y-131741333D01*
X138260667Y-131741333D01*
X138260667Y-131487333D01*
X138831191Y-131487333D01*
X139061073Y-131486722D01*
X139221211Y-131483306D01*
X139326527Y-131474710D01*
X139391942Y-131458560D01*
X139432377Y-131432482D01*
X139462754Y-131394101D01*
X139468123Y-131385982D01*
X139510296Y-131267353D01*
X139498545Y-131149145D01*
X139438979Y-131062011D01*
X139399458Y-131041497D01*
X139334251Y-130982917D01*
X139319000Y-130891814D01*
X139343013Y-130795668D01*
X139410869Y-130767774D01*
X139516293Y-130808146D01*
G36*
X132775315Y-130066986D02*
X132993358Y-130184299D01*
X133048090Y-130229937D01*
X133194171Y-130417890D01*
X133278531Y-130642995D01*
X133302012Y-130885889D01*
X133265456Y-131127205D01*
X133169703Y-131347580D01*
X133015594Y-131527647D01*
X132990861Y-131547434D01*
X132877136Y-131626878D01*
X132805953Y-131649539D01*
X132757503Y-131615913D01*
X132724203Y-131554125D01*
X132700794Y-131473890D01*
X132734549Y-131417493D01*
X132782928Y-131382491D01*
X132936024Y-131239059D01*
X133022688Y-131065380D01*
X133047680Y-130877031D01*
X133015763Y-130689592D01*
X132931697Y-130518639D01*
X132800245Y-130379750D01*
X132626166Y-130288503D01*
X132439834Y-130259983D01*
X132226924Y-130295801D01*
X132054828Y-130393151D01*
X131928477Y-130536877D01*
X131852801Y-130711826D01*
X131832733Y-130902842D01*
X131873203Y-131094769D01*
X131979143Y-131272453D01*
X132079202Y-131368298D01*
X132159703Y-131437350D01*
X132180818Y-131486910D01*
X132152035Y-131546730D01*
X132141140Y-131562522D01*
X132081271Y-131633320D01*
X132023682Y-131648273D01*
X131944991Y-131605917D01*
X131869725Y-131545508D01*
X131706450Y-131356572D01*
X131606417Y-131129819D01*
X131570142Y-130883790D01*
X131598143Y-130637023D01*
X131690937Y-130408057D01*
X131833041Y-130229937D01*
X132036907Y-130094369D01*
X132275980Y-130022021D01*
X132529153Y-130012893D01*
X132775315Y-130066986D01*
X132775315Y-130066986D01*
G37*
X132775315Y-130066986D02*
X132993358Y-130184299D01*
X133048090Y-130229937D01*
X133194171Y-130417890D01*
X133278531Y-130642995D01*
X133302012Y-130885889D01*
X133265456Y-131127205D01*
X133169703Y-131347580D01*
X133015594Y-131527647D01*
X132990861Y-131547434D01*
X132877136Y-131626878D01*
X132805953Y-131649539D01*
X132757503Y-131615913D01*
X132724203Y-131554125D01*
X132700794Y-131473890D01*
X132734549Y-131417493D01*
X132782928Y-131382491D01*
X132936024Y-131239059D01*
X133022688Y-131065380D01*
X133047680Y-130877031D01*
X133015763Y-130689592D01*
X132931697Y-130518639D01*
X132800245Y-130379750D01*
X132626166Y-130288503D01*
X132439834Y-130259983D01*
X132226924Y-130295801D01*
X132054828Y-130393151D01*
X131928477Y-130536877D01*
X131852801Y-130711826D01*
X131832733Y-130902842D01*
X131873203Y-131094769D01*
X131979143Y-131272453D01*
X132079202Y-131368298D01*
X132159703Y-131437350D01*
X132180818Y-131486910D01*
X132152035Y-131546730D01*
X132141140Y-131562522D01*
X132081271Y-131633320D01*
X132023682Y-131648273D01*
X131944991Y-131605917D01*
X131869725Y-131545508D01*
X131706450Y-131356572D01*
X131606417Y-131129819D01*
X131570142Y-130883790D01*
X131598143Y-130637023D01*
X131690937Y-130408057D01*
X131833041Y-130229937D01*
X132036907Y-130094369D01*
X132275980Y-130022021D01*
X132529153Y-130012893D01*
X132775315Y-130066986D01*
G36*
X121985112Y-130810644D02*
X122108016Y-130815152D01*
X122177169Y-130827390D01*
X122208028Y-130851221D01*
X122216053Y-130890510D01*
X122216334Y-130915833D01*
X122213757Y-130963861D01*
X122195723Y-130994587D01*
X122146773Y-131011875D01*
X122051449Y-131019590D01*
X121894293Y-131021596D01*
X121793000Y-131021667D01*
X121600888Y-131021022D01*
X121477984Y-131016514D01*
X121408832Y-131004276D01*
X121377972Y-130980445D01*
X121369947Y-130941156D01*
X121369667Y-130915833D01*
X121372243Y-130867805D01*
X121390277Y-130837079D01*
X121439228Y-130819791D01*
X121534552Y-130812076D01*
X121691707Y-130810070D01*
X121793000Y-130810000D01*
X121985112Y-130810644D01*
X121985112Y-130810644D01*
G37*
X121985112Y-130810644D02*
X122108016Y-130815152D01*
X122177169Y-130827390D01*
X122208028Y-130851221D01*
X122216053Y-130890510D01*
X122216334Y-130915833D01*
X122213757Y-130963861D01*
X122195723Y-130994587D01*
X122146773Y-131011875D01*
X122051449Y-131019590D01*
X121894293Y-131021596D01*
X121793000Y-131021667D01*
X121600888Y-131021022D01*
X121477984Y-131016514D01*
X121408832Y-131004276D01*
X121377972Y-130980445D01*
X121369947Y-130941156D01*
X121369667Y-130915833D01*
X121372243Y-130867805D01*
X121390277Y-130837079D01*
X121439228Y-130819791D01*
X121534552Y-130812076D01*
X121691707Y-130810070D01*
X121793000Y-130810000D01*
X121985112Y-130810644D01*
G36*
X125371779Y-130810644D02*
X125494683Y-130815152D01*
X125563835Y-130827390D01*
X125594695Y-130851221D01*
X125602720Y-130890510D01*
X125603000Y-130915833D01*
X125600424Y-130963861D01*
X125582390Y-130994587D01*
X125533439Y-131011875D01*
X125438115Y-131019590D01*
X125280960Y-131021596D01*
X125179667Y-131021667D01*
X124987555Y-131021022D01*
X124864651Y-131016514D01*
X124795498Y-131004276D01*
X124764639Y-130980445D01*
X124756614Y-130941156D01*
X124756334Y-130915833D01*
X124758910Y-130867805D01*
X124776944Y-130837079D01*
X124825894Y-130819791D01*
X124921218Y-130812076D01*
X125078374Y-130810070D01*
X125179667Y-130810000D01*
X125371779Y-130810644D01*
X125371779Y-130810644D01*
G37*
X125371779Y-130810644D02*
X125494683Y-130815152D01*
X125563835Y-130827390D01*
X125594695Y-130851221D01*
X125602720Y-130890510D01*
X125603000Y-130915833D01*
X125600424Y-130963861D01*
X125582390Y-130994587D01*
X125533439Y-131011875D01*
X125438115Y-131019590D01*
X125280960Y-131021596D01*
X125179667Y-131021667D01*
X124987555Y-131021022D01*
X124864651Y-131016514D01*
X124795498Y-131004276D01*
X124764639Y-130980445D01*
X124756614Y-130941156D01*
X124756334Y-130915833D01*
X124758910Y-130867805D01*
X124776944Y-130837079D01*
X124825894Y-130819791D01*
X124921218Y-130812076D01*
X125078374Y-130810070D01*
X125179667Y-130810000D01*
X125371779Y-130810644D01*
G36*
X139742334Y-130259667D02*
X139198561Y-130259667D01*
X138969539Y-130261071D01*
X138809895Y-130266569D01*
X138704368Y-130278083D01*
X138637696Y-130297540D01*
X138594620Y-130326864D01*
X138584728Y-130337083D01*
X138529478Y-130426582D01*
X138514667Y-130488033D01*
X138537961Y-130598906D01*
X138594545Y-130688548D01*
X138664323Y-130725333D01*
X138713183Y-130763388D01*
X138726334Y-130852333D01*
X138702501Y-130949993D01*
X138636214Y-130979935D01*
X138535283Y-130942571D01*
X138407523Y-130838312D01*
X138404600Y-130835400D01*
X138310152Y-130724829D01*
X138268397Y-130619693D01*
X138260667Y-130513848D01*
X138290530Y-130319734D01*
X138372310Y-130159487D01*
X138494292Y-130055502D01*
X138502489Y-130051607D01*
X138583030Y-130033994D01*
X138729758Y-130019630D01*
X138924211Y-130009779D01*
X139147934Y-130005707D01*
X139172825Y-130005667D01*
X139742334Y-130005667D01*
X139742334Y-130259667D01*
X139742334Y-130259667D01*
G37*
X139742334Y-130259667D02*
X139198561Y-130259667D01*
X138969539Y-130261071D01*
X138809895Y-130266569D01*
X138704368Y-130278083D01*
X138637696Y-130297540D01*
X138594620Y-130326864D01*
X138584728Y-130337083D01*
X138529478Y-130426582D01*
X138514667Y-130488033D01*
X138537961Y-130598906D01*
X138594545Y-130688548D01*
X138664323Y-130725333D01*
X138713183Y-130763388D01*
X138726334Y-130852333D01*
X138702501Y-130949993D01*
X138636214Y-130979935D01*
X138535283Y-130942571D01*
X138407523Y-130838312D01*
X138404600Y-130835400D01*
X138310152Y-130724829D01*
X138268397Y-130619693D01*
X138260667Y-130513848D01*
X138290530Y-130319734D01*
X138372310Y-130159487D01*
X138494292Y-130055502D01*
X138502489Y-130051607D01*
X138583030Y-130033994D01*
X138729758Y-130019630D01*
X138924211Y-130009779D01*
X139147934Y-130005707D01*
X139172825Y-130005667D01*
X139742334Y-130005667D01*
X139742334Y-130259667D01*
G36*
X122836018Y-127994686D02*
X122960105Y-128247436D01*
X123070578Y-128474961D01*
X123162203Y-128666276D01*
X123229748Y-128810395D01*
X123267977Y-128896332D01*
X123274667Y-128915436D01*
X123237573Y-128937009D01*
X123147032Y-128947210D01*
X123134713Y-128947333D01*
X123081692Y-128945156D01*
X123037958Y-128931299D01*
X122995853Y-128894769D01*
X122947719Y-128824578D01*
X122885896Y-128709735D01*
X122802726Y-128539249D01*
X122701962Y-128326336D01*
X122409164Y-127705339D01*
X122232275Y-128082920D01*
X122055386Y-128460500D01*
X121895841Y-128111250D01*
X121822887Y-127957537D01*
X121761101Y-127838326D01*
X121719696Y-127770900D01*
X121709662Y-127762000D01*
X121683376Y-127798233D01*
X121628300Y-127898204D01*
X121551215Y-128048818D01*
X121458904Y-128236981D01*
X121402711Y-128354667D01*
X121122395Y-128947333D01*
X120823729Y-128947333D01*
X121122339Y-128322917D01*
X121236268Y-128084041D01*
X121349428Y-127845648D01*
X121451405Y-127629752D01*
X121531786Y-127458367D01*
X121557890Y-127402167D01*
X121694830Y-127105833D01*
X121877863Y-127465667D01*
X122060897Y-127825500D01*
X122229134Y-127465667D01*
X122397370Y-127105833D01*
X122836018Y-127994686D01*
X122836018Y-127994686D01*
G37*
X122836018Y-127994686D02*
X122960105Y-128247436D01*
X123070578Y-128474961D01*
X123162203Y-128666276D01*
X123229748Y-128810395D01*
X123267977Y-128896332D01*
X123274667Y-128915436D01*
X123237573Y-128937009D01*
X123147032Y-128947210D01*
X123134713Y-128947333D01*
X123081692Y-128945156D01*
X123037958Y-128931299D01*
X122995853Y-128894769D01*
X122947719Y-128824578D01*
X122885896Y-128709735D01*
X122802726Y-128539249D01*
X122701962Y-128326336D01*
X122409164Y-127705339D01*
X122232275Y-128082920D01*
X122055386Y-128460500D01*
X121895841Y-128111250D01*
X121822887Y-127957537D01*
X121761101Y-127838326D01*
X121719696Y-127770900D01*
X121709662Y-127762000D01*
X121683376Y-127798233D01*
X121628300Y-127898204D01*
X121551215Y-128048818D01*
X121458904Y-128236981D01*
X121402711Y-128354667D01*
X121122395Y-128947333D01*
X120823729Y-128947333D01*
X121122339Y-128322917D01*
X121236268Y-128084041D01*
X121349428Y-127845648D01*
X121451405Y-127629752D01*
X121531786Y-127458367D01*
X121557890Y-127402167D01*
X121694830Y-127105833D01*
X121877863Y-127465667D01*
X122060897Y-127825500D01*
X122229134Y-127465667D01*
X122397370Y-127105833D01*
X122836018Y-127994686D01*
G36*
X126001704Y-127218797D02*
X126222843Y-127225645D01*
X126378365Y-127234845D01*
X126487308Y-127250233D01*
X126568707Y-127275646D01*
X126641601Y-127314918D01*
X126710428Y-127361594D01*
X126905012Y-127532217D01*
X127023252Y-127723920D01*
X127073362Y-127953486D01*
X127074678Y-128105842D01*
X127031508Y-128372493D01*
X126926256Y-128585088D01*
X126752960Y-128752963D01*
X126605902Y-128840098D01*
X126497957Y-128889153D01*
X126395560Y-128920631D01*
X126275082Y-128938300D01*
X126112894Y-128945928D01*
X125933355Y-128947333D01*
X125476000Y-128947333D01*
X125476000Y-128693333D01*
X125772334Y-128693333D01*
X126058084Y-128693267D01*
X126307522Y-128674625D01*
X126489602Y-128619961D01*
X126491156Y-128619184D01*
X126665557Y-128490111D01*
X126776996Y-128321078D01*
X126824942Y-128129317D01*
X126808863Y-127932061D01*
X126728228Y-127746543D01*
X126582506Y-127589994D01*
X126524137Y-127550104D01*
X126412537Y-127499627D01*
X126270428Y-127473239D01*
X126079250Y-127465825D01*
X125772334Y-127465667D01*
X125772334Y-128693333D01*
X125476000Y-128693333D01*
X125476000Y-127204761D01*
X126001704Y-127218797D01*
X126001704Y-127218797D01*
G37*
X126001704Y-127218797D02*
X126222843Y-127225645D01*
X126378365Y-127234845D01*
X126487308Y-127250233D01*
X126568707Y-127275646D01*
X126641601Y-127314918D01*
X126710428Y-127361594D01*
X126905012Y-127532217D01*
X127023252Y-127723920D01*
X127073362Y-127953486D01*
X127074678Y-128105842D01*
X127031508Y-128372493D01*
X126926256Y-128585088D01*
X126752960Y-128752963D01*
X126605902Y-128840098D01*
X126497957Y-128889153D01*
X126395560Y-128920631D01*
X126275082Y-128938300D01*
X126112894Y-128945928D01*
X125933355Y-128947333D01*
X125476000Y-128947333D01*
X125476000Y-128693333D01*
X125772334Y-128693333D01*
X126058084Y-128693267D01*
X126307522Y-128674625D01*
X126489602Y-128619961D01*
X126491156Y-128619184D01*
X126665557Y-128490111D01*
X126776996Y-128321078D01*
X126824942Y-128129317D01*
X126808863Y-127932061D01*
X126728228Y-127746543D01*
X126582506Y-127589994D01*
X126524137Y-127550104D01*
X126412537Y-127499627D01*
X126270428Y-127473239D01*
X126079250Y-127465825D01*
X125772334Y-127465667D01*
X125772334Y-128693333D01*
X125476000Y-128693333D01*
X125476000Y-127204761D01*
X126001704Y-127218797D01*
G36*
X128778000Y-127465667D02*
X127677334Y-127465667D01*
X127677334Y-128693333D01*
X128778000Y-128693333D01*
X128778000Y-128947333D01*
X127423334Y-128947333D01*
X127423334Y-127211667D01*
X128778000Y-127211667D01*
X128778000Y-127465667D01*
X128778000Y-127465667D01*
G37*
X128778000Y-127465667D02*
X127677334Y-127465667D01*
X127677334Y-128693333D01*
X128778000Y-128693333D01*
X128778000Y-128947333D01*
X127423334Y-128947333D01*
X127423334Y-127211667D01*
X128778000Y-127211667D01*
X128778000Y-127465667D01*
G36*
X129279325Y-127214786D02*
X129328332Y-127232974D01*
X129373916Y-127279475D01*
X129426566Y-127367532D01*
X129496769Y-127510389D01*
X129559679Y-127645148D01*
X129760875Y-128078630D01*
X129544857Y-128512982D01*
X129450253Y-128700436D01*
X129381820Y-128824511D01*
X129329200Y-128898204D01*
X129282034Y-128934517D01*
X129229961Y-128946448D01*
X129198734Y-128947333D01*
X129110385Y-128939880D01*
X129086492Y-128905032D01*
X129098222Y-128852083D01*
X129130308Y-128771487D01*
X129190060Y-128639582D01*
X129266471Y-128480376D01*
X129294969Y-128422938D01*
X129462122Y-128089043D01*
X129268228Y-127671292D01*
X129189583Y-127500039D01*
X129126266Y-127358719D01*
X129085613Y-127263927D01*
X129074334Y-127232604D01*
X129111492Y-127218523D01*
X129202359Y-127211769D01*
X129216408Y-127211667D01*
X129279325Y-127214786D01*
X129279325Y-127214786D01*
G37*
X129279325Y-127214786D02*
X129328332Y-127232974D01*
X129373916Y-127279475D01*
X129426566Y-127367532D01*
X129496769Y-127510389D01*
X129559679Y-127645148D01*
X129760875Y-128078630D01*
X129544857Y-128512982D01*
X129450253Y-128700436D01*
X129381820Y-128824511D01*
X129329200Y-128898204D01*
X129282034Y-128934517D01*
X129229961Y-128946448D01*
X129198734Y-128947333D01*
X129110385Y-128939880D01*
X129086492Y-128905032D01*
X129098222Y-128852083D01*
X129130308Y-128771487D01*
X129190060Y-128639582D01*
X129266471Y-128480376D01*
X129294969Y-128422938D01*
X129462122Y-128089043D01*
X129268228Y-127671292D01*
X129189583Y-127500039D01*
X129126266Y-127358719D01*
X129085613Y-127263927D01*
X129074334Y-127232604D01*
X129111492Y-127218523D01*
X129202359Y-127211769D01*
X129216408Y-127211667D01*
X129279325Y-127214786D01*
G36*
X130722497Y-127222749D02*
X130767136Y-127249796D01*
X130767667Y-127253440D01*
X130749813Y-127306771D01*
X130701621Y-127417633D01*
X130631144Y-127568092D01*
X130572174Y-127688759D01*
X130376680Y-128082304D01*
X130593726Y-128514819D01*
X130810772Y-128947333D01*
X130662605Y-128947333D01*
X130597151Y-128944431D01*
X130546150Y-128927040D01*
X130498565Y-128882136D01*
X130443357Y-128796693D01*
X130369488Y-128657687D01*
X130299335Y-128518689D01*
X130084231Y-128090044D01*
X130286268Y-127650855D01*
X130374324Y-127461687D01*
X130437815Y-127336499D01*
X130487004Y-127262098D01*
X130532156Y-127225292D01*
X130583535Y-127212891D01*
X130627985Y-127211667D01*
X130722497Y-127222749D01*
X130722497Y-127222749D01*
G37*
X130722497Y-127222749D02*
X130767136Y-127249796D01*
X130767667Y-127253440D01*
X130749813Y-127306771D01*
X130701621Y-127417633D01*
X130631144Y-127568092D01*
X130572174Y-127688759D01*
X130376680Y-128082304D01*
X130593726Y-128514819D01*
X130810772Y-128947333D01*
X130662605Y-128947333D01*
X130597151Y-128944431D01*
X130546150Y-128927040D01*
X130498565Y-128882136D01*
X130443357Y-128796693D01*
X130369488Y-128657687D01*
X130299335Y-128518689D01*
X130084231Y-128090044D01*
X130286268Y-127650855D01*
X130374324Y-127461687D01*
X130437815Y-127336499D01*
X130487004Y-127262098D01*
X130532156Y-127225292D01*
X130583535Y-127212891D01*
X130627985Y-127211667D01*
X130722497Y-127222749D01*
G36*
X124604982Y-127272986D02*
X124823024Y-127390299D01*
X124877757Y-127435937D01*
X125023837Y-127623890D01*
X125108198Y-127848995D01*
X125131679Y-128091889D01*
X125095123Y-128333205D01*
X124999369Y-128553580D01*
X124845261Y-128733647D01*
X124820527Y-128753434D01*
X124706803Y-128832878D01*
X124635619Y-128855539D01*
X124587170Y-128821913D01*
X124553869Y-128760125D01*
X124530460Y-128679890D01*
X124564216Y-128623493D01*
X124612595Y-128588491D01*
X124765691Y-128445059D01*
X124852355Y-128271380D01*
X124877347Y-128083031D01*
X124845430Y-127895592D01*
X124761364Y-127724639D01*
X124629911Y-127585750D01*
X124455833Y-127494503D01*
X124269500Y-127465983D01*
X124056591Y-127501801D01*
X123884495Y-127599151D01*
X123758143Y-127742877D01*
X123682468Y-127917826D01*
X123662399Y-128108842D01*
X123702869Y-128300769D01*
X123808809Y-128478453D01*
X123908868Y-128574298D01*
X123989370Y-128643350D01*
X124010485Y-128692910D01*
X123981702Y-128752730D01*
X123970807Y-128768522D01*
X123910938Y-128839320D01*
X123853348Y-128854273D01*
X123774657Y-128811917D01*
X123699392Y-128751508D01*
X123536117Y-128562572D01*
X123436084Y-128335819D01*
X123399809Y-128089790D01*
X123427810Y-127843023D01*
X123520604Y-127614057D01*
X123662708Y-127435937D01*
X123866573Y-127300369D01*
X124105647Y-127228021D01*
X124358819Y-127218893D01*
X124604982Y-127272986D01*
X124604982Y-127272986D01*
G37*
X124604982Y-127272986D02*
X124823024Y-127390299D01*
X124877757Y-127435937D01*
X125023837Y-127623890D01*
X125108198Y-127848995D01*
X125131679Y-128091889D01*
X125095123Y-128333205D01*
X124999369Y-128553580D01*
X124845261Y-128733647D01*
X124820527Y-128753434D01*
X124706803Y-128832878D01*
X124635619Y-128855539D01*
X124587170Y-128821913D01*
X124553869Y-128760125D01*
X124530460Y-128679890D01*
X124564216Y-128623493D01*
X124612595Y-128588491D01*
X124765691Y-128445059D01*
X124852355Y-128271380D01*
X124877347Y-128083031D01*
X124845430Y-127895592D01*
X124761364Y-127724639D01*
X124629911Y-127585750D01*
X124455833Y-127494503D01*
X124269500Y-127465983D01*
X124056591Y-127501801D01*
X123884495Y-127599151D01*
X123758143Y-127742877D01*
X123682468Y-127917826D01*
X123662399Y-128108842D01*
X123702869Y-128300769D01*
X123808809Y-128478453D01*
X123908868Y-128574298D01*
X123989370Y-128643350D01*
X124010485Y-128692910D01*
X123981702Y-128752730D01*
X123970807Y-128768522D01*
X123910938Y-128839320D01*
X123853348Y-128854273D01*
X123774657Y-128811917D01*
X123699392Y-128751508D01*
X123536117Y-128562572D01*
X123436084Y-128335819D01*
X123399809Y-128089790D01*
X123427810Y-127843023D01*
X123520604Y-127614057D01*
X123662708Y-127435937D01*
X123866573Y-127300369D01*
X124105647Y-127228021D01*
X124358819Y-127218893D01*
X124604982Y-127272986D01*
G36*
X128504446Y-128016644D02*
X128627349Y-128021152D01*
X128696502Y-128033390D01*
X128727362Y-128057221D01*
X128735387Y-128096510D01*
X128735667Y-128121833D01*
X128733091Y-128169861D01*
X128715056Y-128200587D01*
X128666106Y-128217875D01*
X128570782Y-128225590D01*
X128413626Y-128227596D01*
X128312334Y-128227667D01*
X128120221Y-128227022D01*
X127997318Y-128222514D01*
X127928165Y-128210276D01*
X127897305Y-128186445D01*
X127889280Y-128147156D01*
X127889000Y-128121833D01*
X127891576Y-128073805D01*
X127909611Y-128043079D01*
X127958561Y-128025791D01*
X128053885Y-128018076D01*
X128211041Y-128016070D01*
X128312334Y-128016000D01*
X128504446Y-128016644D01*
X128504446Y-128016644D01*
G37*
X128504446Y-128016644D02*
X128627349Y-128021152D01*
X128696502Y-128033390D01*
X128727362Y-128057221D01*
X128735387Y-128096510D01*
X128735667Y-128121833D01*
X128733091Y-128169861D01*
X128715056Y-128200587D01*
X128666106Y-128217875D01*
X128570782Y-128225590D01*
X128413626Y-128227596D01*
X128312334Y-128227667D01*
X128120221Y-128227022D01*
X127997318Y-128222514D01*
X127928165Y-128210276D01*
X127897305Y-128186445D01*
X127889280Y-128147156D01*
X127889000Y-128121833D01*
X127891576Y-128073805D01*
X127909611Y-128043079D01*
X127958561Y-128025791D01*
X128053885Y-128018076D01*
X128211041Y-128016070D01*
X128312334Y-128016000D01*
X128504446Y-128016644D01*
D12*
X146781520Y-120309640D02*
X146781520Y-117807740D01*
X146781520Y-127810260D02*
X146781520Y-125308360D01*
X158780480Y-127810260D02*
X158780480Y-125308360D01*
X158780480Y-117807740D02*
X158780480Y-120309640D01*
X148280120Y-122809000D02*
X157281880Y-122809000D01*
X148280120Y-120309640D02*
X148280120Y-125308360D01*
X157281880Y-120309640D02*
X157281880Y-125308360D01*
X162780980Y-120909080D02*
X162780980Y-120309640D01*
X142781020Y-124708920D02*
X142781020Y-125308360D01*
X142781020Y-125308360D02*
X162780980Y-125308360D01*
X162780980Y-125308360D02*
X162780980Y-124708920D01*
X162780980Y-120309640D02*
X142781020Y-120309640D01*
X142781020Y-120309640D02*
X142781020Y-120909080D01*
X164779960Y-120909080D02*
X164779960Y-117807740D01*
X140782040Y-124708920D02*
X140782040Y-127810260D01*
X140782040Y-127810260D02*
X164779960Y-127810260D01*
X164779960Y-127810260D02*
X164779960Y-124708920D01*
X164779960Y-117807740D02*
X140782040Y-117807740D01*
X140782040Y-117807740D02*
X140782040Y-120909080D01*
X113538000Y-74041000D02*
X113538000Y-86741000D01*
X113538000Y-86741000D02*
X110998000Y-86741000D01*
X110998000Y-86741000D02*
X110998000Y-74041000D01*
X113818000Y-71221000D02*
X113818000Y-72771000D01*
X113538000Y-74041000D02*
X110998000Y-74041000D01*
X110718000Y-72771000D02*
X110718000Y-71221000D01*
X110718000Y-71221000D02*
X113818000Y-71221000D01*
X171230000Y-107376000D02*
X183230000Y-107376000D01*
X183230000Y-107376000D02*
X183230000Y-128576000D01*
X183230000Y-128576000D02*
X171230000Y-128576000D01*
X171230000Y-128576000D02*
X171230000Y-107376000D01*
X171230000Y-85786000D02*
X183230000Y-85786000D01*
X183230000Y-85786000D02*
X183230000Y-106986000D01*
X183230000Y-106986000D02*
X171230000Y-106986000D01*
X171230000Y-106986000D02*
X171230000Y-85786000D01*
X171230000Y-64196000D02*
X183230000Y-64196000D01*
X183230000Y-64196000D02*
X183230000Y-85396000D01*
X183230000Y-85396000D02*
X171230000Y-85396000D01*
X171230000Y-85396000D02*
X171230000Y-64196000D01*
X119063000Y-91461000D02*
X119063000Y-116861000D01*
X164763000Y-91461000D02*
X119063000Y-91461000D01*
X164763000Y-116861000D02*
X164763000Y-91461000D01*
X164763000Y-116861000D02*
X119063000Y-116861000D01*
X138320780Y-89291160D02*
X137673080Y-89291160D01*
X137673080Y-89291160D02*
X137673080Y-88341200D01*
X141472920Y-88341200D02*
X141472920Y-89291160D01*
X141472920Y-89291160D02*
X140571220Y-89291160D01*
X140571220Y-89291160D02*
X140571220Y-89941400D01*
X140571220Y-89941400D02*
X138346180Y-89941400D01*
X138346180Y-89941400D02*
X138346180Y-88414860D01*
X138346180Y-88414860D02*
X140571220Y-88414860D01*
X140571220Y-88414860D02*
X140571220Y-89341960D01*
X158668000Y-89341000D02*
X162868000Y-89341000D01*
X162868000Y-89341000D02*
X162868000Y-88541000D01*
X156321760Y-89364820D02*
X152788000Y-89364820D01*
X152788000Y-89341000D02*
X152788000Y-88541000D01*
X157828000Y-88441000D02*
X157828000Y-89041000D01*
X157828000Y-89041000D02*
X156668000Y-89741000D01*
X136621520Y-85541000D02*
X136672320Y-85541000D01*
X163822380Y-85541000D02*
X164622480Y-85541000D01*
X158871920Y-85541000D02*
X161472880Y-85541000D01*
X153771600Y-85541000D02*
X156471620Y-85541000D01*
X150622000Y-85541000D02*
X151422100Y-85541000D01*
X142521940Y-85541000D02*
X150622000Y-85541000D01*
X138772900Y-85541000D02*
X140223240Y-85541000D01*
X164622480Y-85541000D02*
X164622480Y-90541000D01*
X164622480Y-90541000D02*
X136621520Y-90541000D01*
X136621520Y-90541000D02*
X136621520Y-88041480D01*
X138320780Y-82306160D02*
X137673080Y-82306160D01*
X137673080Y-82306160D02*
X137673080Y-81356200D01*
X141472920Y-81356200D02*
X141472920Y-82306160D01*
X141472920Y-82306160D02*
X140571220Y-82306160D01*
X140571220Y-82306160D02*
X140571220Y-82956400D01*
X140571220Y-82956400D02*
X138346180Y-82956400D01*
X138346180Y-82956400D02*
X138346180Y-81429860D01*
X138346180Y-81429860D02*
X140571220Y-81429860D01*
X140571220Y-81429860D02*
X140571220Y-82356960D01*
X158668000Y-82356000D02*
X162868000Y-82356000D01*
X162868000Y-82356000D02*
X162868000Y-81556000D01*
X156321760Y-82379820D02*
X152788000Y-82379820D01*
X152788000Y-82356000D02*
X152788000Y-81556000D01*
X157828000Y-81456000D02*
X157828000Y-82056000D01*
X157828000Y-82056000D02*
X156668000Y-82756000D01*
X136621520Y-78556000D02*
X136672320Y-78556000D01*
X163822380Y-78556000D02*
X164622480Y-78556000D01*
X158871920Y-78556000D02*
X161472880Y-78556000D01*
X153771600Y-78556000D02*
X156471620Y-78556000D01*
X150622000Y-78556000D02*
X151422100Y-78556000D01*
X142521940Y-78556000D02*
X150622000Y-78556000D01*
X138772900Y-78556000D02*
X140223240Y-78556000D01*
X164622480Y-78556000D02*
X164622480Y-83556000D01*
X164622480Y-83556000D02*
X136621520Y-83556000D01*
X136621520Y-83556000D02*
X136621520Y-81056480D01*
X138320780Y-75321160D02*
X137673080Y-75321160D01*
X137673080Y-75321160D02*
X137673080Y-74371200D01*
X141472920Y-74371200D02*
X141472920Y-75321160D01*
X141472920Y-75321160D02*
X140571220Y-75321160D01*
X140571220Y-75321160D02*
X140571220Y-75971400D01*
X140571220Y-75971400D02*
X138346180Y-75971400D01*
X138346180Y-75971400D02*
X138346180Y-74444860D01*
X138346180Y-74444860D02*
X140571220Y-74444860D01*
X140571220Y-74444860D02*
X140571220Y-75371960D01*
X158668000Y-75371000D02*
X162868000Y-75371000D01*
X162868000Y-75371000D02*
X162868000Y-74571000D01*
X156321760Y-75394820D02*
X152788000Y-75394820D01*
X152788000Y-75371000D02*
X152788000Y-74571000D01*
X157828000Y-74471000D02*
X157828000Y-75071000D01*
X157828000Y-75071000D02*
X156668000Y-75771000D01*
X136621520Y-71571000D02*
X136672320Y-71571000D01*
X163822380Y-71571000D02*
X164622480Y-71571000D01*
X158871920Y-71571000D02*
X161472880Y-71571000D01*
X153771600Y-71571000D02*
X156471620Y-71571000D01*
X150622000Y-71571000D02*
X151422100Y-71571000D01*
X142521940Y-71571000D02*
X150622000Y-71571000D01*
X138772900Y-71571000D02*
X140223240Y-71571000D01*
X164622480Y-71571000D02*
X164622480Y-76571000D01*
X164622480Y-76571000D02*
X136621520Y-76571000D01*
X136621520Y-76571000D02*
X136621520Y-74071480D01*
X138320780Y-68336160D02*
X137673080Y-68336160D01*
X137673080Y-68336160D02*
X137673080Y-67386200D01*
X141472920Y-67386200D02*
X141472920Y-68336160D01*
X141472920Y-68336160D02*
X140571220Y-68336160D01*
X140571220Y-68336160D02*
X140571220Y-68986400D01*
X140571220Y-68986400D02*
X138346180Y-68986400D01*
X138346180Y-68986400D02*
X138346180Y-67459860D01*
X138346180Y-67459860D02*
X140571220Y-67459860D01*
X140571220Y-67459860D02*
X140571220Y-68386960D01*
X158668000Y-68386000D02*
X162868000Y-68386000D01*
X162868000Y-68386000D02*
X162868000Y-67586000D01*
X156321760Y-68409820D02*
X152788000Y-68409820D01*
X152788000Y-68386000D02*
X152788000Y-67586000D01*
X157828000Y-67486000D02*
X157828000Y-68086000D01*
X157828000Y-68086000D02*
X156668000Y-68786000D01*
X136621520Y-64586000D02*
X136672320Y-64586000D01*
X163822380Y-64586000D02*
X164622480Y-64586000D01*
X158871920Y-64586000D02*
X161472880Y-64586000D01*
X153771600Y-64586000D02*
X156471620Y-64586000D01*
X150622000Y-64586000D02*
X151422100Y-64586000D01*
X142521940Y-64586000D02*
X150622000Y-64586000D01*
X138772900Y-64586000D02*
X140223240Y-64586000D01*
X164622480Y-64586000D02*
X164622480Y-69586000D01*
X164622480Y-69586000D02*
X136621520Y-69586000D01*
X136621520Y-69586000D02*
X136621520Y-67086480D01*
X111633000Y-120650000D02*
X111633000Y-122682000D01*
X111760000Y-123063000D02*
X111760000Y-120269000D01*
X111887000Y-120015000D02*
X111887000Y-123317000D01*
X112014000Y-123571000D02*
X112014000Y-119761000D01*
X112141000Y-123698000D02*
X112141000Y-119634000D01*
X112268000Y-119380000D02*
X112268000Y-123952000D01*
X111252000Y-117475000D02*
X111252000Y-125857000D01*
X111252000Y-125857000D02*
X118872000Y-125857000D01*
X118872000Y-125857000D02*
X119634000Y-125095000D01*
X119634000Y-125095000D02*
X119634000Y-118237000D01*
X119634000Y-118237000D02*
X118872000Y-117475000D01*
X118872000Y-117475000D02*
X111252000Y-117475000D01*
X119126000Y-121666000D02*
X118364000Y-121666000D01*
X118745000Y-121285000D02*
X118745000Y-122047000D01*
X119380000Y-121666000D02*
G75*
G03X119380000Y-121666000I-3937000J0D01*
G01*
X131318000Y-119253000D02*
X131318000Y-120015000D01*
X130937000Y-119634000D02*
X131699000Y-119634000D01*
X133604000Y-119380000D02*
X133604000Y-123190000D01*
X129794000Y-118618000D02*
X132842000Y-118618000D01*
X133604000Y-119380000D02*
X132842000Y-118618000D01*
X129032000Y-119380000D02*
X129032000Y-123190000D01*
X129032000Y-119380000D02*
X129794000Y-118618000D01*
X131445000Y-122936000D02*
X131191000Y-122936000D01*
X130683000Y-122809000D02*
X131953000Y-122809000D01*
X132207000Y-122682000D02*
X130429000Y-122682000D01*
X132461000Y-122555000D02*
X130175000Y-122555000D01*
X130048000Y-122428000D02*
X132588000Y-122428000D01*
X132715000Y-122301000D02*
X129921000Y-122301000D01*
X129794000Y-122174000D02*
X132842000Y-122174000D01*
X129667000Y-122047000D02*
X132969000Y-122047000D01*
X129032000Y-123190000D02*
X133604000Y-123190000D01*
X133350000Y-120904000D02*
G75*
G03X133350000Y-120904000I-2032000J0D01*
G01*
X171000000Y-62928000D02*
G75*
G03X171000000Y-62928000I-3000000J0D01*
G01*
X171000000Y-129928000D02*
G75*
G03X171000000Y-129928000I-3000000J0D01*
G01*
X115500000Y-129928000D02*
G75*
G03X115500000Y-129928000I-3000000J0D01*
G01*
X115500000Y-62928000D02*
G75*
G03X115500000Y-62928000I-3000000J0D01*
G01*
X115951000Y-99060000D02*
X115951000Y-111760000D01*
X115951000Y-111760000D02*
X110871000Y-111760000D01*
X110871000Y-111760000D02*
X110871000Y-101600000D01*
X115951000Y-99060000D02*
X113411000Y-99060000D01*
X112141000Y-98780000D02*
X110591000Y-98780000D01*
X113411000Y-99060000D02*
X113411000Y-101600000D01*
X113411000Y-101600000D02*
X110871000Y-101600000D01*
X110591000Y-98780000D02*
X110591000Y-100330000D01*
D13*
G36*
X122593052Y-121042333D02*
X122646911Y-121069692D01*
X122718662Y-121109826D01*
X122795875Y-121155402D01*
X122866120Y-121199087D01*
X122916967Y-121233549D01*
X122936000Y-121251280D01*
X122923244Y-121277284D01*
X122888459Y-121337375D01*
X122836866Y-121422767D01*
X122773688Y-121524676D01*
X122769727Y-121530990D01*
X122702933Y-121639389D01*
X122644667Y-121737638D01*
X122601275Y-121814794D01*
X122579304Y-121859380D01*
X122576127Y-121907535D01*
X122584467Y-121994252D01*
X122602136Y-122109172D01*
X122626944Y-122241942D01*
X122656704Y-122382205D01*
X122689227Y-122519606D01*
X122722322Y-122643789D01*
X122753803Y-122744398D01*
X122779786Y-122807877D01*
X122819744Y-122869396D01*
X122868728Y-122897566D01*
X122925291Y-122906142D01*
X122996502Y-122917184D01*
X123046739Y-122933999D01*
X123052551Y-122937868D01*
X123072931Y-122972955D01*
X123099306Y-123042520D01*
X123126010Y-123131596D01*
X123126337Y-123132825D01*
X123162978Y-123262171D01*
X123193772Y-123345028D01*
X123222376Y-123384813D01*
X123252448Y-123384941D01*
X123287642Y-123348827D01*
X123314407Y-123308494D01*
X123342651Y-123246097D01*
X123709247Y-123246097D01*
X123721461Y-123297241D01*
X123733571Y-123327565D01*
X123777721Y-123396419D01*
X123835711Y-123418313D01*
X123912012Y-123394257D01*
X123943918Y-123375138D01*
X123999861Y-123327387D01*
X124061732Y-123258966D01*
X124082724Y-123231627D01*
X124141309Y-123123535D01*
X124154253Y-123026777D01*
X124121481Y-122945595D01*
X124088274Y-122912443D01*
X124036700Y-122876401D01*
X124001747Y-122859907D01*
X124000258Y-122859800D01*
X123958380Y-122879071D01*
X123900261Y-122928798D01*
X123837357Y-122996854D01*
X123781126Y-123071110D01*
X123749292Y-123125481D01*
X123717927Y-123196524D01*
X123709247Y-123246097D01*
X123342651Y-123246097D01*
X123381561Y-123160138D01*
X123407081Y-123006877D01*
X123391160Y-122859086D01*
X123333993Y-122727136D01*
X123302716Y-122684749D01*
X123277136Y-122651635D01*
X123259287Y-122617039D01*
X123247574Y-122571217D01*
X123240406Y-122504419D01*
X123236188Y-122406899D01*
X123233329Y-122268910D01*
X123233167Y-122259176D01*
X123227365Y-121909362D01*
X123318600Y-121768631D01*
X123386780Y-121668248D01*
X123438196Y-121606949D01*
X123480090Y-121579050D01*
X123519705Y-121578864D01*
X123546073Y-121590053D01*
X123582264Y-121615777D01*
X123575277Y-121639359D01*
X123564589Y-121648966D01*
X123529803Y-121684278D01*
X123476995Y-121744927D01*
X123432093Y-121799763D01*
X123335603Y-121920826D01*
X123330572Y-122231563D01*
X123332376Y-122410760D01*
X123343846Y-122550471D01*
X123364456Y-122647693D01*
X123393680Y-122699421D01*
X123413878Y-122707400D01*
X123465340Y-122686478D01*
X123523019Y-122633584D01*
X123573327Y-122563530D01*
X123598955Y-122505687D01*
X123612911Y-122445606D01*
X123610887Y-122392611D01*
X123589940Y-122327637D01*
X123561466Y-122262680D01*
X123514206Y-122141463D01*
X123499208Y-122041425D01*
X123517112Y-121943985D01*
X123568556Y-121830564D01*
X123576862Y-121815272D01*
X123623164Y-121732638D01*
X123653750Y-121687177D01*
X123677176Y-121671433D01*
X123701999Y-121677955D01*
X123721220Y-121689515D01*
X123738620Y-121711328D01*
X123725957Y-121745515D01*
X123690138Y-121791881D01*
X123614036Y-121919494D01*
X123584058Y-122061620D01*
X123601053Y-122209731D01*
X123638779Y-122307350D01*
X123677336Y-122363988D01*
X123712560Y-122370314D01*
X123747237Y-122326442D01*
X123754113Y-122312182D01*
X123769313Y-122257674D01*
X123767856Y-122186350D01*
X123751954Y-122093287D01*
X123735676Y-122006837D01*
X123732713Y-121953720D01*
X123744647Y-121917843D01*
X123772585Y-121883618D01*
X123810271Y-121834266D01*
X123825000Y-121797712D01*
X123841580Y-121769595D01*
X123876465Y-121777547D01*
X123883057Y-121783323D01*
X123880622Y-121811094D01*
X123861890Y-121835938D01*
X123832031Y-121894896D01*
X123819659Y-121980438D01*
X123824650Y-122071499D01*
X123846877Y-122147014D01*
X123863887Y-122171818D01*
X123899840Y-122194531D01*
X123938025Y-122175057D01*
X123973493Y-122118403D01*
X123967373Y-122055288D01*
X123948333Y-122028093D01*
X123932552Y-121991874D01*
X123946566Y-121933458D01*
X123951053Y-121922284D01*
X123982840Y-121845543D01*
X124079997Y-121895108D01*
X124143743Y-121931340D01*
X124186139Y-121962257D01*
X124192508Y-121969519D01*
X124181857Y-121996236D01*
X124141874Y-122051870D01*
X124078554Y-122128832D01*
X123997888Y-122219530D01*
X123978942Y-122240001D01*
X123887630Y-122341890D01*
X123805199Y-122441003D01*
X123740340Y-122526417D01*
X123701748Y-122587208D01*
X123700297Y-122590169D01*
X123679238Y-122652166D01*
X123659795Y-122740175D01*
X123643242Y-122842457D01*
X123630850Y-122947271D01*
X123623896Y-123042878D01*
X123623650Y-123117535D01*
X123631388Y-123159504D01*
X123637989Y-123164600D01*
X123661789Y-123144423D01*
X123701502Y-123091758D01*
X123744362Y-123024778D01*
X123824917Y-122915725D01*
X123912229Y-122841882D01*
X123998109Y-122809825D01*
X124013043Y-122809000D01*
X124083362Y-122824246D01*
X124150331Y-122861458D01*
X124191939Y-122907845D01*
X124194523Y-122914454D01*
X124212490Y-122948544D01*
X124239971Y-122955357D01*
X124281796Y-122931780D01*
X124342794Y-122874703D01*
X124427793Y-122781012D01*
X124460796Y-122742854D01*
X124548969Y-122643566D01*
X124637967Y-122549130D01*
X124715531Y-122472281D01*
X124756437Y-122435786D01*
X124864467Y-122347263D01*
X126065583Y-123039389D01*
X126291901Y-123169934D01*
X126505176Y-123293213D01*
X126701311Y-123406839D01*
X126876205Y-123508424D01*
X127025759Y-123595582D01*
X127145873Y-123665925D01*
X127232448Y-123717067D01*
X127281385Y-123746620D01*
X127290829Y-123752857D01*
X127269005Y-123755533D01*
X127199401Y-123758112D01*
X127085038Y-123760573D01*
X126928935Y-123762897D01*
X126734114Y-123765061D01*
X126503594Y-123767047D01*
X126240396Y-123768833D01*
X125947541Y-123770398D01*
X125628048Y-123771723D01*
X125284937Y-123772786D01*
X124921230Y-123773566D01*
X124539945Y-123774045D01*
X124160279Y-123774200D01*
X123764448Y-123774049D01*
X123382958Y-123773611D01*
X123018861Y-123772902D01*
X122675208Y-123771942D01*
X122355050Y-123770749D01*
X122061439Y-123769341D01*
X121797425Y-123767737D01*
X121566060Y-123765955D01*
X121370396Y-123764014D01*
X121213482Y-123761932D01*
X121098371Y-123759728D01*
X121028114Y-123757419D01*
X121005694Y-123755150D01*
X121017862Y-123722508D01*
X121047508Y-123667775D01*
X121052251Y-123659900D01*
X121073266Y-123624246D01*
X121117207Y-123548766D01*
X121181647Y-123437655D01*
X121264159Y-123295110D01*
X121362317Y-123125327D01*
X121433462Y-123002156D01*
X122854401Y-123002156D01*
X122856104Y-123037600D01*
X122877443Y-123111398D01*
X122917510Y-123194113D01*
X122968228Y-123274135D01*
X123021519Y-123339857D01*
X123069308Y-123379667D01*
X123097904Y-123385147D01*
X123115139Y-123355730D01*
X123121304Y-123296036D01*
X123120757Y-123281168D01*
X123106400Y-123198958D01*
X123077219Y-123104526D01*
X123064300Y-123072724D01*
X123030809Y-123004139D01*
X123000833Y-122971727D01*
X122960058Y-122964096D01*
X122930343Y-122966088D01*
X122873731Y-122976777D01*
X122854401Y-123002156D01*
X121433462Y-123002156D01*
X121473696Y-122932501D01*
X121595868Y-122720828D01*
X121726409Y-122494505D01*
X121830637Y-122313700D01*
X121964494Y-122081494D01*
X122090685Y-121862701D01*
X122206947Y-121661235D01*
X122311018Y-121481011D01*
X122400635Y-121325942D01*
X122473538Y-121199943D01*
X122527463Y-121106929D01*
X122560149Y-121050814D01*
X122569515Y-121035081D01*
X122593052Y-121042333D01*
X122593052Y-121042333D01*
G37*
X122593052Y-121042333D02*
X122646911Y-121069692D01*
X122718662Y-121109826D01*
X122795875Y-121155402D01*
X122866120Y-121199087D01*
X122916967Y-121233549D01*
X122936000Y-121251280D01*
X122923244Y-121277284D01*
X122888459Y-121337375D01*
X122836866Y-121422767D01*
X122773688Y-121524676D01*
X122769727Y-121530990D01*
X122702933Y-121639389D01*
X122644667Y-121737638D01*
X122601275Y-121814794D01*
X122579304Y-121859380D01*
X122576127Y-121907535D01*
X122584467Y-121994252D01*
X122602136Y-122109172D01*
X122626944Y-122241942D01*
X122656704Y-122382205D01*
X122689227Y-122519606D01*
X122722322Y-122643789D01*
X122753803Y-122744398D01*
X122779786Y-122807877D01*
X122819744Y-122869396D01*
X122868728Y-122897566D01*
X122925291Y-122906142D01*
X122996502Y-122917184D01*
X123046739Y-122933999D01*
X123052551Y-122937868D01*
X123072931Y-122972955D01*
X123099306Y-123042520D01*
X123126010Y-123131596D01*
X123126337Y-123132825D01*
X123162978Y-123262171D01*
X123193772Y-123345028D01*
X123222376Y-123384813D01*
X123252448Y-123384941D01*
X123287642Y-123348827D01*
X123314407Y-123308494D01*
X123342651Y-123246097D01*
X123709247Y-123246097D01*
X123721461Y-123297241D01*
X123733571Y-123327565D01*
X123777721Y-123396419D01*
X123835711Y-123418313D01*
X123912012Y-123394257D01*
X123943918Y-123375138D01*
X123999861Y-123327387D01*
X124061732Y-123258966D01*
X124082724Y-123231627D01*
X124141309Y-123123535D01*
X124154253Y-123026777D01*
X124121481Y-122945595D01*
X124088274Y-122912443D01*
X124036700Y-122876401D01*
X124001747Y-122859907D01*
X124000258Y-122859800D01*
X123958380Y-122879071D01*
X123900261Y-122928798D01*
X123837357Y-122996854D01*
X123781126Y-123071110D01*
X123749292Y-123125481D01*
X123717927Y-123196524D01*
X123709247Y-123246097D01*
X123342651Y-123246097D01*
X123381561Y-123160138D01*
X123407081Y-123006877D01*
X123391160Y-122859086D01*
X123333993Y-122727136D01*
X123302716Y-122684749D01*
X123277136Y-122651635D01*
X123259287Y-122617039D01*
X123247574Y-122571217D01*
X123240406Y-122504419D01*
X123236188Y-122406899D01*
X123233329Y-122268910D01*
X123233167Y-122259176D01*
X123227365Y-121909362D01*
X123318600Y-121768631D01*
X123386780Y-121668248D01*
X123438196Y-121606949D01*
X123480090Y-121579050D01*
X123519705Y-121578864D01*
X123546073Y-121590053D01*
X123582264Y-121615777D01*
X123575277Y-121639359D01*
X123564589Y-121648966D01*
X123529803Y-121684278D01*
X123476995Y-121744927D01*
X123432093Y-121799763D01*
X123335603Y-121920826D01*
X123330572Y-122231563D01*
X123332376Y-122410760D01*
X123343846Y-122550471D01*
X123364456Y-122647693D01*
X123393680Y-122699421D01*
X123413878Y-122707400D01*
X123465340Y-122686478D01*
X123523019Y-122633584D01*
X123573327Y-122563530D01*
X123598955Y-122505687D01*
X123612911Y-122445606D01*
X123610887Y-122392611D01*
X123589940Y-122327637D01*
X123561466Y-122262680D01*
X123514206Y-122141463D01*
X123499208Y-122041425D01*
X123517112Y-121943985D01*
X123568556Y-121830564D01*
X123576862Y-121815272D01*
X123623164Y-121732638D01*
X123653750Y-121687177D01*
X123677176Y-121671433D01*
X123701999Y-121677955D01*
X123721220Y-121689515D01*
X123738620Y-121711328D01*
X123725957Y-121745515D01*
X123690138Y-121791881D01*
X123614036Y-121919494D01*
X123584058Y-122061620D01*
X123601053Y-122209731D01*
X123638779Y-122307350D01*
X123677336Y-122363988D01*
X123712560Y-122370314D01*
X123747237Y-122326442D01*
X123754113Y-122312182D01*
X123769313Y-122257674D01*
X123767856Y-122186350D01*
X123751954Y-122093287D01*
X123735676Y-122006837D01*
X123732713Y-121953720D01*
X123744647Y-121917843D01*
X123772585Y-121883618D01*
X123810271Y-121834266D01*
X123825000Y-121797712D01*
X123841580Y-121769595D01*
X123876465Y-121777547D01*
X123883057Y-121783323D01*
X123880622Y-121811094D01*
X123861890Y-121835938D01*
X123832031Y-121894896D01*
X123819659Y-121980438D01*
X123824650Y-122071499D01*
X123846877Y-122147014D01*
X123863887Y-122171818D01*
X123899840Y-122194531D01*
X123938025Y-122175057D01*
X123973493Y-122118403D01*
X123967373Y-122055288D01*
X123948333Y-122028093D01*
X123932552Y-121991874D01*
X123946566Y-121933458D01*
X123951053Y-121922284D01*
X123982840Y-121845543D01*
X124079997Y-121895108D01*
X124143743Y-121931340D01*
X124186139Y-121962257D01*
X124192508Y-121969519D01*
X124181857Y-121996236D01*
X124141874Y-122051870D01*
X124078554Y-122128832D01*
X123997888Y-122219530D01*
X123978942Y-122240001D01*
X123887630Y-122341890D01*
X123805199Y-122441003D01*
X123740340Y-122526417D01*
X123701748Y-122587208D01*
X123700297Y-122590169D01*
X123679238Y-122652166D01*
X123659795Y-122740175D01*
X123643242Y-122842457D01*
X123630850Y-122947271D01*
X123623896Y-123042878D01*
X123623650Y-123117535D01*
X123631388Y-123159504D01*
X123637989Y-123164600D01*
X123661789Y-123144423D01*
X123701502Y-123091758D01*
X123744362Y-123024778D01*
X123824917Y-122915725D01*
X123912229Y-122841882D01*
X123998109Y-122809825D01*
X124013043Y-122809000D01*
X124083362Y-122824246D01*
X124150331Y-122861458D01*
X124191939Y-122907845D01*
X124194523Y-122914454D01*
X124212490Y-122948544D01*
X124239971Y-122955357D01*
X124281796Y-122931780D01*
X124342794Y-122874703D01*
X124427793Y-122781012D01*
X124460796Y-122742854D01*
X124548969Y-122643566D01*
X124637967Y-122549130D01*
X124715531Y-122472281D01*
X124756437Y-122435786D01*
X124864467Y-122347263D01*
X126065583Y-123039389D01*
X126291901Y-123169934D01*
X126505176Y-123293213D01*
X126701311Y-123406839D01*
X126876205Y-123508424D01*
X127025759Y-123595582D01*
X127145873Y-123665925D01*
X127232448Y-123717067D01*
X127281385Y-123746620D01*
X127290829Y-123752857D01*
X127269005Y-123755533D01*
X127199401Y-123758112D01*
X127085038Y-123760573D01*
X126928935Y-123762897D01*
X126734114Y-123765061D01*
X126503594Y-123767047D01*
X126240396Y-123768833D01*
X125947541Y-123770398D01*
X125628048Y-123771723D01*
X125284937Y-123772786D01*
X124921230Y-123773566D01*
X124539945Y-123774045D01*
X124160279Y-123774200D01*
X123764448Y-123774049D01*
X123382958Y-123773611D01*
X123018861Y-123772902D01*
X122675208Y-123771942D01*
X122355050Y-123770749D01*
X122061439Y-123769341D01*
X121797425Y-123767737D01*
X121566060Y-123765955D01*
X121370396Y-123764014D01*
X121213482Y-123761932D01*
X121098371Y-123759728D01*
X121028114Y-123757419D01*
X121005694Y-123755150D01*
X121017862Y-123722508D01*
X121047508Y-123667775D01*
X121052251Y-123659900D01*
X121073266Y-123624246D01*
X121117207Y-123548766D01*
X121181647Y-123437655D01*
X121264159Y-123295110D01*
X121362317Y-123125327D01*
X121433462Y-123002156D01*
X122854401Y-123002156D01*
X122856104Y-123037600D01*
X122877443Y-123111398D01*
X122917510Y-123194113D01*
X122968228Y-123274135D01*
X123021519Y-123339857D01*
X123069308Y-123379667D01*
X123097904Y-123385147D01*
X123115139Y-123355730D01*
X123121304Y-123296036D01*
X123120757Y-123281168D01*
X123106400Y-123198958D01*
X123077219Y-123104526D01*
X123064300Y-123072724D01*
X123030809Y-123004139D01*
X123000833Y-122971727D01*
X122960058Y-122964096D01*
X122930343Y-122966088D01*
X122873731Y-122976777D01*
X122854401Y-123002156D01*
X121433462Y-123002156D01*
X121473696Y-122932501D01*
X121595868Y-122720828D01*
X121726409Y-122494505D01*
X121830637Y-122313700D01*
X121964494Y-122081494D01*
X122090685Y-121862701D01*
X122206947Y-121661235D01*
X122311018Y-121481011D01*
X122400635Y-121325942D01*
X122473538Y-121199943D01*
X122527463Y-121106929D01*
X122560149Y-121050814D01*
X122569515Y-121035081D01*
X122593052Y-121042333D01*
G36*
X126968173Y-122061893D02*
X127092972Y-122278465D01*
X127209511Y-122481277D01*
X127315421Y-122666167D01*
X127408336Y-122828973D01*
X127485885Y-122965531D01*
X127545701Y-123071682D01*
X127585415Y-123143262D01*
X127602659Y-123176109D01*
X127603173Y-123177789D01*
X127580638Y-123166368D01*
X127518429Y-123131863D01*
X127420796Y-123076705D01*
X127291993Y-123003322D01*
X127136272Y-122914145D01*
X126957886Y-122811604D01*
X126761086Y-122698131D01*
X126550126Y-122576153D01*
X126530100Y-122564557D01*
X126317225Y-122441385D01*
X126117471Y-122326010D01*
X125935194Y-122220934D01*
X125774749Y-122128658D01*
X125640492Y-122051684D01*
X125536780Y-121992512D01*
X125467968Y-121953645D01*
X125438412Y-121937583D01*
X125437900Y-121937368D01*
X125444423Y-121915771D01*
X125484467Y-121860938D01*
X125555647Y-121775570D01*
X125655579Y-121662369D01*
X125781880Y-121524037D01*
X125932166Y-121363276D01*
X126098300Y-121188783D01*
X126326900Y-120950566D01*
X126968173Y-122061893D01*
X126968173Y-122061893D01*
G37*
X126968173Y-122061893D02*
X127092972Y-122278465D01*
X127209511Y-122481277D01*
X127315421Y-122666167D01*
X127408336Y-122828973D01*
X127485885Y-122965531D01*
X127545701Y-123071682D01*
X127585415Y-123143262D01*
X127602659Y-123176109D01*
X127603173Y-123177789D01*
X127580638Y-123166368D01*
X127518429Y-123131863D01*
X127420796Y-123076705D01*
X127291993Y-123003322D01*
X127136272Y-122914145D01*
X126957886Y-122811604D01*
X126761086Y-122698131D01*
X126550126Y-122576153D01*
X126530100Y-122564557D01*
X126317225Y-122441385D01*
X126117471Y-122326010D01*
X125935194Y-122220934D01*
X125774749Y-122128658D01*
X125640492Y-122051684D01*
X125536780Y-121992512D01*
X125467968Y-121953645D01*
X125438412Y-121937583D01*
X125437900Y-121937368D01*
X125444423Y-121915771D01*
X125484467Y-121860938D01*
X125555647Y-121775570D01*
X125655579Y-121662369D01*
X125781880Y-121524037D01*
X125932166Y-121363276D01*
X126098300Y-121188783D01*
X126326900Y-120950566D01*
X126968173Y-122061893D01*
G36*
X124485240Y-117791585D02*
X124522673Y-117850879D01*
X124579311Y-117943752D01*
X124652098Y-118064970D01*
X124737977Y-118209303D01*
X124833893Y-118371517D01*
X124936789Y-118546382D01*
X125043608Y-118728665D01*
X125151296Y-118913133D01*
X125256796Y-119094556D01*
X125357051Y-119267702D01*
X125449006Y-119427337D01*
X125529604Y-119568231D01*
X125595790Y-119685151D01*
X125644506Y-119772865D01*
X125672697Y-119826142D01*
X125678583Y-119840011D01*
X125657564Y-119860807D01*
X125600994Y-119895898D01*
X125520006Y-119939541D01*
X125425732Y-119985996D01*
X125329305Y-120029523D01*
X125247400Y-120062363D01*
X125135409Y-120100800D01*
X125018635Y-120134743D01*
X124888110Y-120166141D01*
X124734870Y-120196942D01*
X124549949Y-120229093D01*
X124324379Y-120264543D01*
X124299315Y-120268334D01*
X124075006Y-120304196D01*
X123894399Y-120338382D01*
X123750550Y-120373186D01*
X123636518Y-120410905D01*
X123545359Y-120453837D01*
X123470131Y-120504278D01*
X123403890Y-120564523D01*
X123403889Y-120564524D01*
X123343636Y-120623102D01*
X123296137Y-120663095D01*
X123274815Y-120674902D01*
X123243998Y-120662604D01*
X123182152Y-120630568D01*
X123101738Y-120585307D01*
X123088400Y-120577518D01*
X123009433Y-120526486D01*
X122951994Y-120480378D01*
X122926832Y-120448019D01*
X122926524Y-120444665D01*
X122939454Y-120416567D01*
X122975178Y-120349626D01*
X123031014Y-120248488D01*
X123104278Y-120117801D01*
X123192289Y-119962211D01*
X123292362Y-119786366D01*
X123401815Y-119594911D01*
X123517966Y-119392494D01*
X123638131Y-119183762D01*
X123759629Y-118973362D01*
X123879775Y-118765940D01*
X123995888Y-118566143D01*
X124105284Y-118378619D01*
X124205281Y-118208013D01*
X124293195Y-118058973D01*
X124366345Y-117936146D01*
X124422047Y-117844178D01*
X124457619Y-117787716D01*
X124470068Y-117771100D01*
X124485240Y-117791585D01*
X124485240Y-117791585D01*
G37*
X124485240Y-117791585D02*
X124522673Y-117850879D01*
X124579311Y-117943752D01*
X124652098Y-118064970D01*
X124737977Y-118209303D01*
X124833893Y-118371517D01*
X124936789Y-118546382D01*
X125043608Y-118728665D01*
X125151296Y-118913133D01*
X125256796Y-119094556D01*
X125357051Y-119267702D01*
X125449006Y-119427337D01*
X125529604Y-119568231D01*
X125595790Y-119685151D01*
X125644506Y-119772865D01*
X125672697Y-119826142D01*
X125678583Y-119840011D01*
X125657564Y-119860807D01*
X125600994Y-119895898D01*
X125520006Y-119939541D01*
X125425732Y-119985996D01*
X125329305Y-120029523D01*
X125247400Y-120062363D01*
X125135409Y-120100800D01*
X125018635Y-120134743D01*
X124888110Y-120166141D01*
X124734870Y-120196942D01*
X124549949Y-120229093D01*
X124324379Y-120264543D01*
X124299315Y-120268334D01*
X124075006Y-120304196D01*
X123894399Y-120338382D01*
X123750550Y-120373186D01*
X123636518Y-120410905D01*
X123545359Y-120453837D01*
X123470131Y-120504278D01*
X123403890Y-120564523D01*
X123403889Y-120564524D01*
X123343636Y-120623102D01*
X123296137Y-120663095D01*
X123274815Y-120674902D01*
X123243998Y-120662604D01*
X123182152Y-120630568D01*
X123101738Y-120585307D01*
X123088400Y-120577518D01*
X123009433Y-120526486D01*
X122951994Y-120480378D01*
X122926832Y-120448019D01*
X122926524Y-120444665D01*
X122939454Y-120416567D01*
X122975178Y-120349626D01*
X123031014Y-120248488D01*
X123104278Y-120117801D01*
X123192289Y-119962211D01*
X123292362Y-119786366D01*
X123401815Y-119594911D01*
X123517966Y-119392494D01*
X123638131Y-119183762D01*
X123759629Y-118973362D01*
X123879775Y-118765940D01*
X123995888Y-118566143D01*
X124105284Y-118378619D01*
X124205281Y-118208013D01*
X124293195Y-118058973D01*
X124366345Y-117936146D01*
X124422047Y-117844178D01*
X124457619Y-117787716D01*
X124470068Y-117771100D01*
X124485240Y-117791585D01*
D14*
D12*
X139239667Y-118292571D02*
X138906333Y-118292571D01*
X138906333Y-118816381D02*
X138906333Y-117816381D01*
X139382524Y-117816381D01*
X140287286Y-118816381D02*
X139715857Y-118816381D01*
X140001571Y-118816381D02*
X140001571Y-117816381D01*
X139906333Y-117959238D01*
X139811095Y-118054476D01*
X139715857Y-118102095D01*
X110640905Y-70556381D02*
X110640905Y-69556381D01*
X111021858Y-69556381D01*
X111117096Y-69604000D01*
X111164715Y-69651619D01*
X111212334Y-69746857D01*
X111212334Y-69889714D01*
X111164715Y-69984952D01*
X111117096Y-70032571D01*
X111021858Y-70080190D01*
X110640905Y-70080190D01*
X112164715Y-70556381D02*
X111593286Y-70556381D01*
X111879000Y-70556381D02*
X111879000Y-69556381D01*
X111783762Y-69699238D01*
X111688524Y-69794476D01*
X111593286Y-69842095D01*
X115443095Y-64476381D02*
X115443095Y-65285905D01*
X115490714Y-65381143D01*
X115538333Y-65428762D01*
X115633571Y-65476381D01*
X115824048Y-65476381D01*
X115919286Y-65428762D01*
X115966905Y-65381143D01*
X116014524Y-65285905D01*
X116014524Y-64476381D01*
X116395476Y-64476381D02*
X117014524Y-64476381D01*
X116681190Y-64857333D01*
X116824048Y-64857333D01*
X116919286Y-64904952D01*
X116966905Y-64952571D01*
X117014524Y-65047810D01*
X117014524Y-65285905D01*
X116966905Y-65381143D01*
X116919286Y-65428762D01*
X116824048Y-65476381D01*
X116538333Y-65476381D01*
X116443095Y-65428762D01*
X116395476Y-65381143D01*
X167330381Y-125960095D02*
X166330381Y-125960095D01*
X166330381Y-125579142D01*
X166378000Y-125483904D01*
X166425619Y-125436285D01*
X166520857Y-125388666D01*
X166663714Y-125388666D01*
X166758952Y-125436285D01*
X166806571Y-125483904D01*
X166854190Y-125579142D01*
X166854190Y-125960095D01*
X166425619Y-125007714D02*
X166378000Y-124960095D01*
X166330381Y-124864857D01*
X166330381Y-124626761D01*
X166378000Y-124531523D01*
X166425619Y-124483904D01*
X166520857Y-124436285D01*
X166616095Y-124436285D01*
X166758952Y-124483904D01*
X167330381Y-125055333D01*
X167330381Y-124436285D01*
X167330381Y-104624095D02*
X166330381Y-104624095D01*
X166330381Y-104243142D01*
X166378000Y-104147904D01*
X166425619Y-104100285D01*
X166520857Y-104052666D01*
X166663714Y-104052666D01*
X166758952Y-104100285D01*
X166806571Y-104147904D01*
X166854190Y-104243142D01*
X166854190Y-104624095D01*
X166330381Y-103719333D02*
X166330381Y-103100285D01*
X166711333Y-103433619D01*
X166711333Y-103290761D01*
X166758952Y-103195523D01*
X166806571Y-103147904D01*
X166901810Y-103100285D01*
X167139905Y-103100285D01*
X167235143Y-103147904D01*
X167282762Y-103195523D01*
X167330381Y-103290761D01*
X167330381Y-103576476D01*
X167282762Y-103671714D01*
X167235143Y-103719333D01*
X167330381Y-83034095D02*
X166330381Y-83034095D01*
X166330381Y-82653142D01*
X166378000Y-82557904D01*
X166425619Y-82510285D01*
X166520857Y-82462666D01*
X166663714Y-82462666D01*
X166758952Y-82510285D01*
X166806571Y-82557904D01*
X166854190Y-82653142D01*
X166854190Y-83034095D01*
X166663714Y-81605523D02*
X167330381Y-81605523D01*
X166282762Y-81843619D02*
X166997048Y-82081714D01*
X166997048Y-81462666D01*
X117094095Y-91654381D02*
X117094095Y-92463905D01*
X117141714Y-92559143D01*
X117189333Y-92606762D01*
X117284571Y-92654381D01*
X117475048Y-92654381D01*
X117570286Y-92606762D01*
X117617905Y-92559143D01*
X117665524Y-92463905D01*
X117665524Y-91654381D01*
X118665524Y-92654381D02*
X118094095Y-92654381D01*
X118379809Y-92654381D02*
X118379809Y-91654381D01*
X118284571Y-91797238D01*
X118189333Y-91892476D01*
X118094095Y-91940095D01*
X147216905Y-85034381D02*
X147216905Y-84034381D01*
X147788334Y-85034381D02*
X147359762Y-84462952D01*
X147788334Y-84034381D02*
X147216905Y-84605810D01*
X148740715Y-85034381D02*
X148169286Y-85034381D01*
X148455000Y-85034381D02*
X148455000Y-84034381D01*
X148359762Y-84177238D01*
X148264524Y-84272476D01*
X148169286Y-84320095D01*
X140733714Y-84710567D02*
X141209905Y-84710567D01*
X140638476Y-84996281D02*
X140971809Y-83996281D01*
X141305143Y-84996281D01*
X141590857Y-84091519D02*
X141638476Y-84043900D01*
X141733714Y-83996281D01*
X141971810Y-83996281D01*
X142067048Y-84043900D01*
X142114667Y-84091519D01*
X142162286Y-84186757D01*
X142162286Y-84281995D01*
X142114667Y-84424852D01*
X141543238Y-84996281D01*
X142162286Y-84996281D01*
X136953714Y-84758827D02*
X137429905Y-84758827D01*
X136858476Y-85044541D02*
X137191809Y-84044541D01*
X137525143Y-85044541D01*
X138382286Y-85044541D02*
X137810857Y-85044541D01*
X138096571Y-85044541D02*
X138096571Y-84044541D01*
X138001333Y-84187398D01*
X137906095Y-84282636D01*
X137810857Y-84330255D01*
X151934326Y-85044541D02*
X151934326Y-84044541D01*
X152505755Y-85044541D01*
X152505755Y-84044541D01*
X153553374Y-84949303D02*
X153505755Y-84996922D01*
X153362898Y-85044541D01*
X153267660Y-85044541D01*
X153124802Y-84996922D01*
X153029564Y-84901684D01*
X152981945Y-84806446D01*
X152934326Y-84615970D01*
X152934326Y-84473112D01*
X152981945Y-84282636D01*
X153029564Y-84187398D01*
X153124802Y-84092160D01*
X153267660Y-84044541D01*
X153362898Y-84044541D01*
X153505755Y-84092160D01*
X153553374Y-84139779D01*
X161961296Y-85069941D02*
X161961296Y-84069941D01*
X162532725Y-85069941D01*
X162532725Y-84069941D01*
X163199391Y-84069941D02*
X163389868Y-84069941D01*
X163485106Y-84117560D01*
X163580344Y-84212798D01*
X163627963Y-84403274D01*
X163627963Y-84736608D01*
X163580344Y-84927084D01*
X163485106Y-85022322D01*
X163389868Y-85069941D01*
X163199391Y-85069941D01*
X163104153Y-85022322D01*
X163008915Y-84927084D01*
X162961296Y-84736608D01*
X162961296Y-84403274D01*
X163008915Y-84212798D01*
X163104153Y-84117560D01*
X163199391Y-84069941D01*
X158155284Y-84997563D02*
X158107665Y-85045182D01*
X157964808Y-85092801D01*
X157869570Y-85092801D01*
X157726712Y-85045182D01*
X157631474Y-84949944D01*
X157583855Y-84854706D01*
X157536236Y-84664230D01*
X157536236Y-84521372D01*
X157583855Y-84330896D01*
X157631474Y-84235658D01*
X157726712Y-84140420D01*
X157869570Y-84092801D01*
X157964808Y-84092801D01*
X158107665Y-84140420D01*
X158155284Y-84188039D01*
X147216905Y-78176381D02*
X147216905Y-77176381D01*
X147788334Y-78176381D02*
X147359762Y-77604952D01*
X147788334Y-77176381D02*
X147216905Y-77747810D01*
X148169286Y-77271619D02*
X148216905Y-77224000D01*
X148312143Y-77176381D01*
X148550239Y-77176381D01*
X148645477Y-77224000D01*
X148693096Y-77271619D01*
X148740715Y-77366857D01*
X148740715Y-77462095D01*
X148693096Y-77604952D01*
X148121667Y-78176381D01*
X148740715Y-78176381D01*
X140733714Y-77725567D02*
X141209905Y-77725567D01*
X140638476Y-78011281D02*
X140971809Y-77011281D01*
X141305143Y-78011281D01*
X141590857Y-77106519D02*
X141638476Y-77058900D01*
X141733714Y-77011281D01*
X141971810Y-77011281D01*
X142067048Y-77058900D01*
X142114667Y-77106519D01*
X142162286Y-77201757D01*
X142162286Y-77296995D01*
X142114667Y-77439852D01*
X141543238Y-78011281D01*
X142162286Y-78011281D01*
X136953714Y-77773827D02*
X137429905Y-77773827D01*
X136858476Y-78059541D02*
X137191809Y-77059541D01*
X137525143Y-78059541D01*
X138382286Y-78059541D02*
X137810857Y-78059541D01*
X138096571Y-78059541D02*
X138096571Y-77059541D01*
X138001333Y-77202398D01*
X137906095Y-77297636D01*
X137810857Y-77345255D01*
X151934326Y-78059541D02*
X151934326Y-77059541D01*
X152505755Y-78059541D01*
X152505755Y-77059541D01*
X153553374Y-77964303D02*
X153505755Y-78011922D01*
X153362898Y-78059541D01*
X153267660Y-78059541D01*
X153124802Y-78011922D01*
X153029564Y-77916684D01*
X152981945Y-77821446D01*
X152934326Y-77630970D01*
X152934326Y-77488112D01*
X152981945Y-77297636D01*
X153029564Y-77202398D01*
X153124802Y-77107160D01*
X153267660Y-77059541D01*
X153362898Y-77059541D01*
X153505755Y-77107160D01*
X153553374Y-77154779D01*
X161961296Y-78084941D02*
X161961296Y-77084941D01*
X162532725Y-78084941D01*
X162532725Y-77084941D01*
X163199391Y-77084941D02*
X163389868Y-77084941D01*
X163485106Y-77132560D01*
X163580344Y-77227798D01*
X163627963Y-77418274D01*
X163627963Y-77751608D01*
X163580344Y-77942084D01*
X163485106Y-78037322D01*
X163389868Y-78084941D01*
X163199391Y-78084941D01*
X163104153Y-78037322D01*
X163008915Y-77942084D01*
X162961296Y-77751608D01*
X162961296Y-77418274D01*
X163008915Y-77227798D01*
X163104153Y-77132560D01*
X163199391Y-77084941D01*
X158155284Y-78012563D02*
X158107665Y-78060182D01*
X157964808Y-78107801D01*
X157869570Y-78107801D01*
X157726712Y-78060182D01*
X157631474Y-77964944D01*
X157583855Y-77869706D01*
X157536236Y-77679230D01*
X157536236Y-77536372D01*
X157583855Y-77345896D01*
X157631474Y-77250658D01*
X157726712Y-77155420D01*
X157869570Y-77107801D01*
X157964808Y-77107801D01*
X158107665Y-77155420D01*
X158155284Y-77203039D01*
X147216905Y-71064381D02*
X147216905Y-70064381D01*
X147788334Y-71064381D02*
X147359762Y-70492952D01*
X147788334Y-70064381D02*
X147216905Y-70635810D01*
X148121667Y-70064381D02*
X148740715Y-70064381D01*
X148407381Y-70445333D01*
X148550239Y-70445333D01*
X148645477Y-70492952D01*
X148693096Y-70540571D01*
X148740715Y-70635810D01*
X148740715Y-70873905D01*
X148693096Y-70969143D01*
X148645477Y-71016762D01*
X148550239Y-71064381D01*
X148264524Y-71064381D01*
X148169286Y-71016762D01*
X148121667Y-70969143D01*
X140733714Y-70740567D02*
X141209905Y-70740567D01*
X140638476Y-71026281D02*
X140971809Y-70026281D01*
X141305143Y-71026281D01*
X141590857Y-70121519D02*
X141638476Y-70073900D01*
X141733714Y-70026281D01*
X141971810Y-70026281D01*
X142067048Y-70073900D01*
X142114667Y-70121519D01*
X142162286Y-70216757D01*
X142162286Y-70311995D01*
X142114667Y-70454852D01*
X141543238Y-71026281D01*
X142162286Y-71026281D01*
X136953714Y-70788827D02*
X137429905Y-70788827D01*
X136858476Y-71074541D02*
X137191809Y-70074541D01*
X137525143Y-71074541D01*
X138382286Y-71074541D02*
X137810857Y-71074541D01*
X138096571Y-71074541D02*
X138096571Y-70074541D01*
X138001333Y-70217398D01*
X137906095Y-70312636D01*
X137810857Y-70360255D01*
X151934326Y-71074541D02*
X151934326Y-70074541D01*
X152505755Y-71074541D01*
X152505755Y-70074541D01*
X153553374Y-70979303D02*
X153505755Y-71026922D01*
X153362898Y-71074541D01*
X153267660Y-71074541D01*
X153124802Y-71026922D01*
X153029564Y-70931684D01*
X152981945Y-70836446D01*
X152934326Y-70645970D01*
X152934326Y-70503112D01*
X152981945Y-70312636D01*
X153029564Y-70217398D01*
X153124802Y-70122160D01*
X153267660Y-70074541D01*
X153362898Y-70074541D01*
X153505755Y-70122160D01*
X153553374Y-70169779D01*
X161961296Y-71099941D02*
X161961296Y-70099941D01*
X162532725Y-71099941D01*
X162532725Y-70099941D01*
X163199391Y-70099941D02*
X163389868Y-70099941D01*
X163485106Y-70147560D01*
X163580344Y-70242798D01*
X163627963Y-70433274D01*
X163627963Y-70766608D01*
X163580344Y-70957084D01*
X163485106Y-71052322D01*
X163389868Y-71099941D01*
X163199391Y-71099941D01*
X163104153Y-71052322D01*
X163008915Y-70957084D01*
X162961296Y-70766608D01*
X162961296Y-70433274D01*
X163008915Y-70242798D01*
X163104153Y-70147560D01*
X163199391Y-70099941D01*
X158155284Y-71027563D02*
X158107665Y-71075182D01*
X157964808Y-71122801D01*
X157869570Y-71122801D01*
X157726712Y-71075182D01*
X157631474Y-70979944D01*
X157583855Y-70884706D01*
X157536236Y-70694230D01*
X157536236Y-70551372D01*
X157583855Y-70360896D01*
X157631474Y-70265658D01*
X157726712Y-70170420D01*
X157869570Y-70122801D01*
X157964808Y-70122801D01*
X158107665Y-70170420D01*
X158155284Y-70218039D01*
X147216905Y-64206381D02*
X147216905Y-63206381D01*
X147788334Y-64206381D02*
X147359762Y-63634952D01*
X147788334Y-63206381D02*
X147216905Y-63777810D01*
X148645477Y-63539714D02*
X148645477Y-64206381D01*
X148407381Y-63158762D02*
X148169286Y-63873048D01*
X148788334Y-63873048D01*
X140733714Y-63755567D02*
X141209905Y-63755567D01*
X140638476Y-64041281D02*
X140971809Y-63041281D01*
X141305143Y-64041281D01*
X141590857Y-63136519D02*
X141638476Y-63088900D01*
X141733714Y-63041281D01*
X141971810Y-63041281D01*
X142067048Y-63088900D01*
X142114667Y-63136519D01*
X142162286Y-63231757D01*
X142162286Y-63326995D01*
X142114667Y-63469852D01*
X141543238Y-64041281D01*
X142162286Y-64041281D01*
X136953714Y-63803827D02*
X137429905Y-63803827D01*
X136858476Y-64089541D02*
X137191809Y-63089541D01*
X137525143Y-64089541D01*
X138382286Y-64089541D02*
X137810857Y-64089541D01*
X138096571Y-64089541D02*
X138096571Y-63089541D01*
X138001333Y-63232398D01*
X137906095Y-63327636D01*
X137810857Y-63375255D01*
X151934326Y-64089541D02*
X151934326Y-63089541D01*
X152505755Y-64089541D01*
X152505755Y-63089541D01*
X153553374Y-63994303D02*
X153505755Y-64041922D01*
X153362898Y-64089541D01*
X153267660Y-64089541D01*
X153124802Y-64041922D01*
X153029564Y-63946684D01*
X152981945Y-63851446D01*
X152934326Y-63660970D01*
X152934326Y-63518112D01*
X152981945Y-63327636D01*
X153029564Y-63232398D01*
X153124802Y-63137160D01*
X153267660Y-63089541D01*
X153362898Y-63089541D01*
X153505755Y-63137160D01*
X153553374Y-63184779D01*
X161961296Y-64114941D02*
X161961296Y-63114941D01*
X162532725Y-64114941D01*
X162532725Y-63114941D01*
X163199391Y-63114941D02*
X163389868Y-63114941D01*
X163485106Y-63162560D01*
X163580344Y-63257798D01*
X163627963Y-63448274D01*
X163627963Y-63781608D01*
X163580344Y-63972084D01*
X163485106Y-64067322D01*
X163389868Y-64114941D01*
X163199391Y-64114941D01*
X163104153Y-64067322D01*
X163008915Y-63972084D01*
X162961296Y-63781608D01*
X162961296Y-63448274D01*
X163008915Y-63257798D01*
X163104153Y-63162560D01*
X163199391Y-63114941D01*
X158155284Y-64042563D02*
X158107665Y-64090182D01*
X157964808Y-64137801D01*
X157869570Y-64137801D01*
X157726712Y-64090182D01*
X157631474Y-63994944D01*
X157583855Y-63899706D01*
X157536236Y-63709230D01*
X157536236Y-63566372D01*
X157583855Y-63375896D01*
X157631474Y-63280658D01*
X157726712Y-63185420D01*
X157869570Y-63137801D01*
X157964808Y-63137801D01*
X158107665Y-63185420D01*
X158155284Y-63233039D01*
X115276334Y-116943143D02*
X115228715Y-116990762D01*
X115085858Y-117038381D01*
X114990620Y-117038381D01*
X114847762Y-116990762D01*
X114752524Y-116895524D01*
X114704905Y-116800286D01*
X114657286Y-116609810D01*
X114657286Y-116466952D01*
X114704905Y-116276476D01*
X114752524Y-116181238D01*
X114847762Y-116086000D01*
X114990620Y-116038381D01*
X115085858Y-116038381D01*
X115228715Y-116086000D01*
X115276334Y-116133619D01*
X116228715Y-117038381D02*
X115657286Y-117038381D01*
X115943000Y-117038381D02*
X115943000Y-116038381D01*
X115847762Y-116181238D01*
X115752524Y-116276476D01*
X115657286Y-116324095D01*
X127341334Y-118721143D02*
X127293715Y-118768762D01*
X127150858Y-118816381D01*
X127055620Y-118816381D01*
X126912762Y-118768762D01*
X126817524Y-118673524D01*
X126769905Y-118578286D01*
X126722286Y-118387810D01*
X126722286Y-118244952D01*
X126769905Y-118054476D01*
X126817524Y-117959238D01*
X126912762Y-117864000D01*
X127055620Y-117816381D01*
X127150858Y-117816381D01*
X127293715Y-117864000D01*
X127341334Y-117911619D01*
X128198477Y-118149714D02*
X128198477Y-118816381D01*
X127960381Y-117768762D02*
X127722286Y-118483048D01*
X128341334Y-118483048D01*
X110513905Y-98242381D02*
X110513905Y-97242381D01*
X110894858Y-97242381D01*
X110990096Y-97290000D01*
X111037715Y-97337619D01*
X111085334Y-97432857D01*
X111085334Y-97575714D01*
X111037715Y-97670952D01*
X110990096Y-97718571D01*
X110894858Y-97766190D01*
X110513905Y-97766190D01*
X111990096Y-97242381D02*
X111513905Y-97242381D01*
X111466286Y-97718571D01*
X111513905Y-97670952D01*
X111609143Y-97623333D01*
X111847239Y-97623333D01*
X111942477Y-97670952D01*
X111990096Y-97718571D01*
X112037715Y-97813810D01*
X112037715Y-98051905D01*
X111990096Y-98147143D01*
X111942477Y-98194762D01*
X111847239Y-98242381D01*
X111609143Y-98242381D01*
X111513905Y-98194762D01*
X111466286Y-98147143D01*
D14*
M02*
