G04 #@! TF.FileFunction,Legend,Bot*
%FSLAX46Y46*%
G04 Gerber Fmt 4.6, Leading zero omitted, Abs format (unit mm)*
G04 Created by KiCad (PCBNEW 4.0.2+e4-6225~38~ubuntu14.04.1-stable) date Wed 27 Jul 2016 09:26:18 PM CEST*
%MOMM*%
G01*
G04 APERTURE LIST*
%ADD10C,0.100000*%
%ADD11C,0.150000*%
G04 APERTURE END LIST*
D10*
D11*
X125595000Y-83781000D02*
X124595000Y-83781000D01*
X124595000Y-82081000D02*
X125595000Y-82081000D01*
X122928000Y-71716000D02*
X121928000Y-71716000D01*
X121928000Y-70016000D02*
X122928000Y-70016000D01*
X120918000Y-92491000D02*
X120918000Y-93691000D01*
X122668000Y-93691000D02*
X122668000Y-92491000D01*
X117743000Y-92491000D02*
X117743000Y-93691000D01*
X119493000Y-93691000D02*
X119493000Y-92491000D01*
X124093000Y-92491000D02*
X124093000Y-93691000D01*
X125843000Y-93691000D02*
X125843000Y-92491000D01*
X127268000Y-92491000D02*
X127268000Y-93691000D01*
X129018000Y-93691000D02*
X129018000Y-92491000D01*
X114568000Y-92491000D02*
X114568000Y-93691000D01*
X116318000Y-93691000D02*
X116318000Y-92491000D01*
X111393000Y-92491000D02*
X111393000Y-93691000D01*
X113143000Y-93691000D02*
X113143000Y-92491000D01*
X134380000Y-92364000D02*
X134380000Y-93564000D01*
X136130000Y-93564000D02*
X136130000Y-92364000D01*
X126318000Y-108371000D02*
X127568000Y-108371000D01*
X126318000Y-108371000D02*
X126318000Y-106871000D01*
X136318000Y-108371000D02*
X136318000Y-106871000D01*
X136318000Y-108371000D02*
X135068000Y-108371000D01*
X132080000Y-82169000D02*
X132080000Y-81407000D01*
X132080000Y-81407000D02*
X130556000Y-81407000D01*
X130556000Y-81407000D02*
X130556000Y-82169000D01*
X133604000Y-70993000D02*
X129032000Y-70993000D01*
X129032000Y-70993000D02*
X129032000Y-82169000D01*
X129032000Y-82169000D02*
X133604000Y-82169000D01*
X133604000Y-82169000D02*
X133604000Y-70993000D01*
X140628000Y-93464000D02*
X140628000Y-92464000D01*
X142328000Y-92464000D02*
X142328000Y-93464000D01*
X125452143Y-80605334D02*
X125499762Y-80557715D01*
X125547381Y-80414858D01*
X125547381Y-80319620D01*
X125499762Y-80176762D01*
X125404524Y-80081524D01*
X125309286Y-80033905D01*
X125118810Y-79986286D01*
X124975952Y-79986286D01*
X124785476Y-80033905D01*
X124690238Y-80081524D01*
X124595000Y-80176762D01*
X124547381Y-80319620D01*
X124547381Y-80414858D01*
X124595000Y-80557715D01*
X124642619Y-80605334D01*
X124642619Y-80986286D02*
X124595000Y-81033905D01*
X124547381Y-81129143D01*
X124547381Y-81367239D01*
X124595000Y-81462477D01*
X124642619Y-81510096D01*
X124737857Y-81557715D01*
X124833095Y-81557715D01*
X124975952Y-81510096D01*
X125547381Y-80938667D01*
X125547381Y-81557715D01*
X122912143Y-68667334D02*
X122959762Y-68619715D01*
X123007381Y-68476858D01*
X123007381Y-68381620D01*
X122959762Y-68238762D01*
X122864524Y-68143524D01*
X122769286Y-68095905D01*
X122578810Y-68048286D01*
X122435952Y-68048286D01*
X122245476Y-68095905D01*
X122150238Y-68143524D01*
X122055000Y-68238762D01*
X122007381Y-68381620D01*
X122007381Y-68476858D01*
X122055000Y-68619715D01*
X122102619Y-68667334D01*
X122007381Y-69000667D02*
X122007381Y-69619715D01*
X122388333Y-69286381D01*
X122388333Y-69429239D01*
X122435952Y-69524477D01*
X122483571Y-69572096D01*
X122578810Y-69619715D01*
X122816905Y-69619715D01*
X122912143Y-69572096D01*
X122959762Y-69524477D01*
X123007381Y-69429239D01*
X123007381Y-69143524D01*
X122959762Y-69048286D01*
X122912143Y-69000667D01*
X122245381Y-89749334D02*
X121769190Y-89416000D01*
X122245381Y-89177905D02*
X121245381Y-89177905D01*
X121245381Y-89558858D01*
X121293000Y-89654096D01*
X121340619Y-89701715D01*
X121435857Y-89749334D01*
X121578714Y-89749334D01*
X121673952Y-89701715D01*
X121721571Y-89654096D01*
X121769190Y-89558858D01*
X121769190Y-89177905D01*
X122245381Y-90701715D02*
X122245381Y-90130286D01*
X122245381Y-90416000D02*
X121245381Y-90416000D01*
X121388238Y-90320762D01*
X121483476Y-90225524D01*
X121531095Y-90130286D01*
X119197381Y-89495334D02*
X118721190Y-89162000D01*
X119197381Y-88923905D02*
X118197381Y-88923905D01*
X118197381Y-89304858D01*
X118245000Y-89400096D01*
X118292619Y-89447715D01*
X118387857Y-89495334D01*
X118530714Y-89495334D01*
X118625952Y-89447715D01*
X118673571Y-89400096D01*
X118721190Y-89304858D01*
X118721190Y-88923905D01*
X118292619Y-89876286D02*
X118245000Y-89923905D01*
X118197381Y-90019143D01*
X118197381Y-90257239D01*
X118245000Y-90352477D01*
X118292619Y-90400096D01*
X118387857Y-90447715D01*
X118483095Y-90447715D01*
X118625952Y-90400096D01*
X119197381Y-89828667D01*
X119197381Y-90447715D01*
X125293381Y-89495334D02*
X124817190Y-89162000D01*
X125293381Y-88923905D02*
X124293381Y-88923905D01*
X124293381Y-89304858D01*
X124341000Y-89400096D01*
X124388619Y-89447715D01*
X124483857Y-89495334D01*
X124626714Y-89495334D01*
X124721952Y-89447715D01*
X124769571Y-89400096D01*
X124817190Y-89304858D01*
X124817190Y-88923905D01*
X124293381Y-89828667D02*
X124293381Y-90447715D01*
X124674333Y-90114381D01*
X124674333Y-90257239D01*
X124721952Y-90352477D01*
X124769571Y-90400096D01*
X124864810Y-90447715D01*
X125102905Y-90447715D01*
X125198143Y-90400096D01*
X125245762Y-90352477D01*
X125293381Y-90257239D01*
X125293381Y-89971524D01*
X125245762Y-89876286D01*
X125198143Y-89828667D01*
X128595381Y-89495334D02*
X128119190Y-89162000D01*
X128595381Y-88923905D02*
X127595381Y-88923905D01*
X127595381Y-89304858D01*
X127643000Y-89400096D01*
X127690619Y-89447715D01*
X127785857Y-89495334D01*
X127928714Y-89495334D01*
X128023952Y-89447715D01*
X128071571Y-89400096D01*
X128119190Y-89304858D01*
X128119190Y-88923905D01*
X127928714Y-90352477D02*
X128595381Y-90352477D01*
X127547762Y-90114381D02*
X128262048Y-89876286D01*
X128262048Y-90495334D01*
X115895381Y-89495334D02*
X115419190Y-89162000D01*
X115895381Y-88923905D02*
X114895381Y-88923905D01*
X114895381Y-89304858D01*
X114943000Y-89400096D01*
X114990619Y-89447715D01*
X115085857Y-89495334D01*
X115228714Y-89495334D01*
X115323952Y-89447715D01*
X115371571Y-89400096D01*
X115419190Y-89304858D01*
X115419190Y-88923905D01*
X114895381Y-90400096D02*
X114895381Y-89923905D01*
X115371571Y-89876286D01*
X115323952Y-89923905D01*
X115276333Y-90019143D01*
X115276333Y-90257239D01*
X115323952Y-90352477D01*
X115371571Y-90400096D01*
X115466810Y-90447715D01*
X115704905Y-90447715D01*
X115800143Y-90400096D01*
X115847762Y-90352477D01*
X115895381Y-90257239D01*
X115895381Y-90019143D01*
X115847762Y-89923905D01*
X115800143Y-89876286D01*
X112847381Y-89495334D02*
X112371190Y-89162000D01*
X112847381Y-88923905D02*
X111847381Y-88923905D01*
X111847381Y-89304858D01*
X111895000Y-89400096D01*
X111942619Y-89447715D01*
X112037857Y-89495334D01*
X112180714Y-89495334D01*
X112275952Y-89447715D01*
X112323571Y-89400096D01*
X112371190Y-89304858D01*
X112371190Y-88923905D01*
X111847381Y-90352477D02*
X111847381Y-90162000D01*
X111895000Y-90066762D01*
X111942619Y-90019143D01*
X112085476Y-89923905D01*
X112275952Y-89876286D01*
X112656905Y-89876286D01*
X112752143Y-89923905D01*
X112799762Y-89971524D01*
X112847381Y-90066762D01*
X112847381Y-90257239D01*
X112799762Y-90352477D01*
X112752143Y-90400096D01*
X112656905Y-90447715D01*
X112418810Y-90447715D01*
X112323571Y-90400096D01*
X112275952Y-90352477D01*
X112228333Y-90257239D01*
X112228333Y-90066762D01*
X112275952Y-89971524D01*
X112323571Y-89923905D01*
X112418810Y-89876286D01*
X135707381Y-89241334D02*
X135231190Y-88908000D01*
X135707381Y-88669905D02*
X134707381Y-88669905D01*
X134707381Y-89050858D01*
X134755000Y-89146096D01*
X134802619Y-89193715D01*
X134897857Y-89241334D01*
X135040714Y-89241334D01*
X135135952Y-89193715D01*
X135183571Y-89146096D01*
X135231190Y-89050858D01*
X135231190Y-88669905D01*
X134707381Y-89574667D02*
X134707381Y-90241334D01*
X135707381Y-89812762D01*
X124547381Y-97282095D02*
X125356905Y-97282095D01*
X125452143Y-97329714D01*
X125499762Y-97377333D01*
X125547381Y-97472571D01*
X125547381Y-97663048D01*
X125499762Y-97758286D01*
X125452143Y-97805905D01*
X125356905Y-97853524D01*
X124547381Y-97853524D01*
X124642619Y-98282095D02*
X124595000Y-98329714D01*
X124547381Y-98424952D01*
X124547381Y-98663048D01*
X124595000Y-98758286D01*
X124642619Y-98805905D01*
X124737857Y-98853524D01*
X124833095Y-98853524D01*
X124975952Y-98805905D01*
X125547381Y-98234476D01*
X125547381Y-98853524D01*
X127595381Y-69342095D02*
X128404905Y-69342095D01*
X128500143Y-69389714D01*
X128547762Y-69437333D01*
X128595381Y-69532571D01*
X128595381Y-69723048D01*
X128547762Y-69818286D01*
X128500143Y-69865905D01*
X128404905Y-69913524D01*
X127595381Y-69913524D01*
X127928714Y-70818286D02*
X128595381Y-70818286D01*
X127547762Y-70580190D02*
X128262048Y-70342095D01*
X128262048Y-70961143D01*
X141962143Y-89241334D02*
X142009762Y-89193715D01*
X142057381Y-89050858D01*
X142057381Y-88955620D01*
X142009762Y-88812762D01*
X141914524Y-88717524D01*
X141819286Y-88669905D01*
X141628810Y-88622286D01*
X141485952Y-88622286D01*
X141295476Y-88669905D01*
X141200238Y-88717524D01*
X141105000Y-88812762D01*
X141057381Y-88955620D01*
X141057381Y-89050858D01*
X141105000Y-89193715D01*
X141152619Y-89241334D01*
X141057381Y-90146096D02*
X141057381Y-89669905D01*
X141533571Y-89622286D01*
X141485952Y-89669905D01*
X141438333Y-89765143D01*
X141438333Y-90003239D01*
X141485952Y-90098477D01*
X141533571Y-90146096D01*
X141628810Y-90193715D01*
X141866905Y-90193715D01*
X141962143Y-90146096D01*
X142009762Y-90098477D01*
X142057381Y-90003239D01*
X142057381Y-89765143D01*
X142009762Y-89669905D01*
X141962143Y-89622286D01*
M02*
