G04 #@! TF.FileFunction,Soldermask,Top*
%FSLAX46Y46*%
G04 Gerber Fmt 4.6, Leading zero omitted, Abs format (unit mm)*
G04 Created by KiCad (PCBNEW 4.0.2+e4-6225~38~ubuntu14.04.1-stable) date Wed 27 Jul 2016 09:26:18 PM CEST*
%MOMM*%
G01*
G04 APERTURE LIST*
%ADD10C,0.100000*%
%ADD11R,2.127200X2.127200*%
%ADD12O,2.127200X2.127200*%
%ADD13O,4.400500X2.899360*%
%ADD14R,2.432000X2.127200*%
%ADD15O,2.432000X2.127200*%
%ADD16O,1.500000X2.800000*%
%ADD17R,2.800000X1.500000*%
%ADD18O,2.800000X1.500000*%
%ADD19C,3.400000*%
%ADD20C,2.700000*%
%ADD21C,2.400000*%
%ADD22R,4.400500X2.000200*%
%ADD23R,2.000200X3.000960*%
%ADD24C,3.600000*%
G04 APERTURE END LIST*
D10*
D11*
X112268000Y-100330000D03*
D12*
X114681000Y-100330000D03*
X112141000Y-102870000D03*
X114681000Y-102870000D03*
X112141000Y-105410000D03*
X114681000Y-105410000D03*
X112141000Y-107950000D03*
X114681000Y-107950000D03*
D13*
X163781740Y-122809000D03*
X141780260Y-122809000D03*
D14*
X112268000Y-72771000D03*
D15*
X112268000Y-75311000D03*
X112268000Y-77851000D03*
X112268000Y-80391000D03*
X112268000Y-82931000D03*
X112268000Y-85471000D03*
D16*
X120338000Y-87886000D03*
X122338000Y-87886000D03*
X124338000Y-87886000D03*
X126338000Y-87886000D03*
X128338000Y-87886000D03*
X130338000Y-87886000D03*
D17*
X117348000Y-72136000D03*
D18*
X117348000Y-74136000D03*
X117348000Y-76136000D03*
X117348000Y-78136000D03*
X117348000Y-80136000D03*
X117348000Y-82136000D03*
X117348000Y-84136000D03*
X117348000Y-86136000D03*
X133348000Y-86136000D03*
X133348000Y-84136000D03*
X133348000Y-82136000D03*
X133348000Y-80136000D03*
X133348000Y-78136000D03*
X133348000Y-76136000D03*
X133348000Y-74136000D03*
X133348000Y-72136000D03*
D19*
X173230000Y-110476000D03*
X173230000Y-115476000D03*
X173230000Y-120476000D03*
X173230000Y-125476000D03*
X173230000Y-88886000D03*
X173230000Y-93886000D03*
X173230000Y-98886000D03*
X173230000Y-103886000D03*
X173230000Y-67296000D03*
X173230000Y-72296000D03*
X173230000Y-77296000D03*
X173230000Y-82296000D03*
X122663000Y-102661000D03*
X161163000Y-102661000D03*
X122663000Y-113411000D03*
X161163000Y-113411000D03*
D20*
X162868000Y-86741000D03*
X157828000Y-86741000D03*
X152788000Y-86741000D03*
D21*
X141448000Y-86741000D03*
X137668000Y-86741000D03*
D20*
X162868000Y-79756000D03*
X157828000Y-79756000D03*
X152788000Y-79756000D03*
D21*
X141448000Y-79756000D03*
X137668000Y-79756000D03*
D20*
X162868000Y-72771000D03*
X157828000Y-72771000D03*
X152788000Y-72771000D03*
D21*
X141448000Y-72771000D03*
X137668000Y-72771000D03*
D20*
X162868000Y-65786000D03*
X157828000Y-65786000D03*
X152788000Y-65786000D03*
D21*
X141448000Y-65786000D03*
X137668000Y-65786000D03*
D22*
X118493540Y-121666000D03*
X112392460Y-121666000D03*
D23*
X131318000Y-119103140D03*
X131318000Y-122704860D03*
D24*
X168204000Y-129928000D03*
X168204000Y-62928000D03*
X112204000Y-129928000D03*
X112204000Y-62928000D03*
M02*
