G04 #@! TF.FileFunction,Copper,L2,Bot,Signal*
%FSLAX46Y46*%
G04 Gerber Fmt 4.6, Leading zero omitted, Abs format (unit mm)*
G04 Created by KiCad (PCBNEW 4.0.2+e4-6225~38~ubuntu14.04.1-stable) date Thu 21 Jul 2016 05:34:04 PM CEST*
%MOMM*%
G01*
G04 APERTURE LIST*
%ADD10C,0.100000*%
%ADD11R,1.500000X1.250000*%
%ADD12O,4.000500X2.499360*%
%ADD13R,2.032000X1.727200*%
%ADD14O,2.032000X1.727200*%
%ADD15R,1.300000X1.500000*%
%ADD16R,1.390000X4.600000*%
%ADD17R,10.800000X9.400000*%
%ADD18R,1.143000X0.508000*%
%ADD19C,3.000000*%
%ADD20C,2.300000*%
%ADD21C,2.000000*%
%ADD22R,1.727200X1.727200*%
%ADD23O,1.727200X1.727200*%
%ADD24C,0.600000*%
%ADD25C,0.500000*%
%ADD26C,1.000000*%
%ADD27C,0.250000*%
G04 APERTURE END LIST*
D10*
D11*
X188742000Y-102870000D03*
X191242000Y-102870000D03*
X186075000Y-90170000D03*
X188575000Y-90170000D03*
D12*
X228170740Y-142875000D03*
X206169260Y-142875000D03*
D13*
X177165000Y-92075000D03*
D14*
X177165000Y-94615000D03*
X177165000Y-97155000D03*
X177165000Y-99695000D03*
X177165000Y-102235000D03*
X177165000Y-104775000D03*
D15*
X186690000Y-113745000D03*
X186690000Y-111045000D03*
X183515000Y-113745000D03*
X183515000Y-111045000D03*
X189865000Y-113745000D03*
X189865000Y-111045000D03*
X193040000Y-113745000D03*
X193040000Y-111045000D03*
X180340000Y-113745000D03*
X180340000Y-111045000D03*
X177165000Y-113745000D03*
X177165000Y-111045000D03*
X200152000Y-113618000D03*
X200152000Y-110918000D03*
D16*
X196215000Y-130175000D03*
D17*
X196215000Y-121025000D03*
D16*
X193675000Y-130175000D03*
X198755000Y-130175000D03*
D18*
X199390000Y-100330000D03*
X199390000Y-97790000D03*
X199390000Y-96520000D03*
X199390000Y-95250000D03*
X199390000Y-93980000D03*
X199390000Y-92710000D03*
X199390000Y-91440000D03*
X193040000Y-91440000D03*
X193040000Y-92710000D03*
X193040000Y-93980000D03*
X193040000Y-95250000D03*
X193040000Y-96520000D03*
X193040000Y-97790000D03*
X193040000Y-99060000D03*
X193040000Y-100330000D03*
X199390000Y-99060000D03*
D19*
X233680000Y-129780000D03*
X233680000Y-134780000D03*
X233680000Y-139780000D03*
X233680000Y-144780000D03*
X233680000Y-108190000D03*
X233680000Y-113190000D03*
X233680000Y-118190000D03*
X233680000Y-123190000D03*
X233680000Y-86600000D03*
X233680000Y-91600000D03*
X233680000Y-96600000D03*
X233680000Y-101600000D03*
X187560000Y-121965000D03*
X226060000Y-121965000D03*
X187560000Y-132715000D03*
X226060000Y-132715000D03*
D20*
X227765000Y-106045000D03*
X222725000Y-106045000D03*
X217685000Y-106045000D03*
D21*
X206345000Y-106045000D03*
X202565000Y-106045000D03*
D20*
X227765000Y-99060000D03*
X222725000Y-99060000D03*
X217685000Y-99060000D03*
D21*
X206345000Y-99060000D03*
X202565000Y-99060000D03*
D20*
X227765000Y-92075000D03*
X222725000Y-92075000D03*
X217685000Y-92075000D03*
D21*
X206345000Y-92075000D03*
X202565000Y-92075000D03*
D20*
X227765000Y-85090000D03*
X222725000Y-85090000D03*
X217685000Y-85090000D03*
D21*
X206345000Y-85090000D03*
X202565000Y-85090000D03*
D22*
X177165000Y-119634000D03*
D23*
X179578000Y-119634000D03*
X177038000Y-122174000D03*
X179578000Y-122174000D03*
X177038000Y-124714000D03*
X179578000Y-124714000D03*
X177038000Y-127254000D03*
X179578000Y-127254000D03*
D24*
X206375000Y-89535000D03*
X199390000Y-89535000D03*
X190500000Y-139065000D03*
X192405000Y-144399000D03*
X195580000Y-104775000D03*
X184658000Y-104648000D03*
X196215000Y-135255000D03*
X179070000Y-98425000D03*
X182245000Y-90170000D03*
X184785000Y-92710000D03*
X184785000Y-93980000D03*
X188214000Y-109474000D03*
X189230000Y-104775000D03*
X185166000Y-109474000D03*
X187325000Y-104775000D03*
X191516000Y-109474000D03*
X191135000Y-104775000D03*
X194183000Y-109474000D03*
X193040000Y-104775000D03*
X180340000Y-100330000D03*
X191262000Y-96520000D03*
X196850000Y-94361000D03*
X200152000Y-104775000D03*
X184658000Y-98552000D03*
X185674000Y-100838000D03*
X184404000Y-102616000D03*
D25*
X199390000Y-91440000D02*
X199390000Y-89535000D01*
X206375000Y-89535000D02*
X206345000Y-89535000D01*
X206345000Y-89535000D02*
X206375000Y-89535000D01*
X206375000Y-89535000D02*
X206345000Y-89535000D01*
D26*
X206345000Y-106045000D02*
X206345000Y-99060000D01*
X206345000Y-99060000D02*
X206345000Y-92075000D01*
X206345000Y-92075000D02*
X206345000Y-89535000D01*
X206345000Y-89535000D02*
X206345000Y-85090000D01*
X187560000Y-121965000D02*
X187560000Y-125965000D01*
X191770000Y-130175000D02*
X193675000Y-130175000D01*
X187560000Y-125965000D02*
X191770000Y-130175000D01*
X193675000Y-130175000D02*
X193675000Y-135890000D01*
X193675000Y-135890000D02*
X190500000Y-139065000D01*
X177038000Y-124714000D02*
X177038000Y-122174000D01*
X177038000Y-122174000D02*
X177165000Y-122047000D01*
X177165000Y-122047000D02*
X177165000Y-119634000D01*
X177165000Y-119634000D02*
X177165000Y-127127000D01*
X177165000Y-127127000D02*
X177038000Y-127254000D01*
X177038000Y-127254000D02*
X177038000Y-129667000D01*
X177038000Y-129667000D02*
X180086000Y-132715000D01*
X180086000Y-132715000D02*
X187560000Y-132715000D01*
X198755000Y-130175000D02*
X198755000Y-138049000D01*
X198755000Y-138049000D02*
X192405000Y-144399000D01*
X198755000Y-130175000D02*
X200787000Y-130175000D01*
X200787000Y-130175000D02*
X203200000Y-127762000D01*
X203200000Y-127762000D02*
X203200000Y-114935000D01*
X203200000Y-114935000D02*
X201883000Y-113618000D01*
X201883000Y-113618000D02*
X200152000Y-113618000D01*
X191242000Y-102870000D02*
X195580000Y-102870000D01*
D27*
X193040000Y-93980000D02*
X195580000Y-93980000D01*
X193040000Y-92710000D02*
X195580000Y-92710000D01*
X195453000Y-92837000D02*
X195580000Y-92837000D01*
X195580000Y-92710000D02*
X195453000Y-92837000D01*
X193040000Y-91440000D02*
X193040000Y-90170000D01*
X193040000Y-90170000D02*
X193040000Y-90424000D01*
X193040000Y-90424000D02*
X193040000Y-90170000D01*
D26*
X195580000Y-107315000D02*
X195580000Y-111506000D01*
X197739000Y-113665000D02*
X201930000Y-113665000D01*
X195580000Y-111506000D02*
X197739000Y-113665000D01*
X195580000Y-95250000D02*
X195580000Y-102870000D01*
X195580000Y-102870000D02*
X195580000Y-104775000D01*
X195580000Y-104775000D02*
X195580000Y-107315000D01*
X201930000Y-113665000D02*
X203200000Y-114935000D01*
X200787000Y-130175000D02*
X203200000Y-127762000D01*
X203200000Y-114935000D02*
X203200000Y-127762000D01*
D27*
X193040000Y-95250000D02*
X195580000Y-95250000D01*
D26*
X188575000Y-90170000D02*
X193040000Y-90170000D01*
X193040000Y-90170000D02*
X194310000Y-90170000D01*
X194310000Y-90170000D02*
X195580000Y-91440000D01*
X195580000Y-91440000D02*
X195580000Y-92837000D01*
X195580000Y-92837000D02*
X195580000Y-93980000D01*
X195580000Y-93980000D02*
X195580000Y-95250000D01*
X184658000Y-104648000D02*
X184531000Y-104648000D01*
X181991000Y-107188000D02*
X181991000Y-113745000D01*
X184531000Y-104648000D02*
X181991000Y-107188000D01*
X188742000Y-102870000D02*
X186436000Y-102870000D01*
X186436000Y-102870000D02*
X184658000Y-104648000D01*
X193040000Y-113745000D02*
X193040000Y-117850000D01*
X193040000Y-117850000D02*
X196215000Y-121025000D01*
X177165000Y-113745000D02*
X180340000Y-113745000D01*
X180340000Y-113745000D02*
X181991000Y-113745000D01*
X181991000Y-113745000D02*
X183515000Y-113745000D01*
X183515000Y-113745000D02*
X186690000Y-113745000D01*
X186690000Y-113745000D02*
X189865000Y-113745000D01*
X189865000Y-113745000D02*
X193040000Y-113745000D01*
X196215000Y-130175000D02*
X196215000Y-135255000D01*
X196215000Y-130175000D02*
X196215000Y-121025000D01*
X193040000Y-117850000D02*
X196215000Y-121025000D01*
D27*
X177165000Y-111045000D02*
X177165000Y-108585000D01*
X179070000Y-106680000D02*
X179070000Y-98425000D01*
X177165000Y-108585000D02*
X179070000Y-106680000D01*
X182245000Y-90170000D02*
X186075000Y-90170000D01*
D26*
X228170740Y-142875000D02*
X231775000Y-142875000D01*
X231775000Y-142875000D02*
X233680000Y-144780000D01*
X206169260Y-142875000D02*
X215900000Y-142875000D01*
X215900000Y-142875000D02*
X226060000Y-132715000D01*
D27*
X222725000Y-106045000D02*
X222725000Y-106205000D01*
D26*
X222725000Y-106205000D02*
X218440000Y-110490000D01*
D27*
X222725000Y-92075000D02*
X222725000Y-92235000D01*
D26*
X222725000Y-92235000D02*
X219710000Y-95250000D01*
X214630000Y-106680000D02*
X218440000Y-110490000D01*
X214630000Y-97155000D02*
X214630000Y-106680000D01*
X216535000Y-95250000D02*
X214630000Y-97155000D01*
X219710000Y-95250000D02*
X216535000Y-95250000D01*
X218440000Y-110490000D02*
X222885000Y-114935000D01*
X222885000Y-129540000D02*
X226060000Y-132715000D01*
X222885000Y-114935000D02*
X222885000Y-129540000D01*
D27*
X182880000Y-94615000D02*
X177165000Y-94615000D01*
X184785000Y-92710000D02*
X182880000Y-94615000D01*
X181610000Y-97155000D02*
X177165000Y-97155000D01*
X184785000Y-93980000D02*
X181610000Y-97155000D01*
X186690000Y-111045000D02*
X186690000Y-109474000D01*
X186690000Y-109474000D02*
X188214000Y-109474000D01*
X186690000Y-107315000D02*
X186690000Y-111045000D01*
X189230000Y-104775000D02*
X186690000Y-107315000D01*
X183515000Y-111045000D02*
X183515000Y-109474000D01*
X183515000Y-109474000D02*
X185166000Y-109474000D01*
X183515000Y-108585000D02*
X183515000Y-111045000D01*
X187325000Y-104775000D02*
X183515000Y-108585000D01*
X189865000Y-111045000D02*
X189865000Y-109474000D01*
X189865000Y-109474000D02*
X191516000Y-109474000D01*
X189865000Y-106045000D02*
X189865000Y-111045000D01*
X191135000Y-104775000D02*
X189865000Y-106045000D01*
X193040000Y-111045000D02*
X193040000Y-109474000D01*
X193040000Y-109474000D02*
X194183000Y-109474000D01*
X193040000Y-104775000D02*
X193040000Y-111045000D01*
X180340000Y-111045000D02*
X180340000Y-100330000D01*
X200152000Y-104775000D02*
X200152000Y-103886000D01*
X191262000Y-96520000D02*
X193040000Y-96520000D01*
X197485000Y-94996000D02*
X196850000Y-94361000D01*
X197485000Y-101219000D02*
X197485000Y-94996000D01*
X200152000Y-103886000D02*
X197485000Y-101219000D01*
X200152000Y-110918000D02*
X200152000Y-104775000D01*
X193040000Y-97790000D02*
X185420000Y-97790000D01*
X185420000Y-97790000D02*
X184658000Y-98552000D01*
X193040000Y-100330000D02*
X186182000Y-100330000D01*
X186182000Y-100330000D02*
X185674000Y-100838000D01*
X193040000Y-99060000D02*
X185674000Y-99060000D01*
X184404000Y-100330000D02*
X184404000Y-102616000D01*
X185674000Y-99060000D02*
X184404000Y-100330000D01*
X199390000Y-100330000D02*
X200152000Y-100330000D01*
X202565000Y-102743000D02*
X202565000Y-106045000D01*
X200152000Y-100330000D02*
X202565000Y-102743000D01*
X199390000Y-97790000D02*
X200152000Y-97790000D01*
X202565000Y-95377000D02*
X202565000Y-92075000D01*
X200152000Y-97790000D02*
X202565000Y-95377000D01*
X199390000Y-96520000D02*
X200025000Y-96520000D01*
X200660000Y-86995000D02*
X202565000Y-85090000D01*
X200660000Y-95885000D02*
X200660000Y-86995000D01*
X200025000Y-96520000D02*
X200660000Y-95885000D01*
X199390000Y-99060000D02*
X202565000Y-99060000D01*
D26*
X233680000Y-113190000D02*
X238252000Y-113190000D01*
X238252000Y-113190000D02*
X238252000Y-113284000D01*
X233680000Y-91600000D02*
X233680000Y-91694000D01*
X233680000Y-91694000D02*
X238252000Y-96266000D01*
X238252000Y-96266000D02*
X238252000Y-113284000D01*
X238252000Y-113284000D02*
X238252000Y-130208000D01*
X238252000Y-130208000D02*
X233680000Y-134780000D01*
D27*
X233680000Y-113190000D02*
X233680000Y-113030000D01*
X226060000Y-121965000D02*
X226105000Y-121965000D01*
D26*
X226105000Y-121965000D02*
X229489000Y-125349000D01*
X229489000Y-130589000D02*
X233680000Y-134780000D01*
X229489000Y-125349000D02*
X229489000Y-130589000D01*
D27*
X227765000Y-99060000D02*
X227965000Y-99060000D01*
D26*
X227965000Y-99060000D02*
X230505000Y-101600000D01*
X230505000Y-115015000D02*
X233680000Y-118190000D01*
X230505000Y-101600000D02*
X230505000Y-115015000D01*
D27*
X217685000Y-99060000D02*
X217685000Y-99575000D01*
D26*
X217685000Y-99575000D02*
X220980000Y-102870000D01*
X225171000Y-114681000D02*
X233680000Y-123190000D01*
X225171000Y-104521000D02*
X225171000Y-114681000D01*
X223520000Y-102870000D02*
X225171000Y-104521000D01*
X220980000Y-102870000D02*
X223520000Y-102870000D01*
D27*
X233680000Y-96600000D02*
X233680000Y-96520000D01*
D26*
X233680000Y-96520000D02*
X230505000Y-93345000D01*
X230505000Y-87830000D02*
X227765000Y-85090000D01*
X230505000Y-93345000D02*
X230505000Y-87830000D01*
X233680000Y-101600000D02*
X233680000Y-101092000D01*
X233680000Y-101092000D02*
X228600000Y-96012000D01*
X228600000Y-96012000D02*
X227330000Y-96012000D01*
X227330000Y-96012000D02*
X225298000Y-93980000D01*
X225298000Y-93980000D02*
X225298000Y-90932000D01*
X225298000Y-90932000D02*
X221488000Y-87122000D01*
X221488000Y-87122000D02*
X219717000Y-87122000D01*
X219717000Y-87122000D02*
X217685000Y-85090000D01*
D27*
X217685000Y-85090000D02*
X217805000Y-85090000D01*
D26*
X227765000Y-106045000D02*
X227765000Y-104100000D01*
X227765000Y-104100000D02*
X222725000Y-99060000D01*
X227765000Y-92075000D02*
X227765000Y-90130000D01*
X227765000Y-90130000D02*
X222725000Y-85090000D01*
M02*
