G04 #@! TF.FileFunction,Copper,L1,Top,Signal*
%FSLAX46Y46*%
G04 Gerber Fmt 4.6, Leading zero omitted, Abs format (unit mm)*
G04 Created by KiCad (PCBNEW 4.0.2+e4-6225~38~ubuntu14.04.1-stable) date Wed 27 Jul 2016 09:26:18 PM CEST*
%MOMM*%
G01*
G04 APERTURE LIST*
%ADD10C,0.100000*%
%ADD11R,1.727200X1.727200*%
%ADD12O,1.727200X1.727200*%
%ADD13O,4.000500X2.499360*%
%ADD14R,2.032000X1.727200*%
%ADD15O,2.032000X1.727200*%
%ADD16O,1.100000X2.400000*%
%ADD17R,2.400000X1.100000*%
%ADD18O,2.400000X1.100000*%
%ADD19C,3.000000*%
%ADD20C,2.300000*%
%ADD21C,2.000000*%
%ADD22R,4.000500X1.600200*%
%ADD23R,1.600200X2.600960*%
%ADD24C,0.600000*%
%ADD25C,1.000000*%
%ADD26C,0.250000*%
G04 APERTURE END LIST*
D10*
D11*
X112268000Y-100330000D03*
D12*
X114681000Y-100330000D03*
X112141000Y-102870000D03*
X114681000Y-102870000D03*
X112141000Y-105410000D03*
X114681000Y-105410000D03*
X112141000Y-107950000D03*
X114681000Y-107950000D03*
D13*
X163781740Y-122809000D03*
X141780260Y-122809000D03*
D14*
X112268000Y-72771000D03*
D15*
X112268000Y-75311000D03*
X112268000Y-77851000D03*
X112268000Y-80391000D03*
X112268000Y-82931000D03*
X112268000Y-85471000D03*
D16*
X120338000Y-87886000D03*
X122338000Y-87886000D03*
X124338000Y-87886000D03*
X126338000Y-87886000D03*
X128338000Y-87886000D03*
X130338000Y-87886000D03*
D17*
X117348000Y-72136000D03*
D18*
X117348000Y-74136000D03*
X117348000Y-76136000D03*
X117348000Y-78136000D03*
X117348000Y-80136000D03*
X117348000Y-82136000D03*
X117348000Y-84136000D03*
X117348000Y-86136000D03*
X133348000Y-86136000D03*
X133348000Y-84136000D03*
X133348000Y-82136000D03*
X133348000Y-80136000D03*
X133348000Y-78136000D03*
X133348000Y-76136000D03*
X133348000Y-74136000D03*
X133348000Y-72136000D03*
D19*
X173230000Y-110476000D03*
X173230000Y-115476000D03*
X173230000Y-120476000D03*
X173230000Y-125476000D03*
X173230000Y-88886000D03*
X173230000Y-93886000D03*
X173230000Y-98886000D03*
X173230000Y-103886000D03*
X173230000Y-67296000D03*
X173230000Y-72296000D03*
X173230000Y-77296000D03*
X173230000Y-82296000D03*
X122663000Y-102661000D03*
X161163000Y-102661000D03*
X122663000Y-113411000D03*
X161163000Y-113411000D03*
D20*
X162868000Y-86741000D03*
X157828000Y-86741000D03*
X152788000Y-86741000D03*
D21*
X141448000Y-86741000D03*
X137668000Y-86741000D03*
D20*
X162868000Y-79756000D03*
X157828000Y-79756000D03*
X152788000Y-79756000D03*
D21*
X141448000Y-79756000D03*
X137668000Y-79756000D03*
D20*
X162868000Y-72771000D03*
X157828000Y-72771000D03*
X152788000Y-72771000D03*
D21*
X141448000Y-72771000D03*
X137668000Y-72771000D03*
D20*
X162868000Y-65786000D03*
X157828000Y-65786000D03*
X152788000Y-65786000D03*
D21*
X141448000Y-65786000D03*
X137668000Y-65786000D03*
D22*
X118493540Y-121666000D03*
X112392460Y-121666000D03*
D23*
X131318000Y-119103140D03*
X131318000Y-122704860D03*
D24*
X128778000Y-115316000D03*
X133858000Y-120904000D03*
X131064000Y-84963000D03*
X131318000Y-115316000D03*
X120396000Y-84709000D03*
X114173000Y-79121000D03*
X117348000Y-70866000D03*
X119888000Y-73406000D03*
X119888000Y-74676000D03*
X123317000Y-86233000D03*
X123317000Y-90170000D03*
X121412000Y-86233000D03*
X120269000Y-90170000D03*
X125349000Y-90170000D03*
X125349000Y-86233000D03*
X127254000Y-90170000D03*
X127254000Y-86233000D03*
X115443000Y-81026000D03*
X126365000Y-77216000D03*
X131953000Y-75057000D03*
X135255000Y-85471000D03*
X119761000Y-79248000D03*
X120777000Y-81534000D03*
X119507000Y-83312000D03*
D25*
X122428000Y-121666000D02*
X118493540Y-121666000D01*
X128778000Y-115316000D02*
X122428000Y-121666000D01*
X122663000Y-102661000D02*
X125528000Y-102661000D01*
X125528000Y-102661000D02*
X141448000Y-86741000D01*
X133858000Y-120904000D02*
X133858000Y-121920000D01*
X133858000Y-121920000D02*
X133073140Y-122704860D01*
X133073140Y-122704860D02*
X131318000Y-122704860D01*
X112392460Y-121666000D02*
X112392460Y-119509540D01*
X118491000Y-113411000D02*
X122663000Y-113411000D01*
X112392460Y-119509540D02*
X118491000Y-113411000D01*
X133348000Y-86136000D02*
X132237000Y-86136000D01*
X132237000Y-86136000D02*
X131064000Y-84963000D01*
X112268000Y-85471000D02*
X112268000Y-100330000D01*
D26*
X122663000Y-113411000D02*
X122663000Y-113646000D01*
D25*
X131318000Y-115316000D02*
X131318000Y-119103140D01*
X117348000Y-86136000D02*
X118969000Y-86136000D01*
X118969000Y-86136000D02*
X120396000Y-84709000D01*
D26*
X115443000Y-72136000D02*
X117348000Y-72136000D01*
X114173000Y-73406000D02*
X115443000Y-72136000D01*
X114173000Y-79121000D02*
X114173000Y-73406000D01*
X117348000Y-72136000D02*
X117348000Y-70866000D01*
X133348000Y-72136000D02*
X121158000Y-72136000D01*
X121158000Y-72136000D02*
X119888000Y-73406000D01*
X133348000Y-74136000D02*
X120428000Y-74136000D01*
X120428000Y-74136000D02*
X119888000Y-74676000D01*
X133348000Y-78136000D02*
X131857000Y-78136000D01*
X123760000Y-86233000D02*
X123317000Y-86233000D01*
X131857000Y-78136000D02*
X123760000Y-86233000D01*
X116967000Y-100584000D02*
X114681000Y-102870000D01*
X116967000Y-96520000D02*
X116967000Y-100584000D01*
X123317000Y-90170000D02*
X116967000Y-96520000D01*
X133348000Y-76136000D02*
X131890000Y-76136000D01*
X122936000Y-84709000D02*
X121412000Y-86233000D01*
X123317000Y-84709000D02*
X122936000Y-84709000D01*
X131890000Y-76136000D02*
X123317000Y-84709000D01*
X114681000Y-95758000D02*
X114681000Y-100330000D01*
X120269000Y-90170000D02*
X114681000Y-95758000D01*
X125349000Y-90170000D02*
X123317000Y-92202000D01*
X118237000Y-101854000D02*
X114681000Y-105410000D01*
X118237000Y-97917000D02*
X118237000Y-101854000D01*
X123317000Y-92837000D02*
X118237000Y-97917000D01*
X123317000Y-92202000D02*
X123317000Y-92837000D01*
X131954000Y-80136000D02*
X131953000Y-80137000D01*
X131953000Y-80137000D02*
X131445000Y-80137000D01*
X131445000Y-80137000D02*
X125349000Y-86233000D01*
X133348000Y-80136000D02*
X131954000Y-80136000D01*
X133348000Y-82136000D02*
X131478000Y-82136000D01*
X125349000Y-92075000D02*
X125349000Y-94107000D01*
X127254000Y-90170000D02*
X125349000Y-92075000D01*
X127381000Y-86233000D02*
X127254000Y-86233000D01*
X131478000Y-82136000D02*
X127381000Y-86233000D01*
X119507000Y-103124000D02*
X114681000Y-107950000D01*
X119507000Y-99949000D02*
X119507000Y-103124000D01*
X125349000Y-94107000D02*
X119507000Y-99949000D01*
X115888000Y-76136000D02*
X117348000Y-76136000D01*
X115443000Y-76581000D02*
X115888000Y-76136000D01*
X115443000Y-77216000D02*
X115443000Y-76581000D01*
X115443000Y-81026000D02*
X115443000Y-77216000D01*
X129794000Y-77216000D02*
X126365000Y-77216000D01*
X131953000Y-75057000D02*
X129794000Y-77216000D01*
X134809000Y-84136000D02*
X133348000Y-84136000D01*
X135255000Y-84582000D02*
X134809000Y-84136000D01*
X135255000Y-85471000D02*
X135255000Y-84582000D01*
X118873000Y-80136000D02*
X117348000Y-80136000D01*
X119761000Y-79248000D02*
X118873000Y-80136000D01*
X120175000Y-82136000D02*
X117348000Y-82136000D01*
X120777000Y-81534000D02*
X120175000Y-82136000D01*
X118683000Y-84136000D02*
X117348000Y-84136000D01*
X119507000Y-83312000D02*
X118683000Y-84136000D01*
D25*
X173230000Y-88886000D02*
X179959000Y-88886000D01*
X179959000Y-88886000D02*
X179959000Y-88900000D01*
X173230000Y-67296000D02*
X173230000Y-67312000D01*
X173230000Y-67312000D02*
X179959000Y-74041000D01*
X179959000Y-74041000D02*
X179959000Y-88900000D01*
X179959000Y-88900000D02*
X179959000Y-103747000D01*
X179959000Y-103747000D02*
X173230000Y-110476000D01*
M02*
