G04 #@! TF.FileFunction,Copper,L1,Top,Signal*
%FSLAX46Y46*%
G04 Gerber Fmt 4.6, Leading zero omitted, Abs format (unit mm)*
G04 Created by KiCad (PCBNEW 4.0.2+e4-6225~38~ubuntu14.04.1-stable) date Thu 21 Jul 2016 05:34:04 PM CEST*
%MOMM*%
G01*
G04 APERTURE LIST*
%ADD10C,0.100000*%
%ADD11R,1.600200X2.999740*%
%ADD12O,4.000500X2.499360*%
%ADD13R,2.032000X1.727200*%
%ADD14O,2.032000X1.727200*%
%ADD15O,1.100000X2.400000*%
%ADD16R,2.400000X1.100000*%
%ADD17O,2.400000X1.100000*%
%ADD18C,3.000000*%
%ADD19C,2.300000*%
%ADD20C,2.000000*%
%ADD21R,1.727200X1.727200*%
%ADD22O,1.727200X1.727200*%
%ADD23C,0.600000*%
%ADD24C,1.000000*%
%ADD25C,0.500000*%
%ADD26C,0.250000*%
G04 APERTURE END LIST*
D10*
D11*
X186690000Y-140040360D03*
X186690000Y-144439640D03*
X196215000Y-140040360D03*
X196215000Y-144439640D03*
D12*
X228170740Y-142875000D03*
X206169260Y-142875000D03*
D13*
X177165000Y-92075000D03*
D14*
X177165000Y-94615000D03*
X177165000Y-97155000D03*
X177165000Y-99695000D03*
X177165000Y-102235000D03*
X177165000Y-104775000D03*
D15*
X185235000Y-107190000D03*
X187235000Y-107190000D03*
X189235000Y-107190000D03*
X191235000Y-107190000D03*
X193235000Y-107190000D03*
X195235000Y-107190000D03*
D16*
X182245000Y-91440000D03*
D17*
X182245000Y-93440000D03*
X182245000Y-95440000D03*
X182245000Y-97440000D03*
X182245000Y-99440000D03*
X182245000Y-101440000D03*
X182245000Y-103440000D03*
X182245000Y-105440000D03*
X198245000Y-105440000D03*
X198245000Y-103440000D03*
X198245000Y-101440000D03*
X198245000Y-99440000D03*
X198245000Y-97440000D03*
X198245000Y-95440000D03*
X198245000Y-93440000D03*
X198245000Y-91440000D03*
D18*
X233680000Y-129780000D03*
X233680000Y-134780000D03*
X233680000Y-139780000D03*
X233680000Y-144780000D03*
X233680000Y-108190000D03*
X233680000Y-113190000D03*
X233680000Y-118190000D03*
X233680000Y-123190000D03*
X233680000Y-86600000D03*
X233680000Y-91600000D03*
X233680000Y-96600000D03*
X233680000Y-101600000D03*
X187560000Y-121965000D03*
X226060000Y-121965000D03*
X187560000Y-132715000D03*
X226060000Y-132715000D03*
D19*
X227765000Y-106045000D03*
X222725000Y-106045000D03*
X217685000Y-106045000D03*
D20*
X206345000Y-106045000D03*
X202565000Y-106045000D03*
D19*
X227765000Y-99060000D03*
X222725000Y-99060000D03*
X217685000Y-99060000D03*
D20*
X206345000Y-99060000D03*
X202565000Y-99060000D03*
D19*
X227765000Y-92075000D03*
X222725000Y-92075000D03*
X217685000Y-92075000D03*
D20*
X206345000Y-92075000D03*
X202565000Y-92075000D03*
D19*
X227765000Y-85090000D03*
X222725000Y-85090000D03*
X217685000Y-85090000D03*
D20*
X206345000Y-85090000D03*
X202565000Y-85090000D03*
D21*
X177165000Y-119634000D03*
D22*
X179578000Y-119634000D03*
X177038000Y-122174000D03*
X179578000Y-122174000D03*
X177038000Y-124714000D03*
X179578000Y-124714000D03*
X177038000Y-127254000D03*
X179578000Y-127254000D03*
D23*
X206375000Y-89535000D03*
X199390000Y-89535000D03*
X190500000Y-139065000D03*
X192405000Y-144399000D03*
X195580000Y-104775000D03*
X184658000Y-104648000D03*
X196215000Y-135255000D03*
X179070000Y-98425000D03*
X182245000Y-90170000D03*
X184785000Y-92710000D03*
X184785000Y-93980000D03*
X188214000Y-109474000D03*
X189230000Y-104775000D03*
X185166000Y-109474000D03*
X187325000Y-104775000D03*
X191516000Y-109474000D03*
X191135000Y-104775000D03*
X194183000Y-109474000D03*
X193040000Y-104775000D03*
X180340000Y-100330000D03*
X191262000Y-96520000D03*
X196850000Y-94361000D03*
X200152000Y-104775000D03*
X184658000Y-98552000D03*
X185674000Y-100838000D03*
X184404000Y-102616000D03*
D24*
X187560000Y-121965000D02*
X190425000Y-121965000D01*
X190425000Y-121965000D02*
X206345000Y-106045000D01*
D25*
X199390000Y-89535000D02*
X206375000Y-89535000D01*
D24*
X189524640Y-140040360D02*
X186690000Y-140040360D01*
X190500000Y-139065000D02*
X189524640Y-140040360D01*
X177165000Y-104775000D02*
X177165000Y-119634000D01*
X192405000Y-144399000D02*
X192405000Y-144439640D01*
X198245000Y-105440000D02*
X196245000Y-105440000D01*
X196245000Y-105440000D02*
X195580000Y-104775000D01*
X187560000Y-132715000D02*
X187960000Y-132715000D01*
X187960000Y-132715000D02*
X192405000Y-137160000D01*
X192405000Y-137160000D02*
X192405000Y-144439640D01*
X186690000Y-144439640D02*
X192405000Y-144439640D01*
X192405000Y-144439640D02*
X196215000Y-144439640D01*
D26*
X187560000Y-132715000D02*
X187560000Y-132950000D01*
D24*
X184658000Y-104648000D02*
X183866000Y-105440000D01*
X183866000Y-105440000D02*
X182245000Y-105440000D01*
X196215000Y-135255000D02*
X196215000Y-140040360D01*
D26*
X180340000Y-91440000D02*
X182245000Y-91440000D01*
X179070000Y-92710000D02*
X180340000Y-91440000D01*
X179070000Y-98425000D02*
X179070000Y-92710000D01*
X182245000Y-91440000D02*
X182245000Y-90170000D01*
X198245000Y-91440000D02*
X186055000Y-91440000D01*
X186055000Y-91440000D02*
X184785000Y-92710000D01*
X198245000Y-93440000D02*
X185325000Y-93440000D01*
X185325000Y-93440000D02*
X184785000Y-93980000D01*
X181864000Y-119888000D02*
X179578000Y-122174000D01*
X181864000Y-115824000D02*
X181864000Y-119888000D01*
X188214000Y-109474000D02*
X181864000Y-115824000D01*
X198245000Y-97440000D02*
X196565000Y-97440000D01*
X196565000Y-97440000D02*
X189230000Y-104775000D01*
X179578000Y-115062000D02*
X179578000Y-119634000D01*
X185166000Y-109474000D02*
X179578000Y-115062000D01*
X198245000Y-95440000D02*
X196660000Y-95440000D01*
X196660000Y-95440000D02*
X187325000Y-104775000D01*
X183134000Y-121158000D02*
X179578000Y-124714000D01*
X183134000Y-117856000D02*
X183134000Y-121158000D01*
X191516000Y-109474000D02*
X183134000Y-117856000D01*
X198245000Y-99440000D02*
X196470000Y-99440000D01*
X196470000Y-99440000D02*
X191135000Y-104775000D01*
X184404000Y-122428000D02*
X179578000Y-127254000D01*
X184404000Y-119253000D02*
X184404000Y-122428000D01*
X194183000Y-109474000D02*
X184404000Y-119253000D01*
X198245000Y-101440000D02*
X196375000Y-101440000D01*
X196375000Y-101440000D02*
X193040000Y-104775000D01*
X180785000Y-95440000D02*
X182245000Y-95440000D01*
X180340000Y-95885000D02*
X180785000Y-95440000D01*
X180340000Y-96520000D02*
X180340000Y-95885000D01*
X180340000Y-100330000D02*
X180340000Y-96520000D01*
X194691000Y-96520000D02*
X191262000Y-96520000D01*
X196850000Y-94361000D02*
X194691000Y-96520000D01*
X199706000Y-103440000D02*
X198245000Y-103440000D01*
X200152000Y-103886000D02*
X199706000Y-103440000D01*
X200152000Y-104775000D02*
X200152000Y-103886000D01*
X183770000Y-99440000D02*
X182245000Y-99440000D01*
X184658000Y-98552000D02*
X183770000Y-99440000D01*
X185072000Y-101440000D02*
X182245000Y-101440000D01*
X185674000Y-100838000D02*
X185072000Y-101440000D01*
X183580000Y-103440000D02*
X182245000Y-103440000D01*
X184404000Y-102616000D02*
X183580000Y-103440000D01*
D24*
X233680000Y-108190000D02*
X240030000Y-108190000D01*
X240030000Y-108190000D02*
X240030000Y-108204000D01*
X233680000Y-86600000D02*
X233680000Y-86614000D01*
X233680000Y-86614000D02*
X240030000Y-92964000D01*
X240030000Y-92964000D02*
X240030000Y-108204000D01*
X240030000Y-108204000D02*
X240030000Y-123430000D01*
X240030000Y-123430000D02*
X233680000Y-129780000D01*
M02*
