G04 #@! TF.FileFunction,Legend,Top*
%FSLAX46Y46*%
G04 Gerber Fmt 4.6, Leading zero omitted, Abs format (unit mm)*
G04 Created by KiCad (PCBNEW 4.0.2+e4-6225~38~ubuntu14.04.1-stable) date Wed 27 Jul 2016 09:26:18 PM CEST*
%MOMM*%
G01*
G04 APERTURE LIST*
%ADD10C,0.100000*%
%ADD11C,0.150000*%
%ADD12C,0.010000*%
G04 APERTURE END LIST*
D10*
D11*
X110871000Y-101600000D02*
X110871000Y-109220000D01*
X110871000Y-109220000D02*
X115951000Y-109220000D01*
X115951000Y-109220000D02*
X115951000Y-99060000D01*
X115951000Y-99060000D02*
X113411000Y-99060000D01*
X112141000Y-98780000D02*
X110591000Y-98780000D01*
X113411000Y-99060000D02*
X113411000Y-101600000D01*
X113411000Y-101600000D02*
X110871000Y-101600000D01*
X110591000Y-98780000D02*
X110591000Y-100330000D01*
X146781520Y-120309640D02*
X146781520Y-117807740D01*
X146781520Y-127810260D02*
X146781520Y-125308360D01*
X158780480Y-127810260D02*
X158780480Y-125308360D01*
X158780480Y-117807740D02*
X158780480Y-120309640D01*
X148280120Y-122809000D02*
X157281880Y-122809000D01*
X148280120Y-120309640D02*
X148280120Y-125308360D01*
X157281880Y-120309640D02*
X157281880Y-125308360D01*
X162780980Y-120909080D02*
X162780980Y-120309640D01*
X142781020Y-124708920D02*
X142781020Y-125308360D01*
X142781020Y-125308360D02*
X162780980Y-125308360D01*
X162780980Y-125308360D02*
X162780980Y-124708920D01*
X162780980Y-120309640D02*
X142781020Y-120309640D01*
X142781020Y-120309640D02*
X142781020Y-120909080D01*
X164779960Y-120909080D02*
X164779960Y-117807740D01*
X140782040Y-124708920D02*
X140782040Y-127810260D01*
X140782040Y-127810260D02*
X164779960Y-127810260D01*
X164779960Y-127810260D02*
X164779960Y-124708920D01*
X164779960Y-117807740D02*
X140782040Y-117807740D01*
X140782040Y-117807740D02*
X140782040Y-120909080D01*
X113538000Y-74041000D02*
X113538000Y-86741000D01*
X113538000Y-86741000D02*
X110998000Y-86741000D01*
X110998000Y-86741000D02*
X110998000Y-74041000D01*
X113818000Y-71221000D02*
X113818000Y-72771000D01*
X113538000Y-74041000D02*
X110998000Y-74041000D01*
X110718000Y-72771000D02*
X110718000Y-71221000D01*
X110718000Y-71221000D02*
X113818000Y-71221000D01*
X171230000Y-107376000D02*
X183230000Y-107376000D01*
X183230000Y-107376000D02*
X183230000Y-128576000D01*
X183230000Y-128576000D02*
X171230000Y-128576000D01*
X171230000Y-128576000D02*
X171230000Y-107376000D01*
X171230000Y-85786000D02*
X183230000Y-85786000D01*
X183230000Y-85786000D02*
X183230000Y-106986000D01*
X183230000Y-106986000D02*
X171230000Y-106986000D01*
X171230000Y-106986000D02*
X171230000Y-85786000D01*
X171230000Y-64196000D02*
X183230000Y-64196000D01*
X183230000Y-64196000D02*
X183230000Y-85396000D01*
X183230000Y-85396000D02*
X171230000Y-85396000D01*
X171230000Y-85396000D02*
X171230000Y-64196000D01*
X119063000Y-91461000D02*
X119063000Y-116861000D01*
X164763000Y-91461000D02*
X119063000Y-91461000D01*
X164763000Y-116861000D02*
X164763000Y-91461000D01*
X164763000Y-116861000D02*
X119063000Y-116861000D01*
X138320780Y-89291160D02*
X137673080Y-89291160D01*
X137673080Y-89291160D02*
X137673080Y-88341200D01*
X141472920Y-88341200D02*
X141472920Y-89291160D01*
X141472920Y-89291160D02*
X140571220Y-89291160D01*
X140571220Y-89291160D02*
X140571220Y-89941400D01*
X140571220Y-89941400D02*
X138346180Y-89941400D01*
X138346180Y-89941400D02*
X138346180Y-88414860D01*
X138346180Y-88414860D02*
X140571220Y-88414860D01*
X140571220Y-88414860D02*
X140571220Y-89341960D01*
X158668000Y-89341000D02*
X162868000Y-89341000D01*
X162868000Y-89341000D02*
X162868000Y-88541000D01*
X156321760Y-89364820D02*
X152788000Y-89364820D01*
X152788000Y-89341000D02*
X152788000Y-88541000D01*
X157828000Y-88441000D02*
X157828000Y-89041000D01*
X157828000Y-89041000D02*
X156668000Y-89741000D01*
X136621520Y-85541000D02*
X136672320Y-85541000D01*
X163822380Y-85541000D02*
X164622480Y-85541000D01*
X158871920Y-85541000D02*
X161472880Y-85541000D01*
X153771600Y-85541000D02*
X156471620Y-85541000D01*
X150622000Y-85541000D02*
X151422100Y-85541000D01*
X142521940Y-85541000D02*
X150622000Y-85541000D01*
X138772900Y-85541000D02*
X140223240Y-85541000D01*
X164622480Y-85541000D02*
X164622480Y-90541000D01*
X164622480Y-90541000D02*
X136621520Y-90541000D01*
X136621520Y-90541000D02*
X136621520Y-88041480D01*
X138320780Y-82306160D02*
X137673080Y-82306160D01*
X137673080Y-82306160D02*
X137673080Y-81356200D01*
X141472920Y-81356200D02*
X141472920Y-82306160D01*
X141472920Y-82306160D02*
X140571220Y-82306160D01*
X140571220Y-82306160D02*
X140571220Y-82956400D01*
X140571220Y-82956400D02*
X138346180Y-82956400D01*
X138346180Y-82956400D02*
X138346180Y-81429860D01*
X138346180Y-81429860D02*
X140571220Y-81429860D01*
X140571220Y-81429860D02*
X140571220Y-82356960D01*
X158668000Y-82356000D02*
X162868000Y-82356000D01*
X162868000Y-82356000D02*
X162868000Y-81556000D01*
X156321760Y-82379820D02*
X152788000Y-82379820D01*
X152788000Y-82356000D02*
X152788000Y-81556000D01*
X157828000Y-81456000D02*
X157828000Y-82056000D01*
X157828000Y-82056000D02*
X156668000Y-82756000D01*
X136621520Y-78556000D02*
X136672320Y-78556000D01*
X163822380Y-78556000D02*
X164622480Y-78556000D01*
X158871920Y-78556000D02*
X161472880Y-78556000D01*
X153771600Y-78556000D02*
X156471620Y-78556000D01*
X150622000Y-78556000D02*
X151422100Y-78556000D01*
X142521940Y-78556000D02*
X150622000Y-78556000D01*
X138772900Y-78556000D02*
X140223240Y-78556000D01*
X164622480Y-78556000D02*
X164622480Y-83556000D01*
X164622480Y-83556000D02*
X136621520Y-83556000D01*
X136621520Y-83556000D02*
X136621520Y-81056480D01*
X138320780Y-75321160D02*
X137673080Y-75321160D01*
X137673080Y-75321160D02*
X137673080Y-74371200D01*
X141472920Y-74371200D02*
X141472920Y-75321160D01*
X141472920Y-75321160D02*
X140571220Y-75321160D01*
X140571220Y-75321160D02*
X140571220Y-75971400D01*
X140571220Y-75971400D02*
X138346180Y-75971400D01*
X138346180Y-75971400D02*
X138346180Y-74444860D01*
X138346180Y-74444860D02*
X140571220Y-74444860D01*
X140571220Y-74444860D02*
X140571220Y-75371960D01*
X158668000Y-75371000D02*
X162868000Y-75371000D01*
X162868000Y-75371000D02*
X162868000Y-74571000D01*
X156321760Y-75394820D02*
X152788000Y-75394820D01*
X152788000Y-75371000D02*
X152788000Y-74571000D01*
X157828000Y-74471000D02*
X157828000Y-75071000D01*
X157828000Y-75071000D02*
X156668000Y-75771000D01*
X136621520Y-71571000D02*
X136672320Y-71571000D01*
X163822380Y-71571000D02*
X164622480Y-71571000D01*
X158871920Y-71571000D02*
X161472880Y-71571000D01*
X153771600Y-71571000D02*
X156471620Y-71571000D01*
X150622000Y-71571000D02*
X151422100Y-71571000D01*
X142521940Y-71571000D02*
X150622000Y-71571000D01*
X138772900Y-71571000D02*
X140223240Y-71571000D01*
X164622480Y-71571000D02*
X164622480Y-76571000D01*
X164622480Y-76571000D02*
X136621520Y-76571000D01*
X136621520Y-76571000D02*
X136621520Y-74071480D01*
X138320780Y-68336160D02*
X137673080Y-68336160D01*
X137673080Y-68336160D02*
X137673080Y-67386200D01*
X141472920Y-67386200D02*
X141472920Y-68336160D01*
X141472920Y-68336160D02*
X140571220Y-68336160D01*
X140571220Y-68336160D02*
X140571220Y-68986400D01*
X140571220Y-68986400D02*
X138346180Y-68986400D01*
X138346180Y-68986400D02*
X138346180Y-67459860D01*
X138346180Y-67459860D02*
X140571220Y-67459860D01*
X140571220Y-67459860D02*
X140571220Y-68386960D01*
X158668000Y-68386000D02*
X162868000Y-68386000D01*
X162868000Y-68386000D02*
X162868000Y-67586000D01*
X156321760Y-68409820D02*
X152788000Y-68409820D01*
X152788000Y-68386000D02*
X152788000Y-67586000D01*
X157828000Y-67486000D02*
X157828000Y-68086000D01*
X157828000Y-68086000D02*
X156668000Y-68786000D01*
X136621520Y-64586000D02*
X136672320Y-64586000D01*
X163822380Y-64586000D02*
X164622480Y-64586000D01*
X158871920Y-64586000D02*
X161472880Y-64586000D01*
X153771600Y-64586000D02*
X156471620Y-64586000D01*
X150622000Y-64586000D02*
X151422100Y-64586000D01*
X142521940Y-64586000D02*
X150622000Y-64586000D01*
X138772900Y-64586000D02*
X140223240Y-64586000D01*
X164622480Y-64586000D02*
X164622480Y-69586000D01*
X164622480Y-69586000D02*
X136621520Y-69586000D01*
X136621520Y-69586000D02*
X136621520Y-67086480D01*
D12*
G36*
X134323667Y-104097667D02*
X133223000Y-104097667D01*
X133223000Y-105325333D01*
X134323667Y-105325333D01*
X134323667Y-105579333D01*
X132969000Y-105579333D01*
X132969000Y-103843667D01*
X134323667Y-103843667D01*
X134323667Y-104097667D01*
X134323667Y-104097667D01*
G37*
X134323667Y-104097667D02*
X133223000Y-104097667D01*
X133223000Y-105325333D01*
X134323667Y-105325333D01*
X134323667Y-105579333D01*
X132969000Y-105579333D01*
X132969000Y-103843667D01*
X134323667Y-103843667D01*
X134323667Y-104097667D01*
G36*
X134916334Y-105325333D02*
X136017000Y-105325333D01*
X136017000Y-105579333D01*
X134662334Y-105579333D01*
X134662334Y-103843667D01*
X134916334Y-103843667D01*
X134916334Y-105325333D01*
X134916334Y-105325333D01*
G37*
X134916334Y-105325333D02*
X136017000Y-105325333D01*
X136017000Y-105579333D01*
X134662334Y-105579333D01*
X134662334Y-103843667D01*
X134916334Y-103843667D01*
X134916334Y-105325333D01*
G36*
X137710334Y-104097667D02*
X136609667Y-104097667D01*
X136609667Y-105325333D01*
X137710334Y-105325333D01*
X137710334Y-105579333D01*
X136355667Y-105579333D01*
X136355667Y-103843667D01*
X137710334Y-103843667D01*
X137710334Y-104097667D01*
X137710334Y-104097667D01*
G37*
X137710334Y-104097667D02*
X136609667Y-104097667D01*
X136609667Y-105325333D01*
X137710334Y-105325333D01*
X137710334Y-105579333D01*
X136355667Y-105579333D01*
X136355667Y-103843667D01*
X137710334Y-103843667D01*
X137710334Y-104097667D01*
G36*
X138963459Y-103851598D02*
X139219061Y-103898730D01*
X139430434Y-104010249D01*
X139614306Y-104195455D01*
X139637834Y-104226474D01*
X139741733Y-104367301D01*
X139628018Y-104441897D01*
X139549158Y-104488015D01*
X139501642Y-104481410D01*
X139451427Y-104413018D01*
X139438206Y-104391359D01*
X139297337Y-104233942D01*
X139114045Y-104135186D01*
X138909911Y-104100540D01*
X138706519Y-104135455D01*
X138609530Y-104182104D01*
X138442254Y-104327720D01*
X138341315Y-104508535D01*
X138306713Y-104707138D01*
X138338446Y-104906118D01*
X138436517Y-105088063D01*
X138600923Y-105235561D01*
X138609530Y-105240895D01*
X138799883Y-105310625D01*
X139006274Y-105310063D01*
X139205463Y-105243919D01*
X139374207Y-105116905D01*
X139406447Y-105079351D01*
X139491590Y-104971108D01*
X139675174Y-105154692D01*
X139588999Y-105270115D01*
X139427412Y-105420575D01*
X139215742Y-105523340D01*
X138977290Y-105572951D01*
X138735352Y-105563946D01*
X138557302Y-105511897D01*
X138336645Y-105375654D01*
X138176192Y-105193797D01*
X138076224Y-104980525D01*
X138037023Y-104750037D01*
X138058869Y-104516532D01*
X138142043Y-104294210D01*
X138286827Y-104097269D01*
X138493500Y-103939908D01*
X138525856Y-103922625D01*
X138657633Y-103869280D01*
X138798169Y-103848207D01*
X138963459Y-103851598D01*
X138963459Y-103851598D01*
G37*
X138963459Y-103851598D02*
X139219061Y-103898730D01*
X139430434Y-104010249D01*
X139614306Y-104195455D01*
X139637834Y-104226474D01*
X139741733Y-104367301D01*
X139628018Y-104441897D01*
X139549158Y-104488015D01*
X139501642Y-104481410D01*
X139451427Y-104413018D01*
X139438206Y-104391359D01*
X139297337Y-104233942D01*
X139114045Y-104135186D01*
X138909911Y-104100540D01*
X138706519Y-104135455D01*
X138609530Y-104182104D01*
X138442254Y-104327720D01*
X138341315Y-104508535D01*
X138306713Y-104707138D01*
X138338446Y-104906118D01*
X138436517Y-105088063D01*
X138600923Y-105235561D01*
X138609530Y-105240895D01*
X138799883Y-105310625D01*
X139006274Y-105310063D01*
X139205463Y-105243919D01*
X139374207Y-105116905D01*
X139406447Y-105079351D01*
X139491590Y-104971108D01*
X139675174Y-105154692D01*
X139588999Y-105270115D01*
X139427412Y-105420575D01*
X139215742Y-105523340D01*
X138977290Y-105572951D01*
X138735352Y-105563946D01*
X138557302Y-105511897D01*
X138336645Y-105375654D01*
X138176192Y-105193797D01*
X138076224Y-104980525D01*
X138037023Y-104750037D01*
X138058869Y-104516532D01*
X138142043Y-104294210D01*
X138286827Y-104097269D01*
X138493500Y-103939908D01*
X138525856Y-103922625D01*
X138657633Y-103869280D01*
X138798169Y-103848207D01*
X138963459Y-103851598D01*
G36*
X141435667Y-104097667D02*
X140843000Y-104097667D01*
X140843000Y-105579333D01*
X140589000Y-105579333D01*
X140589000Y-104097667D01*
X139954000Y-104097667D01*
X139954000Y-103843667D01*
X141435667Y-103843667D01*
X141435667Y-104097667D01*
X141435667Y-104097667D01*
G37*
X141435667Y-104097667D02*
X140843000Y-104097667D01*
X140843000Y-105579333D01*
X140589000Y-105579333D01*
X140589000Y-104097667D01*
X139954000Y-104097667D01*
X139954000Y-103843667D01*
X141435667Y-103843667D01*
X141435667Y-104097667D01*
G36*
X142624656Y-103844274D02*
X142795444Y-103847634D01*
X142913001Y-103856054D01*
X142993044Y-103871840D01*
X143051288Y-103897300D01*
X143103453Y-103934740D01*
X143124514Y-103952221D01*
X143247157Y-104106066D01*
X143312965Y-104297622D01*
X143311859Y-104485122D01*
X143263713Y-104600978D01*
X143176714Y-104724708D01*
X143076193Y-104824689D01*
X143007621Y-104864918D01*
X142988846Y-104894553D01*
X143004357Y-104967448D01*
X143057545Y-105094246D01*
X143124511Y-105231737D01*
X143299278Y-105579333D01*
X143150993Y-105579333D01*
X143087818Y-105576745D01*
X143038039Y-105560656D01*
X142991417Y-105518583D01*
X142937717Y-105438040D01*
X142866702Y-105306544D01*
X142769167Y-105113667D01*
X142535626Y-104648000D01*
X142705313Y-104648000D01*
X142873225Y-104616577D01*
X142989385Y-104528850D01*
X143042312Y-104394632D01*
X143044334Y-104358228D01*
X143029924Y-104250293D01*
X142978882Y-104175681D01*
X142879489Y-104128982D01*
X142720026Y-104104783D01*
X142488774Y-104097672D01*
X142480083Y-104097667D01*
X142070667Y-104097667D01*
X142070667Y-105579333D01*
X141774334Y-105579333D01*
X141774334Y-103843667D01*
X142384919Y-103843667D01*
X142624656Y-103844274D01*
X142624656Y-103844274D01*
G37*
X142624656Y-103844274D02*
X142795444Y-103847634D01*
X142913001Y-103856054D01*
X142993044Y-103871840D01*
X143051288Y-103897300D01*
X143103453Y-103934740D01*
X143124514Y-103952221D01*
X143247157Y-104106066D01*
X143312965Y-104297622D01*
X143311859Y-104485122D01*
X143263713Y-104600978D01*
X143176714Y-104724708D01*
X143076193Y-104824689D01*
X143007621Y-104864918D01*
X142988846Y-104894553D01*
X143004357Y-104967448D01*
X143057545Y-105094246D01*
X143124511Y-105231737D01*
X143299278Y-105579333D01*
X143150993Y-105579333D01*
X143087818Y-105576745D01*
X143038039Y-105560656D01*
X142991417Y-105518583D01*
X142937717Y-105438040D01*
X142866702Y-105306544D01*
X142769167Y-105113667D01*
X142535626Y-104648000D01*
X142705313Y-104648000D01*
X142873225Y-104616577D01*
X142989385Y-104528850D01*
X143042312Y-104394632D01*
X143044334Y-104358228D01*
X143029924Y-104250293D01*
X142978882Y-104175681D01*
X142879489Y-104128982D01*
X142720026Y-104104783D01*
X142488774Y-104097672D01*
X142480083Y-104097667D01*
X142070667Y-104097667D01*
X142070667Y-105579333D01*
X141774334Y-105579333D01*
X141774334Y-103843667D01*
X142384919Y-103843667D01*
X142624656Y-103844274D01*
G36*
X147362334Y-105579333D02*
X146996142Y-105579333D01*
X146028834Y-104211723D01*
X146005570Y-105579333D01*
X145711334Y-105579333D01*
X145711334Y-103843667D01*
X145912417Y-103845118D01*
X146113500Y-103846570D01*
X146579167Y-104524307D01*
X147044834Y-105202045D01*
X147056465Y-104522856D01*
X147068097Y-103843667D01*
X147362334Y-103843667D01*
X147362334Y-105579333D01*
X147362334Y-105579333D01*
G37*
X147362334Y-105579333D02*
X146996142Y-105579333D01*
X146028834Y-104211723D01*
X146005570Y-105579333D01*
X145711334Y-105579333D01*
X145711334Y-103843667D01*
X145912417Y-103845118D01*
X146113500Y-103846570D01*
X146579167Y-104524307D01*
X147044834Y-105202045D01*
X147056465Y-104522856D01*
X147068097Y-103843667D01*
X147362334Y-103843667D01*
X147362334Y-105579333D01*
G36*
X147997334Y-105579333D02*
X147701000Y-105579333D01*
X147701000Y-103843667D01*
X147997334Y-103843667D01*
X147997334Y-105579333D01*
X147997334Y-105579333D01*
G37*
X147997334Y-105579333D02*
X147701000Y-105579333D01*
X147701000Y-103843667D01*
X147997334Y-103843667D01*
X147997334Y-105579333D01*
G36*
X149250459Y-103851598D02*
X149506061Y-103898730D01*
X149717434Y-104010249D01*
X149901306Y-104195455D01*
X149924834Y-104226474D01*
X150028733Y-104367301D01*
X149915018Y-104441897D01*
X149836158Y-104488015D01*
X149788642Y-104481410D01*
X149738427Y-104413018D01*
X149725206Y-104391359D01*
X149584337Y-104233942D01*
X149401045Y-104135186D01*
X149196911Y-104100540D01*
X148993519Y-104135455D01*
X148896530Y-104182104D01*
X148729254Y-104327720D01*
X148628315Y-104508535D01*
X148593713Y-104707138D01*
X148625446Y-104906118D01*
X148723517Y-105088063D01*
X148887923Y-105235561D01*
X148896530Y-105240895D01*
X149086883Y-105310625D01*
X149293274Y-105310063D01*
X149492463Y-105243919D01*
X149661207Y-105116905D01*
X149693447Y-105079351D01*
X149778590Y-104971108D01*
X149962174Y-105154692D01*
X149875999Y-105270115D01*
X149714412Y-105420575D01*
X149502742Y-105523340D01*
X149264290Y-105572951D01*
X149022352Y-105563946D01*
X148844302Y-105511897D01*
X148623645Y-105375654D01*
X148463192Y-105193797D01*
X148363224Y-104980525D01*
X148324023Y-104750037D01*
X148345869Y-104516532D01*
X148429043Y-104294210D01*
X148573827Y-104097269D01*
X148780500Y-103939908D01*
X148812856Y-103922625D01*
X148944633Y-103869280D01*
X149085169Y-103848207D01*
X149250459Y-103851598D01*
X149250459Y-103851598D01*
G37*
X149250459Y-103851598D02*
X149506061Y-103898730D01*
X149717434Y-104010249D01*
X149901306Y-104195455D01*
X149924834Y-104226474D01*
X150028733Y-104367301D01*
X149915018Y-104441897D01*
X149836158Y-104488015D01*
X149788642Y-104481410D01*
X149738427Y-104413018D01*
X149725206Y-104391359D01*
X149584337Y-104233942D01*
X149401045Y-104135186D01*
X149196911Y-104100540D01*
X148993519Y-104135455D01*
X148896530Y-104182104D01*
X148729254Y-104327720D01*
X148628315Y-104508535D01*
X148593713Y-104707138D01*
X148625446Y-104906118D01*
X148723517Y-105088063D01*
X148887923Y-105235561D01*
X148896530Y-105240895D01*
X149086883Y-105310625D01*
X149293274Y-105310063D01*
X149492463Y-105243919D01*
X149661207Y-105116905D01*
X149693447Y-105079351D01*
X149778590Y-104971108D01*
X149962174Y-105154692D01*
X149875999Y-105270115D01*
X149714412Y-105420575D01*
X149502742Y-105523340D01*
X149264290Y-105572951D01*
X149022352Y-105563946D01*
X148844302Y-105511897D01*
X148623645Y-105375654D01*
X148463192Y-105193797D01*
X148363224Y-104980525D01*
X148324023Y-104750037D01*
X148345869Y-104516532D01*
X148429043Y-104294210D01*
X148573827Y-104097269D01*
X148780500Y-103939908D01*
X148812856Y-103922625D01*
X148944633Y-103869280D01*
X149085169Y-103848207D01*
X149250459Y-103851598D01*
G36*
X151581293Y-104646146D02*
X151690249Y-104729194D01*
X151770651Y-104809877D01*
X151811977Y-104888009D01*
X151826919Y-104996945D01*
X151828500Y-105092500D01*
X151823401Y-105236503D01*
X151799642Y-105329406D01*
X151744529Y-105404564D01*
X151690249Y-105455806D01*
X151551998Y-105579333D01*
X150325667Y-105579333D01*
X150325667Y-105325333D01*
X150896191Y-105325333D01*
X151126073Y-105324722D01*
X151286211Y-105321306D01*
X151391527Y-105312710D01*
X151456942Y-105296560D01*
X151497377Y-105270482D01*
X151527754Y-105232101D01*
X151533123Y-105223982D01*
X151575296Y-105105353D01*
X151563545Y-104987145D01*
X151503979Y-104900011D01*
X151464458Y-104879497D01*
X151399251Y-104820917D01*
X151384000Y-104729814D01*
X151408013Y-104633668D01*
X151475869Y-104605774D01*
X151581293Y-104646146D01*
X151581293Y-104646146D01*
G37*
X151581293Y-104646146D02*
X151690249Y-104729194D01*
X151770651Y-104809877D01*
X151811977Y-104888009D01*
X151826919Y-104996945D01*
X151828500Y-105092500D01*
X151823401Y-105236503D01*
X151799642Y-105329406D01*
X151744529Y-105404564D01*
X151690249Y-105455806D01*
X151551998Y-105579333D01*
X150325667Y-105579333D01*
X150325667Y-105325333D01*
X150896191Y-105325333D01*
X151126073Y-105324722D01*
X151286211Y-105321306D01*
X151391527Y-105312710D01*
X151456942Y-105296560D01*
X151497377Y-105270482D01*
X151527754Y-105232101D01*
X151533123Y-105223982D01*
X151575296Y-105105353D01*
X151563545Y-104987145D01*
X151503979Y-104900011D01*
X151464458Y-104879497D01*
X151399251Y-104820917D01*
X151384000Y-104729814D01*
X151408013Y-104633668D01*
X151475869Y-104605774D01*
X151581293Y-104646146D01*
G36*
X144840315Y-103904986D02*
X145058358Y-104022299D01*
X145113090Y-104067937D01*
X145259171Y-104255890D01*
X145343531Y-104480995D01*
X145367012Y-104723889D01*
X145330456Y-104965205D01*
X145234703Y-105185580D01*
X145080594Y-105365647D01*
X145055861Y-105385434D01*
X144942136Y-105464878D01*
X144870953Y-105487539D01*
X144822503Y-105453913D01*
X144789203Y-105392125D01*
X144765794Y-105311890D01*
X144799549Y-105255493D01*
X144847928Y-105220491D01*
X145001024Y-105077059D01*
X145087688Y-104903380D01*
X145112680Y-104715031D01*
X145080763Y-104527592D01*
X144996697Y-104356639D01*
X144865245Y-104217750D01*
X144691166Y-104126503D01*
X144504834Y-104097983D01*
X144291924Y-104133801D01*
X144119828Y-104231151D01*
X143993477Y-104374877D01*
X143917801Y-104549826D01*
X143897733Y-104740842D01*
X143938203Y-104932769D01*
X144044143Y-105110453D01*
X144144202Y-105206298D01*
X144224703Y-105275350D01*
X144245818Y-105324910D01*
X144217035Y-105384730D01*
X144206140Y-105400522D01*
X144146271Y-105471320D01*
X144088682Y-105486273D01*
X144009991Y-105443917D01*
X143934725Y-105383508D01*
X143771450Y-105194572D01*
X143671417Y-104967819D01*
X143635142Y-104721790D01*
X143663143Y-104475023D01*
X143755937Y-104246057D01*
X143898041Y-104067937D01*
X144101907Y-103932369D01*
X144340980Y-103860021D01*
X144594153Y-103850893D01*
X144840315Y-103904986D01*
X144840315Y-103904986D01*
G37*
X144840315Y-103904986D02*
X145058358Y-104022299D01*
X145113090Y-104067937D01*
X145259171Y-104255890D01*
X145343531Y-104480995D01*
X145367012Y-104723889D01*
X145330456Y-104965205D01*
X145234703Y-105185580D01*
X145080594Y-105365647D01*
X145055861Y-105385434D01*
X144942136Y-105464878D01*
X144870953Y-105487539D01*
X144822503Y-105453913D01*
X144789203Y-105392125D01*
X144765794Y-105311890D01*
X144799549Y-105255493D01*
X144847928Y-105220491D01*
X145001024Y-105077059D01*
X145087688Y-104903380D01*
X145112680Y-104715031D01*
X145080763Y-104527592D01*
X144996697Y-104356639D01*
X144865245Y-104217750D01*
X144691166Y-104126503D01*
X144504834Y-104097983D01*
X144291924Y-104133801D01*
X144119828Y-104231151D01*
X143993477Y-104374877D01*
X143917801Y-104549826D01*
X143897733Y-104740842D01*
X143938203Y-104932769D01*
X144044143Y-105110453D01*
X144144202Y-105206298D01*
X144224703Y-105275350D01*
X144245818Y-105324910D01*
X144217035Y-105384730D01*
X144206140Y-105400522D01*
X144146271Y-105471320D01*
X144088682Y-105486273D01*
X144009991Y-105443917D01*
X143934725Y-105383508D01*
X143771450Y-105194572D01*
X143671417Y-104967819D01*
X143635142Y-104721790D01*
X143663143Y-104475023D01*
X143755937Y-104246057D01*
X143898041Y-104067937D01*
X144101907Y-103932369D01*
X144340980Y-103860021D01*
X144594153Y-103850893D01*
X144840315Y-103904986D01*
G36*
X134050112Y-104648644D02*
X134173016Y-104653152D01*
X134242169Y-104665390D01*
X134273028Y-104689221D01*
X134281053Y-104728510D01*
X134281334Y-104753833D01*
X134278757Y-104801861D01*
X134260723Y-104832587D01*
X134211773Y-104849875D01*
X134116449Y-104857590D01*
X133959293Y-104859596D01*
X133858000Y-104859667D01*
X133665888Y-104859022D01*
X133542984Y-104854514D01*
X133473832Y-104842276D01*
X133442972Y-104818445D01*
X133434947Y-104779156D01*
X133434667Y-104753833D01*
X133437243Y-104705805D01*
X133455277Y-104675079D01*
X133504228Y-104657791D01*
X133599552Y-104650076D01*
X133756707Y-104648070D01*
X133858000Y-104648000D01*
X134050112Y-104648644D01*
X134050112Y-104648644D01*
G37*
X134050112Y-104648644D02*
X134173016Y-104653152D01*
X134242169Y-104665390D01*
X134273028Y-104689221D01*
X134281053Y-104728510D01*
X134281334Y-104753833D01*
X134278757Y-104801861D01*
X134260723Y-104832587D01*
X134211773Y-104849875D01*
X134116449Y-104857590D01*
X133959293Y-104859596D01*
X133858000Y-104859667D01*
X133665888Y-104859022D01*
X133542984Y-104854514D01*
X133473832Y-104842276D01*
X133442972Y-104818445D01*
X133434947Y-104779156D01*
X133434667Y-104753833D01*
X133437243Y-104705805D01*
X133455277Y-104675079D01*
X133504228Y-104657791D01*
X133599552Y-104650076D01*
X133756707Y-104648070D01*
X133858000Y-104648000D01*
X134050112Y-104648644D01*
G36*
X137436779Y-104648644D02*
X137559683Y-104653152D01*
X137628835Y-104665390D01*
X137659695Y-104689221D01*
X137667720Y-104728510D01*
X137668000Y-104753833D01*
X137665424Y-104801861D01*
X137647390Y-104832587D01*
X137598439Y-104849875D01*
X137503115Y-104857590D01*
X137345960Y-104859596D01*
X137244667Y-104859667D01*
X137052555Y-104859022D01*
X136929651Y-104854514D01*
X136860498Y-104842276D01*
X136829639Y-104818445D01*
X136821614Y-104779156D01*
X136821334Y-104753833D01*
X136823910Y-104705805D01*
X136841944Y-104675079D01*
X136890894Y-104657791D01*
X136986218Y-104650076D01*
X137143374Y-104648070D01*
X137244667Y-104648000D01*
X137436779Y-104648644D01*
X137436779Y-104648644D01*
G37*
X137436779Y-104648644D02*
X137559683Y-104653152D01*
X137628835Y-104665390D01*
X137659695Y-104689221D01*
X137667720Y-104728510D01*
X137668000Y-104753833D01*
X137665424Y-104801861D01*
X137647390Y-104832587D01*
X137598439Y-104849875D01*
X137503115Y-104857590D01*
X137345960Y-104859596D01*
X137244667Y-104859667D01*
X137052555Y-104859022D01*
X136929651Y-104854514D01*
X136860498Y-104842276D01*
X136829639Y-104818445D01*
X136821614Y-104779156D01*
X136821334Y-104753833D01*
X136823910Y-104705805D01*
X136841944Y-104675079D01*
X136890894Y-104657791D01*
X136986218Y-104650076D01*
X137143374Y-104648070D01*
X137244667Y-104648000D01*
X137436779Y-104648644D01*
G36*
X151807334Y-104097667D02*
X151263561Y-104097667D01*
X151034539Y-104099071D01*
X150874895Y-104104569D01*
X150769368Y-104116083D01*
X150702696Y-104135540D01*
X150659620Y-104164864D01*
X150649728Y-104175083D01*
X150594478Y-104264582D01*
X150579667Y-104326033D01*
X150602961Y-104436906D01*
X150659545Y-104526548D01*
X150729323Y-104563333D01*
X150778183Y-104601388D01*
X150791334Y-104690333D01*
X150767501Y-104787993D01*
X150701214Y-104817935D01*
X150600283Y-104780571D01*
X150472523Y-104676312D01*
X150469600Y-104673400D01*
X150375152Y-104562829D01*
X150333397Y-104457693D01*
X150325667Y-104351848D01*
X150355530Y-104157734D01*
X150437310Y-103997487D01*
X150559292Y-103893502D01*
X150567489Y-103889607D01*
X150648030Y-103871994D01*
X150794758Y-103857630D01*
X150989211Y-103847779D01*
X151212934Y-103843707D01*
X151237825Y-103843667D01*
X151807334Y-103843667D01*
X151807334Y-104097667D01*
X151807334Y-104097667D01*
G37*
X151807334Y-104097667D02*
X151263561Y-104097667D01*
X151034539Y-104099071D01*
X150874895Y-104104569D01*
X150769368Y-104116083D01*
X150702696Y-104135540D01*
X150659620Y-104164864D01*
X150649728Y-104175083D01*
X150594478Y-104264582D01*
X150579667Y-104326033D01*
X150602961Y-104436906D01*
X150659545Y-104526548D01*
X150729323Y-104563333D01*
X150778183Y-104601388D01*
X150791334Y-104690333D01*
X150767501Y-104787993D01*
X150701214Y-104817935D01*
X150600283Y-104780571D01*
X150472523Y-104676312D01*
X150469600Y-104673400D01*
X150375152Y-104562829D01*
X150333397Y-104457693D01*
X150325667Y-104351848D01*
X150355530Y-104157734D01*
X150437310Y-103997487D01*
X150559292Y-103893502D01*
X150567489Y-103889607D01*
X150648030Y-103871994D01*
X150794758Y-103857630D01*
X150989211Y-103847779D01*
X151212934Y-103843707D01*
X151237825Y-103843667D01*
X151807334Y-103843667D01*
X151807334Y-104097667D01*
G36*
X134901018Y-101832686D02*
X135025105Y-102085436D01*
X135135578Y-102312961D01*
X135227203Y-102504276D01*
X135294748Y-102648395D01*
X135332977Y-102734332D01*
X135339667Y-102753436D01*
X135302573Y-102775009D01*
X135212032Y-102785210D01*
X135199713Y-102785333D01*
X135146692Y-102783156D01*
X135102958Y-102769299D01*
X135060853Y-102732769D01*
X135012719Y-102662578D01*
X134950896Y-102547735D01*
X134867726Y-102377249D01*
X134766962Y-102164336D01*
X134474164Y-101543339D01*
X134297275Y-101920920D01*
X134120386Y-102298500D01*
X133960841Y-101949250D01*
X133887887Y-101795537D01*
X133826101Y-101676326D01*
X133784696Y-101608900D01*
X133774662Y-101600000D01*
X133748376Y-101636233D01*
X133693300Y-101736204D01*
X133616215Y-101886818D01*
X133523904Y-102074981D01*
X133467711Y-102192667D01*
X133187395Y-102785333D01*
X132888729Y-102785333D01*
X133187339Y-102160917D01*
X133301268Y-101922041D01*
X133414428Y-101683648D01*
X133516405Y-101467752D01*
X133596786Y-101296367D01*
X133622890Y-101240167D01*
X133759830Y-100943833D01*
X133942863Y-101303667D01*
X134125897Y-101663500D01*
X134294134Y-101303667D01*
X134462370Y-100943833D01*
X134901018Y-101832686D01*
X134901018Y-101832686D01*
G37*
X134901018Y-101832686D02*
X135025105Y-102085436D01*
X135135578Y-102312961D01*
X135227203Y-102504276D01*
X135294748Y-102648395D01*
X135332977Y-102734332D01*
X135339667Y-102753436D01*
X135302573Y-102775009D01*
X135212032Y-102785210D01*
X135199713Y-102785333D01*
X135146692Y-102783156D01*
X135102958Y-102769299D01*
X135060853Y-102732769D01*
X135012719Y-102662578D01*
X134950896Y-102547735D01*
X134867726Y-102377249D01*
X134766962Y-102164336D01*
X134474164Y-101543339D01*
X134297275Y-101920920D01*
X134120386Y-102298500D01*
X133960841Y-101949250D01*
X133887887Y-101795537D01*
X133826101Y-101676326D01*
X133784696Y-101608900D01*
X133774662Y-101600000D01*
X133748376Y-101636233D01*
X133693300Y-101736204D01*
X133616215Y-101886818D01*
X133523904Y-102074981D01*
X133467711Y-102192667D01*
X133187395Y-102785333D01*
X132888729Y-102785333D01*
X133187339Y-102160917D01*
X133301268Y-101922041D01*
X133414428Y-101683648D01*
X133516405Y-101467752D01*
X133596786Y-101296367D01*
X133622890Y-101240167D01*
X133759830Y-100943833D01*
X133942863Y-101303667D01*
X134125897Y-101663500D01*
X134294134Y-101303667D01*
X134462370Y-100943833D01*
X134901018Y-101832686D01*
G36*
X138066704Y-101056797D02*
X138287843Y-101063645D01*
X138443365Y-101072845D01*
X138552308Y-101088233D01*
X138633707Y-101113646D01*
X138706601Y-101152918D01*
X138775428Y-101199594D01*
X138970012Y-101370217D01*
X139088252Y-101561920D01*
X139138362Y-101791486D01*
X139139678Y-101943842D01*
X139096508Y-102210493D01*
X138991256Y-102423088D01*
X138817960Y-102590963D01*
X138670902Y-102678098D01*
X138562957Y-102727153D01*
X138460560Y-102758631D01*
X138340082Y-102776300D01*
X138177894Y-102783928D01*
X137998355Y-102785333D01*
X137541000Y-102785333D01*
X137541000Y-102531333D01*
X137837334Y-102531333D01*
X138123084Y-102531267D01*
X138372522Y-102512625D01*
X138554602Y-102457961D01*
X138556156Y-102457184D01*
X138730557Y-102328111D01*
X138841996Y-102159078D01*
X138889942Y-101967317D01*
X138873863Y-101770061D01*
X138793228Y-101584543D01*
X138647506Y-101427994D01*
X138589137Y-101388104D01*
X138477537Y-101337627D01*
X138335428Y-101311239D01*
X138144250Y-101303825D01*
X137837334Y-101303667D01*
X137837334Y-102531333D01*
X137541000Y-102531333D01*
X137541000Y-101042761D01*
X138066704Y-101056797D01*
X138066704Y-101056797D01*
G37*
X138066704Y-101056797D02*
X138287843Y-101063645D01*
X138443365Y-101072845D01*
X138552308Y-101088233D01*
X138633707Y-101113646D01*
X138706601Y-101152918D01*
X138775428Y-101199594D01*
X138970012Y-101370217D01*
X139088252Y-101561920D01*
X139138362Y-101791486D01*
X139139678Y-101943842D01*
X139096508Y-102210493D01*
X138991256Y-102423088D01*
X138817960Y-102590963D01*
X138670902Y-102678098D01*
X138562957Y-102727153D01*
X138460560Y-102758631D01*
X138340082Y-102776300D01*
X138177894Y-102783928D01*
X137998355Y-102785333D01*
X137541000Y-102785333D01*
X137541000Y-102531333D01*
X137837334Y-102531333D01*
X138123084Y-102531267D01*
X138372522Y-102512625D01*
X138554602Y-102457961D01*
X138556156Y-102457184D01*
X138730557Y-102328111D01*
X138841996Y-102159078D01*
X138889942Y-101967317D01*
X138873863Y-101770061D01*
X138793228Y-101584543D01*
X138647506Y-101427994D01*
X138589137Y-101388104D01*
X138477537Y-101337627D01*
X138335428Y-101311239D01*
X138144250Y-101303825D01*
X137837334Y-101303667D01*
X137837334Y-102531333D01*
X137541000Y-102531333D01*
X137541000Y-101042761D01*
X138066704Y-101056797D01*
G36*
X140843000Y-101303667D02*
X139742334Y-101303667D01*
X139742334Y-102531333D01*
X140843000Y-102531333D01*
X140843000Y-102785333D01*
X139488334Y-102785333D01*
X139488334Y-101049667D01*
X140843000Y-101049667D01*
X140843000Y-101303667D01*
X140843000Y-101303667D01*
G37*
X140843000Y-101303667D02*
X139742334Y-101303667D01*
X139742334Y-102531333D01*
X140843000Y-102531333D01*
X140843000Y-102785333D01*
X139488334Y-102785333D01*
X139488334Y-101049667D01*
X140843000Y-101049667D01*
X140843000Y-101303667D01*
G36*
X141344325Y-101052786D02*
X141393332Y-101070974D01*
X141438916Y-101117475D01*
X141491566Y-101205532D01*
X141561769Y-101348389D01*
X141624679Y-101483148D01*
X141825875Y-101916630D01*
X141609857Y-102350982D01*
X141515253Y-102538436D01*
X141446820Y-102662511D01*
X141394200Y-102736204D01*
X141347034Y-102772517D01*
X141294961Y-102784448D01*
X141263734Y-102785333D01*
X141175385Y-102777880D01*
X141151492Y-102743032D01*
X141163222Y-102690083D01*
X141195308Y-102609487D01*
X141255060Y-102477582D01*
X141331471Y-102318376D01*
X141359969Y-102260938D01*
X141527122Y-101927043D01*
X141333228Y-101509292D01*
X141254583Y-101338039D01*
X141191266Y-101196719D01*
X141150613Y-101101927D01*
X141139334Y-101070604D01*
X141176492Y-101056523D01*
X141267359Y-101049769D01*
X141281408Y-101049667D01*
X141344325Y-101052786D01*
X141344325Y-101052786D01*
G37*
X141344325Y-101052786D02*
X141393332Y-101070974D01*
X141438916Y-101117475D01*
X141491566Y-101205532D01*
X141561769Y-101348389D01*
X141624679Y-101483148D01*
X141825875Y-101916630D01*
X141609857Y-102350982D01*
X141515253Y-102538436D01*
X141446820Y-102662511D01*
X141394200Y-102736204D01*
X141347034Y-102772517D01*
X141294961Y-102784448D01*
X141263734Y-102785333D01*
X141175385Y-102777880D01*
X141151492Y-102743032D01*
X141163222Y-102690083D01*
X141195308Y-102609487D01*
X141255060Y-102477582D01*
X141331471Y-102318376D01*
X141359969Y-102260938D01*
X141527122Y-101927043D01*
X141333228Y-101509292D01*
X141254583Y-101338039D01*
X141191266Y-101196719D01*
X141150613Y-101101927D01*
X141139334Y-101070604D01*
X141176492Y-101056523D01*
X141267359Y-101049769D01*
X141281408Y-101049667D01*
X141344325Y-101052786D01*
G36*
X142787497Y-101060749D02*
X142832136Y-101087796D01*
X142832667Y-101091440D01*
X142814813Y-101144771D01*
X142766621Y-101255633D01*
X142696144Y-101406092D01*
X142637174Y-101526759D01*
X142441680Y-101920304D01*
X142658726Y-102352819D01*
X142875772Y-102785333D01*
X142727605Y-102785333D01*
X142662151Y-102782431D01*
X142611150Y-102765040D01*
X142563565Y-102720136D01*
X142508357Y-102634693D01*
X142434488Y-102495687D01*
X142364335Y-102356689D01*
X142149231Y-101928044D01*
X142351268Y-101488855D01*
X142439324Y-101299687D01*
X142502815Y-101174499D01*
X142552004Y-101100098D01*
X142597156Y-101063292D01*
X142648535Y-101050891D01*
X142692985Y-101049667D01*
X142787497Y-101060749D01*
X142787497Y-101060749D01*
G37*
X142787497Y-101060749D02*
X142832136Y-101087796D01*
X142832667Y-101091440D01*
X142814813Y-101144771D01*
X142766621Y-101255633D01*
X142696144Y-101406092D01*
X142637174Y-101526759D01*
X142441680Y-101920304D01*
X142658726Y-102352819D01*
X142875772Y-102785333D01*
X142727605Y-102785333D01*
X142662151Y-102782431D01*
X142611150Y-102765040D01*
X142563565Y-102720136D01*
X142508357Y-102634693D01*
X142434488Y-102495687D01*
X142364335Y-102356689D01*
X142149231Y-101928044D01*
X142351268Y-101488855D01*
X142439324Y-101299687D01*
X142502815Y-101174499D01*
X142552004Y-101100098D01*
X142597156Y-101063292D01*
X142648535Y-101050891D01*
X142692985Y-101049667D01*
X142787497Y-101060749D01*
G36*
X136669982Y-101110986D02*
X136888024Y-101228299D01*
X136942757Y-101273937D01*
X137088837Y-101461890D01*
X137173198Y-101686995D01*
X137196679Y-101929889D01*
X137160123Y-102171205D01*
X137064369Y-102391580D01*
X136910261Y-102571647D01*
X136885527Y-102591434D01*
X136771803Y-102670878D01*
X136700619Y-102693539D01*
X136652170Y-102659913D01*
X136618869Y-102598125D01*
X136595460Y-102517890D01*
X136629216Y-102461493D01*
X136677595Y-102426491D01*
X136830691Y-102283059D01*
X136917355Y-102109380D01*
X136942347Y-101921031D01*
X136910430Y-101733592D01*
X136826364Y-101562639D01*
X136694911Y-101423750D01*
X136520833Y-101332503D01*
X136334500Y-101303983D01*
X136121591Y-101339801D01*
X135949495Y-101437151D01*
X135823143Y-101580877D01*
X135747468Y-101755826D01*
X135727399Y-101946842D01*
X135767869Y-102138769D01*
X135873809Y-102316453D01*
X135973868Y-102412298D01*
X136054370Y-102481350D01*
X136075485Y-102530910D01*
X136046702Y-102590730D01*
X136035807Y-102606522D01*
X135975938Y-102677320D01*
X135918348Y-102692273D01*
X135839657Y-102649917D01*
X135764392Y-102589508D01*
X135601117Y-102400572D01*
X135501084Y-102173819D01*
X135464809Y-101927790D01*
X135492810Y-101681023D01*
X135585604Y-101452057D01*
X135727708Y-101273937D01*
X135931573Y-101138369D01*
X136170647Y-101066021D01*
X136423819Y-101056893D01*
X136669982Y-101110986D01*
X136669982Y-101110986D01*
G37*
X136669982Y-101110986D02*
X136888024Y-101228299D01*
X136942757Y-101273937D01*
X137088837Y-101461890D01*
X137173198Y-101686995D01*
X137196679Y-101929889D01*
X137160123Y-102171205D01*
X137064369Y-102391580D01*
X136910261Y-102571647D01*
X136885527Y-102591434D01*
X136771803Y-102670878D01*
X136700619Y-102693539D01*
X136652170Y-102659913D01*
X136618869Y-102598125D01*
X136595460Y-102517890D01*
X136629216Y-102461493D01*
X136677595Y-102426491D01*
X136830691Y-102283059D01*
X136917355Y-102109380D01*
X136942347Y-101921031D01*
X136910430Y-101733592D01*
X136826364Y-101562639D01*
X136694911Y-101423750D01*
X136520833Y-101332503D01*
X136334500Y-101303983D01*
X136121591Y-101339801D01*
X135949495Y-101437151D01*
X135823143Y-101580877D01*
X135747468Y-101755826D01*
X135727399Y-101946842D01*
X135767869Y-102138769D01*
X135873809Y-102316453D01*
X135973868Y-102412298D01*
X136054370Y-102481350D01*
X136075485Y-102530910D01*
X136046702Y-102590730D01*
X136035807Y-102606522D01*
X135975938Y-102677320D01*
X135918348Y-102692273D01*
X135839657Y-102649917D01*
X135764392Y-102589508D01*
X135601117Y-102400572D01*
X135501084Y-102173819D01*
X135464809Y-101927790D01*
X135492810Y-101681023D01*
X135585604Y-101452057D01*
X135727708Y-101273937D01*
X135931573Y-101138369D01*
X136170647Y-101066021D01*
X136423819Y-101056893D01*
X136669982Y-101110986D01*
G36*
X140569446Y-101854644D02*
X140692349Y-101859152D01*
X140761502Y-101871390D01*
X140792362Y-101895221D01*
X140800387Y-101934510D01*
X140800667Y-101959833D01*
X140798091Y-102007861D01*
X140780056Y-102038587D01*
X140731106Y-102055875D01*
X140635782Y-102063590D01*
X140478626Y-102065596D01*
X140377334Y-102065667D01*
X140185221Y-102065022D01*
X140062318Y-102060514D01*
X139993165Y-102048276D01*
X139962305Y-102024445D01*
X139954280Y-101985156D01*
X139954000Y-101959833D01*
X139956576Y-101911805D01*
X139974611Y-101881079D01*
X140023561Y-101863791D01*
X140118885Y-101856076D01*
X140276041Y-101854070D01*
X140377334Y-101854000D01*
X140569446Y-101854644D01*
X140569446Y-101854644D01*
G37*
X140569446Y-101854644D02*
X140692349Y-101859152D01*
X140761502Y-101871390D01*
X140792362Y-101895221D01*
X140800387Y-101934510D01*
X140800667Y-101959833D01*
X140798091Y-102007861D01*
X140780056Y-102038587D01*
X140731106Y-102055875D01*
X140635782Y-102063590D01*
X140478626Y-102065596D01*
X140377334Y-102065667D01*
X140185221Y-102065022D01*
X140062318Y-102060514D01*
X139993165Y-102048276D01*
X139962305Y-102024445D01*
X139954280Y-101985156D01*
X139954000Y-101959833D01*
X139956576Y-101911805D01*
X139974611Y-101881079D01*
X140023561Y-101863791D01*
X140118885Y-101856076D01*
X140276041Y-101854070D01*
X140377334Y-101854000D01*
X140569446Y-101854644D01*
D11*
X111633000Y-120650000D02*
X111633000Y-122682000D01*
X111760000Y-123063000D02*
X111760000Y-120269000D01*
X111887000Y-120015000D02*
X111887000Y-123317000D01*
X112014000Y-123571000D02*
X112014000Y-119761000D01*
X112141000Y-123698000D02*
X112141000Y-119634000D01*
X112268000Y-119380000D02*
X112268000Y-123952000D01*
X111252000Y-117475000D02*
X111252000Y-125857000D01*
X111252000Y-125857000D02*
X118872000Y-125857000D01*
X118872000Y-125857000D02*
X119634000Y-125095000D01*
X119634000Y-125095000D02*
X119634000Y-118237000D01*
X119634000Y-118237000D02*
X118872000Y-117475000D01*
X118872000Y-117475000D02*
X111252000Y-117475000D01*
X119126000Y-121666000D02*
X118364000Y-121666000D01*
X118745000Y-121285000D02*
X118745000Y-122047000D01*
X119380000Y-121666000D02*
G75*
G03X119380000Y-121666000I-3937000J0D01*
G01*
X131318000Y-119253000D02*
X131318000Y-120015000D01*
X130937000Y-119634000D02*
X131699000Y-119634000D01*
X133604000Y-119380000D02*
X133604000Y-123190000D01*
X129794000Y-118618000D02*
X132842000Y-118618000D01*
X133604000Y-119380000D02*
X132842000Y-118618000D01*
X129032000Y-119380000D02*
X129032000Y-123190000D01*
X129032000Y-119380000D02*
X129794000Y-118618000D01*
X131445000Y-122936000D02*
X131191000Y-122936000D01*
X130683000Y-122809000D02*
X131953000Y-122809000D01*
X132207000Y-122682000D02*
X130429000Y-122682000D01*
X132461000Y-122555000D02*
X130175000Y-122555000D01*
X130048000Y-122428000D02*
X132588000Y-122428000D01*
X132715000Y-122301000D02*
X129921000Y-122301000D01*
X129794000Y-122174000D02*
X132842000Y-122174000D01*
X129667000Y-122047000D02*
X132969000Y-122047000D01*
X129032000Y-123190000D02*
X133604000Y-123190000D01*
X133350000Y-120904000D02*
G75*
G03X133350000Y-120904000I-2032000J0D01*
G01*
X171204000Y-62928000D02*
G75*
G03X171204000Y-62928000I-3000000J0D01*
G01*
X171204000Y-129928000D02*
G75*
G03X171204000Y-129928000I-3000000J0D01*
G01*
X115204000Y-129928000D02*
G75*
G03X115204000Y-129928000I-3000000J0D01*
G01*
X115204000Y-62928000D02*
G75*
G03X115204000Y-62928000I-3000000J0D01*
G01*
X108204000Y-58928000D02*
X183204000Y-58928000D01*
X183204000Y-58928000D02*
X183204000Y-133928000D01*
X183204000Y-133928000D02*
X108204000Y-133928000D01*
X108204000Y-133928000D02*
X108204000Y-58928000D01*
X110386905Y-97988381D02*
X110386905Y-96988381D01*
X110767858Y-96988381D01*
X110863096Y-97036000D01*
X110910715Y-97083619D01*
X110958334Y-97178857D01*
X110958334Y-97321714D01*
X110910715Y-97416952D01*
X110863096Y-97464571D01*
X110767858Y-97512190D01*
X110386905Y-97512190D01*
X111863096Y-96988381D02*
X111386905Y-96988381D01*
X111339286Y-97464571D01*
X111386905Y-97416952D01*
X111482143Y-97369333D01*
X111720239Y-97369333D01*
X111815477Y-97416952D01*
X111863096Y-97464571D01*
X111910715Y-97559810D01*
X111910715Y-97797905D01*
X111863096Y-97893143D01*
X111815477Y-97940762D01*
X111720239Y-97988381D01*
X111482143Y-97988381D01*
X111386905Y-97940762D01*
X111339286Y-97893143D01*
X139239667Y-118292571D02*
X138906333Y-118292571D01*
X138906333Y-118816381D02*
X138906333Y-117816381D01*
X139382524Y-117816381D01*
X140287286Y-118816381D02*
X139715857Y-118816381D01*
X140001571Y-118816381D02*
X140001571Y-117816381D01*
X139906333Y-117959238D01*
X139811095Y-118054476D01*
X139715857Y-118102095D01*
X110640905Y-70556381D02*
X110640905Y-69556381D01*
X111021858Y-69556381D01*
X111117096Y-69604000D01*
X111164715Y-69651619D01*
X111212334Y-69746857D01*
X111212334Y-69889714D01*
X111164715Y-69984952D01*
X111117096Y-70032571D01*
X111021858Y-70080190D01*
X110640905Y-70080190D01*
X112164715Y-70556381D02*
X111593286Y-70556381D01*
X111879000Y-70556381D02*
X111879000Y-69556381D01*
X111783762Y-69699238D01*
X111688524Y-69794476D01*
X111593286Y-69842095D01*
X115443095Y-64476381D02*
X115443095Y-65285905D01*
X115490714Y-65381143D01*
X115538333Y-65428762D01*
X115633571Y-65476381D01*
X115824048Y-65476381D01*
X115919286Y-65428762D01*
X115966905Y-65381143D01*
X116014524Y-65285905D01*
X116014524Y-64476381D01*
X116395476Y-64476381D02*
X117014524Y-64476381D01*
X116681190Y-64857333D01*
X116824048Y-64857333D01*
X116919286Y-64904952D01*
X116966905Y-64952571D01*
X117014524Y-65047810D01*
X117014524Y-65285905D01*
X116966905Y-65381143D01*
X116919286Y-65428762D01*
X116824048Y-65476381D01*
X116538333Y-65476381D01*
X116443095Y-65428762D01*
X116395476Y-65381143D01*
X170634381Y-127230095D02*
X169634381Y-127230095D01*
X169634381Y-126849142D01*
X169682000Y-126753904D01*
X169729619Y-126706285D01*
X169824857Y-126658666D01*
X169967714Y-126658666D01*
X170062952Y-126706285D01*
X170110571Y-126753904D01*
X170158190Y-126849142D01*
X170158190Y-127230095D01*
X169729619Y-126277714D02*
X169682000Y-126230095D01*
X169634381Y-126134857D01*
X169634381Y-125896761D01*
X169682000Y-125801523D01*
X169729619Y-125753904D01*
X169824857Y-125706285D01*
X169920095Y-125706285D01*
X170062952Y-125753904D01*
X170634381Y-126325333D01*
X170634381Y-125706285D01*
X170634381Y-105640095D02*
X169634381Y-105640095D01*
X169634381Y-105259142D01*
X169682000Y-105163904D01*
X169729619Y-105116285D01*
X169824857Y-105068666D01*
X169967714Y-105068666D01*
X170062952Y-105116285D01*
X170110571Y-105163904D01*
X170158190Y-105259142D01*
X170158190Y-105640095D01*
X169634381Y-104735333D02*
X169634381Y-104116285D01*
X170015333Y-104449619D01*
X170015333Y-104306761D01*
X170062952Y-104211523D01*
X170110571Y-104163904D01*
X170205810Y-104116285D01*
X170443905Y-104116285D01*
X170539143Y-104163904D01*
X170586762Y-104211523D01*
X170634381Y-104306761D01*
X170634381Y-104592476D01*
X170586762Y-104687714D01*
X170539143Y-104735333D01*
X170634381Y-84050095D02*
X169634381Y-84050095D01*
X169634381Y-83669142D01*
X169682000Y-83573904D01*
X169729619Y-83526285D01*
X169824857Y-83478666D01*
X169967714Y-83478666D01*
X170062952Y-83526285D01*
X170110571Y-83573904D01*
X170158190Y-83669142D01*
X170158190Y-84050095D01*
X169967714Y-82621523D02*
X170634381Y-82621523D01*
X169586762Y-82859619D02*
X170301048Y-83097714D01*
X170301048Y-82478666D01*
X116840095Y-115149381D02*
X116840095Y-115958905D01*
X116887714Y-116054143D01*
X116935333Y-116101762D01*
X117030571Y-116149381D01*
X117221048Y-116149381D01*
X117316286Y-116101762D01*
X117363905Y-116054143D01*
X117411524Y-115958905D01*
X117411524Y-115149381D01*
X118411524Y-116149381D02*
X117840095Y-116149381D01*
X118125809Y-116149381D02*
X118125809Y-115149381D01*
X118030571Y-115292238D01*
X117935333Y-115387476D01*
X117840095Y-115435095D01*
X147216905Y-85034381D02*
X147216905Y-84034381D01*
X147788334Y-85034381D02*
X147359762Y-84462952D01*
X147788334Y-84034381D02*
X147216905Y-84605810D01*
X148740715Y-85034381D02*
X148169286Y-85034381D01*
X148455000Y-85034381D02*
X148455000Y-84034381D01*
X148359762Y-84177238D01*
X148264524Y-84272476D01*
X148169286Y-84320095D01*
X140733714Y-84710567D02*
X141209905Y-84710567D01*
X140638476Y-84996281D02*
X140971809Y-83996281D01*
X141305143Y-84996281D01*
X141590857Y-84091519D02*
X141638476Y-84043900D01*
X141733714Y-83996281D01*
X141971810Y-83996281D01*
X142067048Y-84043900D01*
X142114667Y-84091519D01*
X142162286Y-84186757D01*
X142162286Y-84281995D01*
X142114667Y-84424852D01*
X141543238Y-84996281D01*
X142162286Y-84996281D01*
X136953714Y-84758827D02*
X137429905Y-84758827D01*
X136858476Y-85044541D02*
X137191809Y-84044541D01*
X137525143Y-85044541D01*
X138382286Y-85044541D02*
X137810857Y-85044541D01*
X138096571Y-85044541D02*
X138096571Y-84044541D01*
X138001333Y-84187398D01*
X137906095Y-84282636D01*
X137810857Y-84330255D01*
X151934326Y-85044541D02*
X151934326Y-84044541D01*
X152505755Y-85044541D01*
X152505755Y-84044541D01*
X153553374Y-84949303D02*
X153505755Y-84996922D01*
X153362898Y-85044541D01*
X153267660Y-85044541D01*
X153124802Y-84996922D01*
X153029564Y-84901684D01*
X152981945Y-84806446D01*
X152934326Y-84615970D01*
X152934326Y-84473112D01*
X152981945Y-84282636D01*
X153029564Y-84187398D01*
X153124802Y-84092160D01*
X153267660Y-84044541D01*
X153362898Y-84044541D01*
X153505755Y-84092160D01*
X153553374Y-84139779D01*
X161961296Y-85069941D02*
X161961296Y-84069941D01*
X162532725Y-85069941D01*
X162532725Y-84069941D01*
X163199391Y-84069941D02*
X163389868Y-84069941D01*
X163485106Y-84117560D01*
X163580344Y-84212798D01*
X163627963Y-84403274D01*
X163627963Y-84736608D01*
X163580344Y-84927084D01*
X163485106Y-85022322D01*
X163389868Y-85069941D01*
X163199391Y-85069941D01*
X163104153Y-85022322D01*
X163008915Y-84927084D01*
X162961296Y-84736608D01*
X162961296Y-84403274D01*
X163008915Y-84212798D01*
X163104153Y-84117560D01*
X163199391Y-84069941D01*
X158155284Y-84997563D02*
X158107665Y-85045182D01*
X157964808Y-85092801D01*
X157869570Y-85092801D01*
X157726712Y-85045182D01*
X157631474Y-84949944D01*
X157583855Y-84854706D01*
X157536236Y-84664230D01*
X157536236Y-84521372D01*
X157583855Y-84330896D01*
X157631474Y-84235658D01*
X157726712Y-84140420D01*
X157869570Y-84092801D01*
X157964808Y-84092801D01*
X158107665Y-84140420D01*
X158155284Y-84188039D01*
X147216905Y-78176381D02*
X147216905Y-77176381D01*
X147788334Y-78176381D02*
X147359762Y-77604952D01*
X147788334Y-77176381D02*
X147216905Y-77747810D01*
X148169286Y-77271619D02*
X148216905Y-77224000D01*
X148312143Y-77176381D01*
X148550239Y-77176381D01*
X148645477Y-77224000D01*
X148693096Y-77271619D01*
X148740715Y-77366857D01*
X148740715Y-77462095D01*
X148693096Y-77604952D01*
X148121667Y-78176381D01*
X148740715Y-78176381D01*
X140733714Y-77725567D02*
X141209905Y-77725567D01*
X140638476Y-78011281D02*
X140971809Y-77011281D01*
X141305143Y-78011281D01*
X141590857Y-77106519D02*
X141638476Y-77058900D01*
X141733714Y-77011281D01*
X141971810Y-77011281D01*
X142067048Y-77058900D01*
X142114667Y-77106519D01*
X142162286Y-77201757D01*
X142162286Y-77296995D01*
X142114667Y-77439852D01*
X141543238Y-78011281D01*
X142162286Y-78011281D01*
X136953714Y-77773827D02*
X137429905Y-77773827D01*
X136858476Y-78059541D02*
X137191809Y-77059541D01*
X137525143Y-78059541D01*
X138382286Y-78059541D02*
X137810857Y-78059541D01*
X138096571Y-78059541D02*
X138096571Y-77059541D01*
X138001333Y-77202398D01*
X137906095Y-77297636D01*
X137810857Y-77345255D01*
X151934326Y-78059541D02*
X151934326Y-77059541D01*
X152505755Y-78059541D01*
X152505755Y-77059541D01*
X153553374Y-77964303D02*
X153505755Y-78011922D01*
X153362898Y-78059541D01*
X153267660Y-78059541D01*
X153124802Y-78011922D01*
X153029564Y-77916684D01*
X152981945Y-77821446D01*
X152934326Y-77630970D01*
X152934326Y-77488112D01*
X152981945Y-77297636D01*
X153029564Y-77202398D01*
X153124802Y-77107160D01*
X153267660Y-77059541D01*
X153362898Y-77059541D01*
X153505755Y-77107160D01*
X153553374Y-77154779D01*
X161961296Y-78084941D02*
X161961296Y-77084941D01*
X162532725Y-78084941D01*
X162532725Y-77084941D01*
X163199391Y-77084941D02*
X163389868Y-77084941D01*
X163485106Y-77132560D01*
X163580344Y-77227798D01*
X163627963Y-77418274D01*
X163627963Y-77751608D01*
X163580344Y-77942084D01*
X163485106Y-78037322D01*
X163389868Y-78084941D01*
X163199391Y-78084941D01*
X163104153Y-78037322D01*
X163008915Y-77942084D01*
X162961296Y-77751608D01*
X162961296Y-77418274D01*
X163008915Y-77227798D01*
X163104153Y-77132560D01*
X163199391Y-77084941D01*
X158155284Y-78012563D02*
X158107665Y-78060182D01*
X157964808Y-78107801D01*
X157869570Y-78107801D01*
X157726712Y-78060182D01*
X157631474Y-77964944D01*
X157583855Y-77869706D01*
X157536236Y-77679230D01*
X157536236Y-77536372D01*
X157583855Y-77345896D01*
X157631474Y-77250658D01*
X157726712Y-77155420D01*
X157869570Y-77107801D01*
X157964808Y-77107801D01*
X158107665Y-77155420D01*
X158155284Y-77203039D01*
X147216905Y-71064381D02*
X147216905Y-70064381D01*
X147788334Y-71064381D02*
X147359762Y-70492952D01*
X147788334Y-70064381D02*
X147216905Y-70635810D01*
X148121667Y-70064381D02*
X148740715Y-70064381D01*
X148407381Y-70445333D01*
X148550239Y-70445333D01*
X148645477Y-70492952D01*
X148693096Y-70540571D01*
X148740715Y-70635810D01*
X148740715Y-70873905D01*
X148693096Y-70969143D01*
X148645477Y-71016762D01*
X148550239Y-71064381D01*
X148264524Y-71064381D01*
X148169286Y-71016762D01*
X148121667Y-70969143D01*
X140733714Y-70740567D02*
X141209905Y-70740567D01*
X140638476Y-71026281D02*
X140971809Y-70026281D01*
X141305143Y-71026281D01*
X141590857Y-70121519D02*
X141638476Y-70073900D01*
X141733714Y-70026281D01*
X141971810Y-70026281D01*
X142067048Y-70073900D01*
X142114667Y-70121519D01*
X142162286Y-70216757D01*
X142162286Y-70311995D01*
X142114667Y-70454852D01*
X141543238Y-71026281D01*
X142162286Y-71026281D01*
X136953714Y-70788827D02*
X137429905Y-70788827D01*
X136858476Y-71074541D02*
X137191809Y-70074541D01*
X137525143Y-71074541D01*
X138382286Y-71074541D02*
X137810857Y-71074541D01*
X138096571Y-71074541D02*
X138096571Y-70074541D01*
X138001333Y-70217398D01*
X137906095Y-70312636D01*
X137810857Y-70360255D01*
X151934326Y-71074541D02*
X151934326Y-70074541D01*
X152505755Y-71074541D01*
X152505755Y-70074541D01*
X153553374Y-70979303D02*
X153505755Y-71026922D01*
X153362898Y-71074541D01*
X153267660Y-71074541D01*
X153124802Y-71026922D01*
X153029564Y-70931684D01*
X152981945Y-70836446D01*
X152934326Y-70645970D01*
X152934326Y-70503112D01*
X152981945Y-70312636D01*
X153029564Y-70217398D01*
X153124802Y-70122160D01*
X153267660Y-70074541D01*
X153362898Y-70074541D01*
X153505755Y-70122160D01*
X153553374Y-70169779D01*
X161961296Y-71099941D02*
X161961296Y-70099941D01*
X162532725Y-71099941D01*
X162532725Y-70099941D01*
X163199391Y-70099941D02*
X163389868Y-70099941D01*
X163485106Y-70147560D01*
X163580344Y-70242798D01*
X163627963Y-70433274D01*
X163627963Y-70766608D01*
X163580344Y-70957084D01*
X163485106Y-71052322D01*
X163389868Y-71099941D01*
X163199391Y-71099941D01*
X163104153Y-71052322D01*
X163008915Y-70957084D01*
X162961296Y-70766608D01*
X162961296Y-70433274D01*
X163008915Y-70242798D01*
X163104153Y-70147560D01*
X163199391Y-70099941D01*
X158155284Y-71027563D02*
X158107665Y-71075182D01*
X157964808Y-71122801D01*
X157869570Y-71122801D01*
X157726712Y-71075182D01*
X157631474Y-70979944D01*
X157583855Y-70884706D01*
X157536236Y-70694230D01*
X157536236Y-70551372D01*
X157583855Y-70360896D01*
X157631474Y-70265658D01*
X157726712Y-70170420D01*
X157869570Y-70122801D01*
X157964808Y-70122801D01*
X158107665Y-70170420D01*
X158155284Y-70218039D01*
X147216905Y-64206381D02*
X147216905Y-63206381D01*
X147788334Y-64206381D02*
X147359762Y-63634952D01*
X147788334Y-63206381D02*
X147216905Y-63777810D01*
X148645477Y-63539714D02*
X148645477Y-64206381D01*
X148407381Y-63158762D02*
X148169286Y-63873048D01*
X148788334Y-63873048D01*
X140733714Y-63755567D02*
X141209905Y-63755567D01*
X140638476Y-64041281D02*
X140971809Y-63041281D01*
X141305143Y-64041281D01*
X141590857Y-63136519D02*
X141638476Y-63088900D01*
X141733714Y-63041281D01*
X141971810Y-63041281D01*
X142067048Y-63088900D01*
X142114667Y-63136519D01*
X142162286Y-63231757D01*
X142162286Y-63326995D01*
X142114667Y-63469852D01*
X141543238Y-64041281D01*
X142162286Y-64041281D01*
X136953714Y-63803827D02*
X137429905Y-63803827D01*
X136858476Y-64089541D02*
X137191809Y-63089541D01*
X137525143Y-64089541D01*
X138382286Y-64089541D02*
X137810857Y-64089541D01*
X138096571Y-64089541D02*
X138096571Y-63089541D01*
X138001333Y-63232398D01*
X137906095Y-63327636D01*
X137810857Y-63375255D01*
X151934326Y-64089541D02*
X151934326Y-63089541D01*
X152505755Y-64089541D01*
X152505755Y-63089541D01*
X153553374Y-63994303D02*
X153505755Y-64041922D01*
X153362898Y-64089541D01*
X153267660Y-64089541D01*
X153124802Y-64041922D01*
X153029564Y-63946684D01*
X152981945Y-63851446D01*
X152934326Y-63660970D01*
X152934326Y-63518112D01*
X152981945Y-63327636D01*
X153029564Y-63232398D01*
X153124802Y-63137160D01*
X153267660Y-63089541D01*
X153362898Y-63089541D01*
X153505755Y-63137160D01*
X153553374Y-63184779D01*
X161961296Y-64114941D02*
X161961296Y-63114941D01*
X162532725Y-64114941D01*
X162532725Y-63114941D01*
X163199391Y-63114941D02*
X163389868Y-63114941D01*
X163485106Y-63162560D01*
X163580344Y-63257798D01*
X163627963Y-63448274D01*
X163627963Y-63781608D01*
X163580344Y-63972084D01*
X163485106Y-64067322D01*
X163389868Y-64114941D01*
X163199391Y-64114941D01*
X163104153Y-64067322D01*
X163008915Y-63972084D01*
X162961296Y-63781608D01*
X162961296Y-63448274D01*
X163008915Y-63257798D01*
X163104153Y-63162560D01*
X163199391Y-63114941D01*
X158155284Y-64042563D02*
X158107665Y-64090182D01*
X157964808Y-64137801D01*
X157869570Y-64137801D01*
X157726712Y-64090182D01*
X157631474Y-63994944D01*
X157583855Y-63899706D01*
X157536236Y-63709230D01*
X157536236Y-63566372D01*
X157583855Y-63375896D01*
X157631474Y-63280658D01*
X157726712Y-63185420D01*
X157869570Y-63137801D01*
X157964808Y-63137801D01*
X158107665Y-63185420D01*
X158155284Y-63233039D01*
X115276334Y-116943143D02*
X115228715Y-116990762D01*
X115085858Y-117038381D01*
X114990620Y-117038381D01*
X114847762Y-116990762D01*
X114752524Y-116895524D01*
X114704905Y-116800286D01*
X114657286Y-116609810D01*
X114657286Y-116466952D01*
X114704905Y-116276476D01*
X114752524Y-116181238D01*
X114847762Y-116086000D01*
X114990620Y-116038381D01*
X115085858Y-116038381D01*
X115228715Y-116086000D01*
X115276334Y-116133619D01*
X116228715Y-117038381D02*
X115657286Y-117038381D01*
X115943000Y-117038381D02*
X115943000Y-116038381D01*
X115847762Y-116181238D01*
X115752524Y-116276476D01*
X115657286Y-116324095D01*
X128500143Y-121070666D02*
X128547762Y-121118285D01*
X128595381Y-121261142D01*
X128595381Y-121356380D01*
X128547762Y-121499238D01*
X128452524Y-121594476D01*
X128357286Y-121642095D01*
X128166810Y-121689714D01*
X128023952Y-121689714D01*
X127833476Y-121642095D01*
X127738238Y-121594476D01*
X127643000Y-121499238D01*
X127595381Y-121356380D01*
X127595381Y-121261142D01*
X127643000Y-121118285D01*
X127690619Y-121070666D01*
X127928714Y-120213523D02*
X128595381Y-120213523D01*
X127547762Y-120451619D02*
X128262048Y-120689714D01*
X128262048Y-120070666D01*
X108870667Y-58380381D02*
X108537333Y-57904190D01*
X108299238Y-58380381D02*
X108299238Y-57380381D01*
X108680191Y-57380381D01*
X108775429Y-57428000D01*
X108823048Y-57475619D01*
X108870667Y-57570857D01*
X108870667Y-57713714D01*
X108823048Y-57808952D01*
X108775429Y-57856571D01*
X108680191Y-57904190D01*
X108299238Y-57904190D01*
X109299238Y-57856571D02*
X109632572Y-57856571D01*
X109775429Y-58380381D02*
X109299238Y-58380381D01*
X109299238Y-57380381D01*
X109775429Y-57380381D01*
X110537334Y-57856571D02*
X110204000Y-57856571D01*
X110204000Y-58380381D02*
X110204000Y-57380381D01*
X110680191Y-57380381D01*
X111204000Y-57380381D02*
X111204000Y-57618476D01*
X110965905Y-57523238D02*
X111204000Y-57618476D01*
X111442096Y-57523238D01*
X111061143Y-57808952D02*
X111204000Y-57618476D01*
X111346858Y-57808952D01*
X111965905Y-57380381D02*
X111965905Y-57618476D01*
X111727810Y-57523238D02*
X111965905Y-57618476D01*
X112204001Y-57523238D01*
X111823048Y-57808952D02*
X111965905Y-57618476D01*
X112108763Y-57808952D01*
M02*
