G04 #@! TF.FileFunction,Soldermask,Top*
%FSLAX46Y46*%
G04 Gerber Fmt 4.6, Leading zero omitted, Abs format (unit mm)*
G04 Created by KiCad (PCBNEW 4.0.2+e4-6225~38~ubuntu14.04.1-stable) date Thu 21 Jul 2016 05:34:04 PM CEST*
%MOMM*%
G01*
G04 APERTURE LIST*
%ADD10C,0.100000*%
%ADD11R,2.000200X3.399740*%
%ADD12O,4.400500X2.899360*%
%ADD13R,2.432000X2.127200*%
%ADD14O,2.432000X2.127200*%
%ADD15O,1.500000X2.800000*%
%ADD16R,2.800000X1.500000*%
%ADD17O,2.800000X1.500000*%
%ADD18C,3.400000*%
%ADD19C,2.700000*%
%ADD20C,2.400000*%
%ADD21R,2.127200X2.127200*%
%ADD22O,2.127200X2.127200*%
G04 APERTURE END LIST*
D10*
D11*
X186690000Y-140040360D03*
X186690000Y-144439640D03*
X196215000Y-140040360D03*
X196215000Y-144439640D03*
D12*
X228170740Y-142875000D03*
X206169260Y-142875000D03*
D13*
X177165000Y-92075000D03*
D14*
X177165000Y-94615000D03*
X177165000Y-97155000D03*
X177165000Y-99695000D03*
X177165000Y-102235000D03*
X177165000Y-104775000D03*
D15*
X185235000Y-107190000D03*
X187235000Y-107190000D03*
X189235000Y-107190000D03*
X191235000Y-107190000D03*
X193235000Y-107190000D03*
X195235000Y-107190000D03*
D16*
X182245000Y-91440000D03*
D17*
X182245000Y-93440000D03*
X182245000Y-95440000D03*
X182245000Y-97440000D03*
X182245000Y-99440000D03*
X182245000Y-101440000D03*
X182245000Y-103440000D03*
X182245000Y-105440000D03*
X198245000Y-105440000D03*
X198245000Y-103440000D03*
X198245000Y-101440000D03*
X198245000Y-99440000D03*
X198245000Y-97440000D03*
X198245000Y-95440000D03*
X198245000Y-93440000D03*
X198245000Y-91440000D03*
D18*
X233680000Y-129780000D03*
X233680000Y-134780000D03*
X233680000Y-139780000D03*
X233680000Y-144780000D03*
X233680000Y-108190000D03*
X233680000Y-113190000D03*
X233680000Y-118190000D03*
X233680000Y-123190000D03*
X233680000Y-86600000D03*
X233680000Y-91600000D03*
X233680000Y-96600000D03*
X233680000Y-101600000D03*
X187560000Y-121965000D03*
X226060000Y-121965000D03*
X187560000Y-132715000D03*
X226060000Y-132715000D03*
D19*
X227765000Y-106045000D03*
X222725000Y-106045000D03*
X217685000Y-106045000D03*
D20*
X206345000Y-106045000D03*
X202565000Y-106045000D03*
D19*
X227765000Y-99060000D03*
X222725000Y-99060000D03*
X217685000Y-99060000D03*
D20*
X206345000Y-99060000D03*
X202565000Y-99060000D03*
D19*
X227765000Y-92075000D03*
X222725000Y-92075000D03*
X217685000Y-92075000D03*
D20*
X206345000Y-92075000D03*
X202565000Y-92075000D03*
D19*
X227765000Y-85090000D03*
X222725000Y-85090000D03*
X217685000Y-85090000D03*
D20*
X206345000Y-85090000D03*
X202565000Y-85090000D03*
D21*
X177165000Y-119634000D03*
D22*
X179578000Y-119634000D03*
X177038000Y-122174000D03*
X179578000Y-122174000D03*
X177038000Y-124714000D03*
X179578000Y-124714000D03*
X177038000Y-127254000D03*
X179578000Y-127254000D03*
M02*
