G04 #@! TF.FileFunction,Legend,Bot*
%FSLAX46Y46*%
G04 Gerber Fmt 4.6, Leading zero omitted, Abs format (unit mm)*
G04 Created by KiCad (PCBNEW 4.0.2+e4-6225~38~ubuntu14.04.1-stable) date Thu 21 Jul 2016 05:34:04 PM CEST*
%MOMM*%
G01*
G04 APERTURE LIST*
%ADD10C,0.100000*%
%ADD11C,0.150000*%
G04 APERTURE END LIST*
D10*
D11*
X190492000Y-103720000D02*
X189492000Y-103720000D01*
X189492000Y-102020000D02*
X190492000Y-102020000D01*
X187825000Y-91020000D02*
X186825000Y-91020000D01*
X186825000Y-89320000D02*
X187825000Y-89320000D01*
X185815000Y-111795000D02*
X185815000Y-112995000D01*
X187565000Y-112995000D02*
X187565000Y-111795000D01*
X182640000Y-111795000D02*
X182640000Y-112995000D01*
X184390000Y-112995000D02*
X184390000Y-111795000D01*
X188990000Y-111795000D02*
X188990000Y-112995000D01*
X190740000Y-112995000D02*
X190740000Y-111795000D01*
X192165000Y-111795000D02*
X192165000Y-112995000D01*
X193915000Y-112995000D02*
X193915000Y-111795000D01*
X179465000Y-111795000D02*
X179465000Y-112995000D01*
X181215000Y-112995000D02*
X181215000Y-111795000D01*
X176290000Y-111795000D02*
X176290000Y-112995000D01*
X178040000Y-112995000D02*
X178040000Y-111795000D01*
X199277000Y-111668000D02*
X199277000Y-112868000D01*
X201027000Y-112868000D02*
X201027000Y-111668000D01*
X191215000Y-127675000D02*
X192465000Y-127675000D01*
X191215000Y-127675000D02*
X191215000Y-126175000D01*
X201215000Y-127675000D02*
X201215000Y-126175000D01*
X201215000Y-127675000D02*
X199965000Y-127675000D01*
X196977000Y-101473000D02*
X196977000Y-100711000D01*
X196977000Y-100711000D02*
X195453000Y-100711000D01*
X195453000Y-100711000D02*
X195453000Y-101473000D01*
X198501000Y-90297000D02*
X193929000Y-90297000D01*
X193929000Y-90297000D02*
X193929000Y-101473000D01*
X193929000Y-101473000D02*
X198501000Y-101473000D01*
X198501000Y-101473000D02*
X198501000Y-90297000D01*
X190158666Y-105327143D02*
X190206285Y-105374762D01*
X190349142Y-105422381D01*
X190444380Y-105422381D01*
X190587238Y-105374762D01*
X190682476Y-105279524D01*
X190730095Y-105184286D01*
X190777714Y-104993810D01*
X190777714Y-104850952D01*
X190730095Y-104660476D01*
X190682476Y-104565238D01*
X190587238Y-104470000D01*
X190444380Y-104422381D01*
X190349142Y-104422381D01*
X190206285Y-104470000D01*
X190158666Y-104517619D01*
X189777714Y-104517619D02*
X189730095Y-104470000D01*
X189634857Y-104422381D01*
X189396761Y-104422381D01*
X189301523Y-104470000D01*
X189253904Y-104517619D01*
X189206285Y-104612857D01*
X189206285Y-104708095D01*
X189253904Y-104850952D01*
X189825333Y-105422381D01*
X189206285Y-105422381D01*
X187491666Y-92627143D02*
X187539285Y-92674762D01*
X187682142Y-92722381D01*
X187777380Y-92722381D01*
X187920238Y-92674762D01*
X188015476Y-92579524D01*
X188063095Y-92484286D01*
X188110714Y-92293810D01*
X188110714Y-92150952D01*
X188063095Y-91960476D01*
X188015476Y-91865238D01*
X187920238Y-91770000D01*
X187777380Y-91722381D01*
X187682142Y-91722381D01*
X187539285Y-91770000D01*
X187491666Y-91817619D01*
X187158333Y-91722381D02*
X186539285Y-91722381D01*
X186872619Y-92103333D01*
X186729761Y-92103333D01*
X186634523Y-92150952D01*
X186586904Y-92198571D01*
X186539285Y-92293810D01*
X186539285Y-92531905D01*
X186586904Y-92627143D01*
X186634523Y-92674762D01*
X186729761Y-92722381D01*
X187015476Y-92722381D01*
X187110714Y-92674762D01*
X187158333Y-92627143D01*
X189242381Y-112228334D02*
X188766190Y-111895000D01*
X189242381Y-111656905D02*
X188242381Y-111656905D01*
X188242381Y-112037858D01*
X188290000Y-112133096D01*
X188337619Y-112180715D01*
X188432857Y-112228334D01*
X188575714Y-112228334D01*
X188670952Y-112180715D01*
X188718571Y-112133096D01*
X188766190Y-112037858D01*
X188766190Y-111656905D01*
X189242381Y-113180715D02*
X189242381Y-112609286D01*
X189242381Y-112895000D02*
X188242381Y-112895000D01*
X188385238Y-112799762D01*
X188480476Y-112704524D01*
X188528095Y-112609286D01*
X186067381Y-112228334D02*
X185591190Y-111895000D01*
X186067381Y-111656905D02*
X185067381Y-111656905D01*
X185067381Y-112037858D01*
X185115000Y-112133096D01*
X185162619Y-112180715D01*
X185257857Y-112228334D01*
X185400714Y-112228334D01*
X185495952Y-112180715D01*
X185543571Y-112133096D01*
X185591190Y-112037858D01*
X185591190Y-111656905D01*
X185162619Y-112609286D02*
X185115000Y-112656905D01*
X185067381Y-112752143D01*
X185067381Y-112990239D01*
X185115000Y-113085477D01*
X185162619Y-113133096D01*
X185257857Y-113180715D01*
X185353095Y-113180715D01*
X185495952Y-113133096D01*
X186067381Y-112561667D01*
X186067381Y-113180715D01*
X192417381Y-112228334D02*
X191941190Y-111895000D01*
X192417381Y-111656905D02*
X191417381Y-111656905D01*
X191417381Y-112037858D01*
X191465000Y-112133096D01*
X191512619Y-112180715D01*
X191607857Y-112228334D01*
X191750714Y-112228334D01*
X191845952Y-112180715D01*
X191893571Y-112133096D01*
X191941190Y-112037858D01*
X191941190Y-111656905D01*
X191417381Y-112561667D02*
X191417381Y-113180715D01*
X191798333Y-112847381D01*
X191798333Y-112990239D01*
X191845952Y-113085477D01*
X191893571Y-113133096D01*
X191988810Y-113180715D01*
X192226905Y-113180715D01*
X192322143Y-113133096D01*
X192369762Y-113085477D01*
X192417381Y-112990239D01*
X192417381Y-112704524D01*
X192369762Y-112609286D01*
X192322143Y-112561667D01*
X195592381Y-112228334D02*
X195116190Y-111895000D01*
X195592381Y-111656905D02*
X194592381Y-111656905D01*
X194592381Y-112037858D01*
X194640000Y-112133096D01*
X194687619Y-112180715D01*
X194782857Y-112228334D01*
X194925714Y-112228334D01*
X195020952Y-112180715D01*
X195068571Y-112133096D01*
X195116190Y-112037858D01*
X195116190Y-111656905D01*
X194925714Y-113085477D02*
X195592381Y-113085477D01*
X194544762Y-112847381D02*
X195259048Y-112609286D01*
X195259048Y-113228334D01*
X182892381Y-112228334D02*
X182416190Y-111895000D01*
X182892381Y-111656905D02*
X181892381Y-111656905D01*
X181892381Y-112037858D01*
X181940000Y-112133096D01*
X181987619Y-112180715D01*
X182082857Y-112228334D01*
X182225714Y-112228334D01*
X182320952Y-112180715D01*
X182368571Y-112133096D01*
X182416190Y-112037858D01*
X182416190Y-111656905D01*
X181892381Y-113133096D02*
X181892381Y-112656905D01*
X182368571Y-112609286D01*
X182320952Y-112656905D01*
X182273333Y-112752143D01*
X182273333Y-112990239D01*
X182320952Y-113085477D01*
X182368571Y-113133096D01*
X182463810Y-113180715D01*
X182701905Y-113180715D01*
X182797143Y-113133096D01*
X182844762Y-113085477D01*
X182892381Y-112990239D01*
X182892381Y-112752143D01*
X182844762Y-112656905D01*
X182797143Y-112609286D01*
X179717381Y-112228334D02*
X179241190Y-111895000D01*
X179717381Y-111656905D02*
X178717381Y-111656905D01*
X178717381Y-112037858D01*
X178765000Y-112133096D01*
X178812619Y-112180715D01*
X178907857Y-112228334D01*
X179050714Y-112228334D01*
X179145952Y-112180715D01*
X179193571Y-112133096D01*
X179241190Y-112037858D01*
X179241190Y-111656905D01*
X178717381Y-113085477D02*
X178717381Y-112895000D01*
X178765000Y-112799762D01*
X178812619Y-112752143D01*
X178955476Y-112656905D01*
X179145952Y-112609286D01*
X179526905Y-112609286D01*
X179622143Y-112656905D01*
X179669762Y-112704524D01*
X179717381Y-112799762D01*
X179717381Y-112990239D01*
X179669762Y-113085477D01*
X179622143Y-113133096D01*
X179526905Y-113180715D01*
X179288810Y-113180715D01*
X179193571Y-113133096D01*
X179145952Y-113085477D01*
X179098333Y-112990239D01*
X179098333Y-112799762D01*
X179145952Y-112704524D01*
X179193571Y-112656905D01*
X179288810Y-112609286D01*
X202704381Y-112101334D02*
X202228190Y-111768000D01*
X202704381Y-111529905D02*
X201704381Y-111529905D01*
X201704381Y-111910858D01*
X201752000Y-112006096D01*
X201799619Y-112053715D01*
X201894857Y-112101334D01*
X202037714Y-112101334D01*
X202132952Y-112053715D01*
X202180571Y-112006096D01*
X202228190Y-111910858D01*
X202228190Y-111529905D01*
X201704381Y-112434667D02*
X201704381Y-113101334D01*
X202704381Y-112672762D01*
X196976905Y-126127381D02*
X196976905Y-126936905D01*
X196929286Y-127032143D01*
X196881667Y-127079762D01*
X196786429Y-127127381D01*
X196595952Y-127127381D01*
X196500714Y-127079762D01*
X196453095Y-127032143D01*
X196405476Y-126936905D01*
X196405476Y-126127381D01*
X195976905Y-126222619D02*
X195929286Y-126175000D01*
X195834048Y-126127381D01*
X195595952Y-126127381D01*
X195500714Y-126175000D01*
X195453095Y-126222619D01*
X195405476Y-126317857D01*
X195405476Y-126413095D01*
X195453095Y-126555952D01*
X196024524Y-127127381D01*
X195405476Y-127127381D01*
X196937381Y-94996095D02*
X197746905Y-94996095D01*
X197842143Y-95043714D01*
X197889762Y-95091333D01*
X197937381Y-95186571D01*
X197937381Y-95377048D01*
X197889762Y-95472286D01*
X197842143Y-95519905D01*
X197746905Y-95567524D01*
X196937381Y-95567524D01*
X197270714Y-96472286D02*
X197937381Y-96472286D01*
X196889762Y-96234190D02*
X197604048Y-95996095D01*
X197604048Y-96615143D01*
M02*
